v -28.3119 499.964 28.3119
v -28.2391 499.984 27.1026
v -28.9129 499.944 28.3119
v -29.5293 499.941 27.1026
v -28.2391 499.984 -27.1026
v -30 499.903 27.1026
v -29.5293 499.903 28.239
v -29.5292 499.941 -27.1026
v -28.3119 499.964 -28.3119
v -28.9129 499.944 -28.3119
v -30 499.903 -27.1026
v -29.5292 499.903 -28.2391
v -30 498.097 27.1026
v -29.5293 498.097 28.239
v -28.9129 498.056 28.3119
v -30 498.097 -27.1026
v -29.5292 498.097 -28.2391
v -28.9129 498.056 -28.3119
v -29.5293 498.059 27.1026
v -28.3119 498.036 28.3119
v -29.5292 498.059 -27.1026
v -28.2391 498.016 27.1026
v -28.2391 498.016 -27.1026
v -28.3119 498.036 -28.3119
v -27.1026 498 27.1026
v -27.1026 498.016 28.239
v -27.1026 498 -27.1026
v -27.1026 498.016 -28.2391
v 27.1026 498.016 -28.2391
v 27.1026 498 27.1026
v 27.1026 498.016 28.2391
v 28.3119 498.036 28.3119
v 28.2391 498.016 27.1026
v 27.1026 498 -27.1026
v 28.3119 498.036 -28.3119
v 28.2391 498.016 -27.1026
v 28.2391 498.016 -27.1026
v 28.3119 498.036 -28.3119
v 28.9129 498.056 -28.3119
v 29.5293 498.059 -27.1026
v 29.5293 498.059 27.1026
v 28.2391 498.016 27.1026
v 28.3119 498.036 28.3119
v 28.9129 498.056 28.3119
v 30 498.097 -27.1026
v 29.5293 498.097 -28.2391
v 30 498.097 27.1026
v 29.5293 498.097 28.2391
v 29.5292 499.903 28.2391
v 30 499.903 27.1026
v 28.9129 499.944 28.3119
v 30 499.903 -27.1026
v 29.5293 499.903 -28.2391
v 28.9129 499.944 -28.3119
v 29.5292 499.941 27.1026
v 29.5293 499.941 -27.1026
v 28.2391 499.984 27.1026
v 28.3119 499.964 28.3119
v 28.2391 499.984 -27.1026
v 28.3119 499.964 -28.3119
v 27.1026 500 27.1026
v 27.1026 499.984 28.2391
v 27.1026 500 -27.1026
v 27.1026 499.984 -28.2391
v -27.1026 499.984 -28.2391
v -27.1026 500 -27.1026
v -28.3119 499.964 -28.3119
v -28.2391 499.984 -27.1026
v -27.1026 500 27.1026
v -28.2391 499.984 27.1026
v -27.1026 499.984 28.239
v -28.3119 499.964 28.3119
v -28.3119 499.964 28.3119
v -28.9129 499.944 28.3119
v -28.3119 499.944 28.9128
v -29.5293 499.903 28.239
v -27.1026 499.984 28.239
v -28.2391 499.903 29.5292
v -29.5293 498.097 28.239
v -27.1026 499.941 29.5292
v -28.2391 498.097 29.5292
v -27.1026 499.903 30
v -28.3119 498.056 28.9128
v -28.9129 498.056 28.3119
v -28.3119 498.036 28.3119
v -27.1026 498.016 28.239
v -27.1026 498.097 30
v -27.1026 498.059 29.5292
v 27.1026 498.016 28.2391
v 27.1026 498.059 29.5293
v 27.1026 498.097 30
v 28.3119 498.056 28.9128
v 28.3119 498.036 28.3119
v 28.9129 498.056 28.3119
v 28.2391 498.097 29.5293
v 29.5293 498.097 28.2391
v 29.5292 499.903 28.2391
v 28.2391 499.903 29.5293
v 27.1026 499.903 30
v 28.3119 499.944 28.9129
v 28.9129 499.944 28.3119
v 28.3119 499.964 28.3119
v 27.1026 499.984 28.2391
v 27.1026 499.941 29.5293
v 28.3119 498.056 -28.9129
v 28.9129 498.056 -28.3119
v 28.3119 498.036 -28.3119
v 27.1026 498.016 -28.2391
v 29.5293 498.097 -28.2391
v 27.1026 498.059 -29.5293
v -27.1026 498.016 -28.2391
v 28.2391 498.097 -29.5293
v -27.1026 498.059 -29.5293
v 27.1026 498.097 -30
v 28.2391 499.903 -29.5293
v 29.5293 499.903 -28.2391
v 28.9129 499.944 -28.3119
v -27.1026 498.097 -30
v 27.1026 499.903 -30
v 28.3119 499.944 -28.9129
v 28.3119 499.964 -28.3119
v 27.1026 499.984 -28.2391
v 27.1026 499.941 -29.5293
v -27.1026 499.984 -28.2391
v -27.1026 499.903 -30
v -27.1026 499.941 -29.5293
v -28.3119 499.944 -28.9129
v -28.3119 499.964 -28.3119
v -28.9129 499.944 -28.3119
v -28.2391 499.903 -29.5293
v -29.5292 499.903 -28.2391
v -28.2391 498.097 -29.5293
v -29.5292 498.097 -28.2391
v -28.9129 498.056 -28.3119
v -28.3119 498.056 -28.9129
v -28.3119 498.036 -28.3119
v -28.3119 504.536 30.4719
v -28.2391 504.584 30.4517
v -28.9129 504.49 30.4719
v -29.5293 504.484 30.4517
v -28.2391 504.584 29.5483
v -30 504.397 30.4517
v -29.5293 504.397 30.4707
v -29.5292 504.484 29.5483
v -28.3119 504.536 29.5281
v -28.9129 504.49 29.5281
v -30 504.397 29.5483
v -29.5292 504.397 29.5293
v -30 500.223 30.4517
v -29.5293 500.223 30.4707
v -28.9129 500.13 30.4719
v -30 500.223 29.5483
v -29.5292 500.223 29.5293
v -28.9129 500.13 29.5281
v -29.5293 500.136 30.4517
v -28.3119 500.084 30.4719
v -29.5292 500.136 29.5483
v -28.2391 500.036 30.4517
v -28.2391 500.036 29.5483
v -28.3119 500.084 29.5281
v -27.1026 500 30.4517
v -27.1026 500.036 30.4707
v -27.1026 500 29.5483
v -27.1026 500.036 29.5293
v 27.1026 500.036 29.5293
v 27.1026 500 30.4517
v 27.1026 500.036 30.4707
v 28.3119 500.084 30.4719
v 28.2391 500.036 30.4517
v 27.1026 500 29.5483
v 28.3119 500.084 29.5281
v 28.2391 500.036 29.5483
v 28.2391 500.036 29.5483
v 28.3119 500.084 29.5281
v 28.9129 500.13 29.5281
v 29.5293 500.136 29.5483
v 29.5293 500.136 30.4517
v 28.2391 500.036 30.4517
v 28.3119 500.084 30.4719
v 28.9129 500.13 30.4719
v 30 500.223 29.5483
v 29.5293 500.223 29.5293
v 30 500.223 30.4517
v 29.5293 500.223 30.4707
v 29.5292 504.397 30.4707
v 30 504.397 30.4517
v 28.9129 504.49 30.4719
v 30 504.397 29.5483
v 29.5293 504.397 29.5293
v 28.9129 504.49 29.5281
v 29.5292 504.484 30.4517
v 29.5293 504.484 29.5483
v 28.2391 504.584 30.4517
v 28.3119 504.536 30.4719
v 28.2391 504.584 29.5483
v 28.3119 504.536 29.5281
v 27.1026 504.62 30.4517
v 27.1026 504.584 30.4707
v 27.1026 504.62 29.5483
v 27.1026 504.584 29.5293
v -27.1026 504.584 29.5293
v -27.1026 504.62 29.5483
v -28.3119 504.536 29.5281
v -28.2391 504.584 29.5483
v -27.1026 504.62 30.4517
v -28.2391 504.584 30.4517
v -27.1026 504.584 30.4707
v -28.3119 504.536 30.4719
v -28.3119 504.536 30.4719
v -28.9129 504.49 30.4719
v -28.3119 504.49 30.4819
v -29.5293 504.397 30.4707
v -27.1026 504.584 30.4707
v -28.2391 504.397 30.4922
v -29.5293 500.223 30.4707
v -27.1026 504.484 30.4922
v -28.2391 500.223 30.4922
v -27.1026 504.397 30.5
v -28.3119 500.13 30.4819
v -28.9129 500.13 30.4719
v -28.3119 500.084 30.4719
v -27.1026 500.036 30.4707
v -27.1026 500.223 30.5
v -27.1026 500.136 30.4922
v 27.1026 500.036 30.4707
v 27.1026 500.136 30.4922
v 27.1026 500.223 30.5
v 28.3119 500.13 30.4819
v 28.3119 500.084 30.4719
v 28.9129 500.13 30.4719
v 28.2391 500.223 30.4922
v 29.5293 500.223 30.4707
v 29.5292 504.397 30.4707
v 28.2391 504.397 30.4922
v 27.1026 504.397 30.5
v 28.3119 504.49 30.4819
v 28.9129 504.49 30.4719
v 28.3119 504.536 30.4719
v 27.1026 504.584 30.4707
v 27.1026 504.484 30.4922
v 28.3119 500.13 29.5181
v 28.9129 500.13 29.5281
v 28.3119 500.084 29.5281
v 27.1026 500.036 29.5293
v 29.5293 500.223 29.5293
v 27.1026 500.136 29.5078
v -27.1026 500.036 29.5293
v 28.2391 500.223 29.5078
v -27.1026 500.136 29.5078
v 27.1026 500.223 29.5
v 28.2391 504.397 29.5078
v 29.5293 504.397 29.5293
v 28.9129 504.49 29.5281
v -27.1026 500.223 29.5
v 27.1026 504.397 29.5
v 28.3119 504.49 29.5181
v 28.3119 504.536 29.5281
v 27.1026 504.584 29.5293
v 27.1026 504.484 29.5078
v -27.1026 504.584 29.5293
v -27.1026 504.397 29.5
v -27.1026 504.484 29.5078
v -28.3119 504.49 29.5181
v -28.3119 504.536 29.5281
v -28.9129 504.49 29.5281
v -28.2391 504.397 29.5078
v -29.5292 504.397 29.5293
v -28.2391 500.223 29.5078
v -29.5292 500.223 29.5293
v -28.9129 500.13 29.5281
v -28.3119 500.13 29.5181
v -28.3119 500.084 29.5281
v -28.3119 504.536 -29.5281
v -28.2391 504.584 -29.5483
v -28.9129 504.49 -29.5281
v -29.5293 504.484 -29.5483
v -28.2391 504.584 -30.4517
v -30 504.397 -29.5483
v -29.5293 504.397 -29.5293
v -29.5292 504.484 -30.4517
v -28.3119 504.536 -30.4719
v -28.9129 504.49 -30.4719
v -30 504.397 -30.4517
v -29.5292 504.397 -30.4707
v -30 500.223 -29.5483
v -29.5293 500.223 -29.5293
v -28.9129 500.13 -29.5281
v -30 500.223 -30.4517
v -29.5292 500.223 -30.4707
v -28.9129 500.13 -30.4719
v -29.5293 500.136 -29.5483
v -28.3119 500.084 -29.5281
v -29.5292 500.136 -30.4517
v -28.2391 500.036 -29.5483
v -28.2391 500.036 -30.4517
v -28.3119 500.084 -30.4719
v -27.1026 500 -29.5483
v -27.1026 500.036 -29.5293
v -27.1026 500 -30.4517
v -27.1026 500.036 -30.4707
v 27.1026 500.036 -30.4707
v 27.1026 500 -29.5483
v 27.1026 500.036 -29.5293
v 28.3119 500.084 -29.5281
v 28.2391 500.036 -29.5483
v 27.1026 500 -30.4517
v 28.3119 500.084 -30.4719
v 28.2391 500.036 -30.4517
v 28.2391 500.036 -30.4517
v 28.3119 500.084 -30.4719
v 28.9129 500.13 -30.4719
v 29.5293 500.136 -30.4517
v 29.5293 500.136 -29.5483
v 28.2391 500.036 -29.5483
v 28.3119 500.084 -29.5281
v 28.9129 500.13 -29.5281
v 30 500.223 -30.4517
v 29.5293 500.223 -30.4707
v 30 500.223 -29.5483
v 29.5293 500.223 -29.5293
v 29.5292 504.397 -29.5293
v 30 504.397 -29.5483
v 28.9129 504.49 -29.5281
v 30 504.397 -30.4517
v 29.5293 504.397 -30.4707
v 28.9129 504.49 -30.4719
v 29.5292 504.484 -29.5483
v 29.5293 504.484 -30.4517
v 28.2391 504.584 -29.5483
v 28.3119 504.536 -29.5281
v 28.2391 504.584 -30.4517
v 28.3119 504.536 -30.4719
v 27.1026 504.62 -29.5483
v 27.1026 504.584 -29.5293
v 27.1026 504.62 -30.4517
v 27.1026 504.584 -30.4707
v -27.1026 504.584 -30.4707
v -27.1026 504.62 -30.4517
v -28.3119 504.536 -30.4719
v -28.2391 504.584 -30.4517
v -27.1026 504.62 -29.5483
v -28.2391 504.584 -29.5483
v -27.1026 504.584 -29.5293
v -28.3119 504.536 -29.5281
v -28.3119 504.536 -29.5281
v -28.9129 504.49 -29.5281
v -28.3119 504.49 -29.5181
v -29.5293 504.397 -29.5293
v -27.1026 504.584 -29.5293
v -28.2391 504.397 -29.5078
v -29.5293 500.223 -29.5293
v -27.1026 504.484 -29.5078
v -28.2391 500.223 -29.5078
v -27.1026 504.397 -29.5
v -28.3119 500.13 -29.5181
v -28.9129 500.13 -29.5281
v -28.3119 500.084 -29.5281
v -27.1026 500.036 -29.5293
v -27.1026 500.223 -29.5
v -27.1026 500.136 -29.5078
v 27.1026 500.036 -29.5293
v 27.1026 500.136 -29.5078
v 27.1026 500.223 -29.5
v 28.3119 500.13 -29.5181
v 28.3119 500.084 -29.5281
v 28.9129 500.13 -29.5281
v 28.2391 500.223 -29.5078
v 29.5293 500.223 -29.5293
v 29.5292 504.397 -29.5293
v 28.2391 504.397 -29.5078
v 27.1026 504.397 -29.5
v 28.3119 504.49 -29.5181
v 28.9129 504.49 -29.5281
v 28.3119 504.536 -29.5281
v 27.1026 504.584 -29.5293
v 27.1026 504.484 -29.5078
v 28.3119 500.13 -30.4819
v 28.9129 500.13 -30.4719
v 28.3119 500.084 -30.4719
v 27.1026 500.036 -30.4707
v 29.5293 500.223 -30.4707
v 27.1026 500.136 -30.4922
v -27.1026 500.036 -30.4707
v 28.2391 500.223 -30.4922
v -27.1026 500.136 -30.4922
v 27.1026 500.223 -30.5
v 28.2391 504.397 -30.4922
v 29.5293 504.397 -30.4707
v 28.9129 504.49 -30.4719
v -27.1026 500.223 -30.5
v 27.1026 504.397 -30.5
v 28.3119 504.49 -30.4819
v 28.3119 504.536 -30.4719
v 27.1026 504.584 -30.4707
v 27.1026 504.484 -30.4922
v -27.1026 504.584 -30.4707
v -27.1026 504.397 -30.5
v -27.1026 504.484 -30.4922
v -28.3119 504.49 -30.4819
v -28.3119 504.536 -30.4719
v -28.9129 504.49 -30.4719
v -28.2391 504.397 -30.4922
v -29.5292 504.397 -30.4707
v -28.2391 500.223 -30.4922
v -29.5292 500.223 -30.4707
v -28.9129 500.13 -30.4719
v -28.3119 500.13 -30.4819
v -28.3119 500.084 -30.4719
v 29.5281 504.536 28.3119
v 29.5293 504.584 27.1026
v 29.5181 504.49 28.3119
v 29.5078 504.484 27.1026
v 29.5293 504.584 -27.1026
v 29.5 504.397 27.1026
v 29.5078 504.397 28.239
v 29.5078 504.484 -27.1026
v 29.5281 504.536 -28.3119
v 29.5181 504.49 -28.3119
v 29.5 504.397 -27.1026
v 29.5078 504.397 -28.2391
v 29.5 500.223 27.1026
v 29.5078 500.223 28.239
v 29.5181 500.13 28.3119
v 29.5 500.223 -27.1026
v 29.5078 500.223 -28.2391
v 29.5181 500.13 -28.3119
v 29.5078 500.136 27.1026
v 29.5281 500.084 28.3119
v 29.5078 500.136 -27.1026
v 29.5293 500.036 27.1026
v 29.5293 500.036 -27.1026
v 29.5281 500.084 -28.3119
v 29.5483 500 27.1026
v 29.5483 500.036 28.239
v 29.5483 500 -27.1026
v 29.5483 500.036 -28.2391
v 30.4517 500.036 -28.2391
v 30.4517 500 27.1026
v 30.4517 500.036 28.2391
v 30.4719 500.084 28.3119
v 30.4707 500.036 27.1026
v 30.4517 500 -27.1026
v 30.4719 500.084 -28.3119
v 30.4707 500.036 -27.1026
v 30.4707 500.036 -27.1026
v 30.4719 500.084 -28.3119
v 30.4819 500.13 -28.3119
v 30.4922 500.136 -27.1026
v 30.4922 500.136 27.1026
v 30.4707 500.036 27.1026
v 30.4719 500.084 28.3119
v 30.4819 500.13 28.3119
v 30.5 500.223 -27.1026
v 30.4922 500.223 -28.2391
v 30.5 500.223 27.1026
v 30.4922 500.223 28.2391
v 30.4922 504.397 28.2391
v 30.5 504.397 27.1026
v 30.4819 504.49 28.3119
v 30.5 504.397 -27.1026
v 30.4922 504.397 -28.2391
v 30.4819 504.49 -28.3119
v 30.4922 504.484 27.1026
v 30.4922 504.484 -27.1026
v 30.4707 504.584 27.1026
v 30.4719 504.536 28.3119
v 30.4707 504.584 -27.1026
v 30.4719 504.536 -28.3119
v 30.4517 504.62 27.1026
v 30.4517 504.584 28.2391
v 30.4517 504.62 -27.1026
v 30.4517 504.584 -28.2391
v 29.5483 504.584 -28.2391
v 29.5483 504.62 -27.1026
v 29.5281 504.536 -28.3119
v 29.5293 504.584 -27.1026
v 29.5483 504.62 27.1026
v 29.5293 504.584 27.1026
v 29.5483 504.584 28.239
v 29.5281 504.536 28.3119
v 29.5281 504.536 28.3119
v 29.5181 504.49 28.3119
v 29.5281 504.49 28.9128
v 29.5078 504.397 28.239
v 29.5483 504.584 28.239
v 29.5293 504.397 29.5292
v 29.5078 500.223 28.239
v 29.5483 504.484 29.5292
v 29.5293 500.223 29.5292
v 29.5483 504.397 30
v 29.5281 500.13 28.9128
v 29.5181 500.13 28.3119
v 29.5281 500.084 28.3119
v 29.5483 500.036 28.239
v 29.5483 500.223 30
v 29.5483 500.136 29.5292
v 30.4517 500.036 28.2391
v 30.4517 500.136 29.5293
v 30.4517 500.223 30
v 30.4719 500.13 28.9128
v 30.4719 500.084 28.3119
v 30.4819 500.13 28.3119
v 30.4707 500.223 29.5293
v 30.4922 500.223 28.2391
v 30.4922 504.397 28.2391
v 30.4707 504.397 29.5293
v 30.4517 504.397 30
v 30.4719 504.49 28.9129
v 30.4819 504.49 28.3119
v 30.4719 504.536 28.3119
v 30.4517 504.584 28.2391
v 30.4517 504.484 29.5293
v 30.4719 500.13 -28.9129
v 30.4819 500.13 -28.3119
v 30.4719 500.084 -28.3119
v 30.4517 500.036 -28.2391
v 30.4922 500.223 -28.2391
v 30.4517 500.136 -29.5293
v 29.5483 500.036 -28.2391
v 30.4707 500.223 -29.5293
v 29.5483 500.136 -29.5293
v 30.4517 500.223 -30
v 30.4707 504.397 -29.5293
v 30.4922 504.397 -28.2391
v 30.4819 504.49 -28.3119
v 29.5483 500.223 -30
v 30.4517 504.397 -30
v 30.4719 504.49 -28.9129
v 30.4719 504.536 -28.3119
v 30.4517 504.584 -28.2391
v 30.4517 504.484 -29.5293
v 29.5483 504.584 -28.2391
v 29.5483 504.397 -30
v 29.5483 504.484 -29.5293
v 29.5281 504.49 -28.9129
v 29.5281 504.536 -28.3119
v 29.5181 504.49 -28.3119
v 29.5293 504.397 -29.5293
v 29.5078 504.397 -28.2391
v 29.5293 500.223 -29.5293
v 29.5078 500.223 -28.2391
v 29.5181 500.13 -28.3119
v 29.5281 500.13 -28.9129
v 29.5281 500.084 -28.3119
v -30.4719 504.536 28.3119
v -30.4707 504.584 27.1026
v -30.4819 504.49 28.3119
v -30.4922 504.484 27.1026
v -30.4707 504.584 -27.1026
v -30.5 504.397 27.1026
v -30.4922 504.397 28.239
v -30.4922 504.484 -27.1026
v -30.4719 504.536 -28.3119
v -30.4819 504.49 -28.3119
v -30.5 504.397 -27.1026
v -30.4922 504.397 -28.2391
v -30.5 500.223 27.1026
v -30.4922 500.223 28.239
v -30.4819 500.13 28.3119
v -30.5 500.223 -27.1026
v -30.4922 500.223 -28.2391
v -30.4819 500.13 -28.3119
v -30.4922 500.136 27.1026
v -30.4719 500.084 28.3119
v -30.4922 500.136 -27.1026
v -30.4707 500.036 27.1026
v -30.4707 500.036 -27.1026
v -30.4719 500.084 -28.3119
v -30.4517 500 27.1026
v -30.4517 500.036 28.239
v -30.4517 500 -27.1026
v -30.4517 500.036 -28.2391
v -29.5483 500.036 -28.2391
v -29.5483 500 27.1026
v -29.5483 500.036 28.2391
v -29.5281 500.084 28.3119
v -29.5293 500.036 27.1026
v -29.5483 500 -27.1026
v -29.5281 500.084 -28.3119
v -29.5293 500.036 -27.1026
v -29.5293 500.036 -27.1026
v -29.5281 500.084 -28.3119
v -29.5181 500.13 -28.3119
v -29.5078 500.136 -27.1026
v -29.5078 500.136 27.1026
v -29.5293 500.036 27.1026
v -29.5281 500.084 28.3119
v -29.5181 500.13 28.3119
v -29.5 500.223 -27.1026
v -29.5078 500.223 -28.2391
v -29.5 500.223 27.1026
v -29.5078 500.223 28.2391
v -29.5078 504.397 28.2391
v -29.5 504.397 27.1026
v -29.5181 504.49 28.3119
v -29.5 504.397 -27.1026
v -29.5078 504.397 -28.2391
v -29.5181 504.49 -28.3119
v -29.5078 504.484 27.1026
v -29.5078 504.484 -27.1026
v -29.5293 504.584 27.1026
v -29.5281 504.536 28.3119
v -29.5293 504.584 -27.1026
v -29.5281 504.536 -28.3119
v -29.5483 504.62 27.1026
v -29.5483 504.584 28.2391
v -29.5483 504.62 -27.1026
v -29.5483 504.584 -28.2391
v -30.4517 504.584 -28.2391
v -30.4517 504.62 -27.1026
v -30.4719 504.536 -28.3119
v -30.4707 504.584 -27.1026
v -30.4517 504.62 27.1026
v -30.4707 504.584 27.1026
v -30.4517 504.584 28.239
v -30.4719 504.536 28.3119
v -30.4719 504.536 28.3119
v -30.4819 504.49 28.3119
v -30.4719 504.49 28.9128
v -30.4922 504.397 28.239
v -30.4517 504.584 28.239
v -30.4707 504.397 29.5292
v -30.4922 500.223 28.239
v -30.4517 504.484 29.5292
v -30.4707 500.223 29.5292
v -30.4517 504.397 30
v -30.4719 500.13 28.9128
v -30.4819 500.13 28.3119
v -30.4719 500.084 28.3119
v -30.4517 500.036 28.239
v -30.4517 500.223 30
v -30.4517 500.136 29.5292
v -29.5483 500.036 28.2391
v -29.5483 500.136 29.5293
v -29.5483 500.223 30
v -29.5281 500.13 28.9128
v -29.5281 500.084 28.3119
v -29.5181 500.13 28.3119
v -29.5293 500.223 29.5293
v -29.5078 500.223 28.2391
v -29.5078 504.397 28.2391
v -29.5293 504.397 29.5293
v -29.5483 504.397 30
v -29.5281 504.49 28.9129
v -29.5181 504.49 28.3119
v -29.5281 504.536 28.3119
v -29.5483 504.584 28.2391
v -29.5483 504.484 29.5293
v -29.5281 500.13 -28.9129
v -29.5181 500.13 -28.3119
v -29.5281 500.084 -28.3119
v -29.5483 500.036 -28.2391
v -29.5078 500.223 -28.2391
v -29.5483 500.136 -29.5293
v -30.4517 500.036 -28.2391
v -29.5293 500.223 -29.5293
v -30.4517 500.136 -29.5293
v -29.5483 500.223 -30
v -29.5293 504.397 -29.5293
v -29.5078 504.397 -28.2391
v -29.5181 504.49 -28.3119
v -30.4517 500.223 -30
v -29.5483 504.397 -30
v -29.5281 504.49 -28.9129
v -29.5281 504.536 -28.3119
v -29.5483 504.584 -28.2391
v -29.5483 504.484 -29.5293
v -30.4517 504.584 -28.2391
v -30.4517 504.397 -30
v -30.4517 504.484 -29.5293
v -30.4719 504.49 -28.9129
v -30.4719 504.536 -28.3119
v -30.4819 504.49 -28.3119
v -30.4707 504.397 -29.5293
v -30.4922 504.397 -28.2391
v -30.4707 500.223 -29.5293
v -30.4922 500.223 -28.2391
v -30.4819 500.13 -28.3119
v -30.4719 500.13 -28.9129
v -30.4719 500.084 -28.3119
v -29.2627 502.671 0.566238
v -29.2309 502.699 0.542052
v -29.5252 502.643 0.566238
v -29.7944 502.64 0.542052
v -29.2309 502.699 -0.542052
v -30 502.589 0.542052
v -29.7944 502.589 0.564781
v -29.7944 502.64 -0.542052
v -29.2627 502.671 -0.566238
v -29.5252 502.643 -0.566238
v -30 502.589 -0.542052
v -29.7944 502.589 -0.564782
v -30 500.131 0.542052
v -29.7944 500.131 0.564781
v -29.5252 500.077 0.566238
v -30 500.131 -0.542052
v -29.7944 500.131 -0.564782
v -29.5252 500.077 -0.566238
v -29.7944 500.08 0.542052
v -29.2627 500.049 0.566238
v -29.7944 500.08 -0.542052
v -29.2309 500.021 0.542052
v -29.2309 500.021 -0.542052
v -29.2627 500.049 -0.566238
v -28.7346 500 0.542052
v -28.7346 500.021 0.564781
v -28.7346 500 -0.542052
v -28.7346 500.021 -0.564782
v -5.06044 500.021 -0.564781
v -5.06044 500 0.542052
v -5.06044 500.021 0.564782
v -4.53228 500.049 0.566238
v -4.56408 500.021 0.542052
v -5.06044 500 -0.542052
v -4.53228 500.049 -0.566238
v -4.56408 500.021 -0.542052
v -4.56408 500.021 -0.542052
v -4.53228 500.049 -0.566238
v -4.26981 500.077 -0.566238
v -4.00059 500.08 -0.542052
v -4.00059 500.08 0.542052
v -4.56408 500.021 0.542052
v -4.53228 500.049 0.566238
v -4.26981 500.077 0.566238
v -3.795 500.131 -0.542052
v -4.00059 500.131 -0.564781
v -3.795 500.131 0.542052
v -4.00059 500.131 0.564782
v -4.0006 502.589 0.564782
v -3.79501 502.589 0.542052
v -4.26981 502.643 0.566238
v -3.795 502.589 -0.542052
v -4.00059 502.589 -0.564781
v -4.26979 502.643 -0.566238
v -4.0006 502.64 0.542052
v -4.00059 502.64 -0.542052
v -4.56409 502.699 0.542052
v -4.53229 502.671 0.566238
v -4.56408 502.699 -0.542052
v -4.53228 502.671 -0.566238
v -5.06045 502.72 0.542052
v -5.06045 502.699 0.564782
v -5.06044 502.72 -0.542052
v -5.06044 502.699 -0.564781
v -28.7346 502.699 -0.564782
v -28.7346 502.72 -0.542052
v -29.2627 502.671 -0.566238
v -29.2309 502.699 -0.542052
v -28.7346 502.72 0.542052
v -29.2309 502.699 0.542052
v -28.7346 502.699 0.564781
v -29.2627 502.671 0.566238
v -29.2627 502.671 0.566238
v -29.5252 502.643 0.566238
v -29.2627 502.643 0.578257
v -29.7944 502.589 0.564781
v -28.7346 502.699 0.564781
v -29.2309 502.589 0.590585
v -29.7944 500.131 0.564781
v -28.7346 502.64 0.590585
v -29.2309 500.131 0.590585
v -28.7346 502.589 0.6
v -29.2627 500.077 0.578257
v -29.5252 500.077 0.566238
v -29.2627 500.049 0.566238
v -28.7346 500.021 0.564781
v -28.7346 500.131 0.6
v -28.7346 500.08 0.590585
v -5.06044 500.021 0.564782
v -5.06044 500.08 0.590585
v -5.06044 500.131 0.6
v -4.53228 500.077 0.578257
v -4.53228 500.049 0.566238
v -4.26981 500.077 0.566238
v -4.56408 500.131 0.590585
v -4.00059 500.131 0.564782
v -4.0006 502.589 0.564782
v -4.56409 502.589 0.590585
v -5.06045 502.589 0.6
v -4.53229 502.643 0.578258
v -4.26981 502.643 0.566238
v -4.53229 502.671 0.566238
v -5.06045 502.699 0.564782
v -5.06045 502.64 0.590585
v -4.53228 500.077 -0.578258
v -4.26981 500.077 -0.566238
v -4.53228 500.049 -0.566238
v -5.06044 500.021 -0.564781
v -4.00059 500.131 -0.564781
v -5.06044 500.08 -0.590585
v -28.7346 500.021 -0.564782
v -4.56408 500.131 -0.590585
v -28.7346 500.08 -0.590586
v -5.06044 500.131 -0.6
v -4.56408 502.589 -0.590585
v -4.00059 502.589 -0.564781
v -4.26979 502.643 -0.566238
v -28.7346 500.131 -0.6
v -5.06043 502.589 -0.6
v -4.53228 502.643 -0.578258
v -4.53228 502.671 -0.566238
v -5.06044 502.699 -0.564781
v -5.06043 502.64 -0.590585
v -28.7346 502.699 -0.564782
v -28.7346 502.589 -0.6
v -28.7346 502.64 -0.590586
v -29.2627 502.643 -0.578258
v -29.2627 502.671 -0.566238
v -29.5252 502.643 -0.566238
v -29.2309 502.589 -0.590586
v -29.7944 502.589 -0.564782
v -29.2309 500.131 -0.590586
v -29.7944 500.131 -0.564782
v -29.5252 500.077 -0.566238
v -29.2627 500.077 -0.578258
v -29.2627 500.049 -0.566238
v 4.53228 502.671 0.566238
v 4.56408 502.699 0.542052
v 4.26981 502.643 0.566238
v 4.00059 502.64 0.542052
v 4.56409 502.699 -0.542052
v 3.795 502.589 0.542052
v 4.00059 502.589 0.564781
v 4.0006 502.64 -0.542052
v 4.53228 502.671 -0.566238
v 4.26981 502.643 -0.566238
v 3.795 502.589 -0.542052
v 4.0006 502.589 -0.564782
v 3.795 500.131 0.542052
v 4.00059 500.131 0.564781
v 4.26981 500.077 0.566238
v 3.795 500.131 -0.542052
v 4.0006 500.131 -0.564782
v 4.26981 500.077 -0.566238
v 4.00059 500.08 0.542052
v 4.53228 500.049 0.566238
v 4.0006 500.08 -0.542052
v 4.56408 500.021 0.542052
v 4.56409 500.021 -0.542052
v 4.53228 500.049 -0.566238
v 5.06044 500 0.542052
v 5.06044 500.021 0.564781
v 5.06044 500 -0.542052
v 5.06044 500.021 -0.564782
v 28.7346 500.021 -0.564781
v 28.7346 500 0.542052
v 28.7346 500.021 0.564782
v 29.2627 500.049 0.566238
v 29.2309 500.021 0.542052
v 28.7346 500 -0.542052
v 29.2627 500.049 -0.566238
v 29.2309 500.021 -0.542052
v 29.2309 500.021 -0.542052
v 29.2627 500.049 -0.566238
v 29.5252 500.077 -0.566238
v 29.7944 500.08 -0.542052
v 29.7944 500.08 0.542052
v 29.2309 500.021 0.542052
v 29.2627 500.049 0.566238
v 29.5252 500.077 0.566238
v 30 500.131 -0.542052
v 29.7944 500.131 -0.564781
v 30 500.131 0.542052
v 29.7944 500.131 0.564782
v 29.7944 502.589 0.564782
v 30 502.589 0.542052
v 29.5252 502.643 0.566238
v 30 502.589 -0.542052
v 29.7944 502.589 -0.564781
v 29.5252 502.643 -0.566238
v 29.7944 502.64 0.542052
v 29.7944 502.64 -0.542052
v 29.2309 502.699 0.542052
v 29.2627 502.671 0.566238
v 29.2309 502.699 -0.542052
v 29.2627 502.671 -0.566238
v 28.7345 502.72 0.542052
v 28.7345 502.699 0.564782
v 28.7346 502.72 -0.542052
v 28.7346 502.699 -0.564781
v 5.06044 502.699 -0.564782
v 5.06044 502.72 -0.542052
v 4.53228 502.671 -0.566238
v 4.56409 502.699 -0.542052
v 5.06044 502.72 0.542052
v 4.56408 502.699 0.542052
v 5.06044 502.699 0.564781
v 4.53228 502.671 0.566238
v 4.53228 502.671 0.566238
v 4.26981 502.643 0.566238
v 4.53228 502.643 0.578257
v 4.00059 502.589 0.564781
v 5.06044 502.699 0.564781
v 4.56408 502.589 0.590585
v 4.00059 500.131 0.564781
v 5.06044 502.64 0.590585
v 4.56408 500.131 0.590585
v 5.06044 502.589 0.6
v 4.53228 500.077 0.578257
v 4.26981 500.077 0.566238
v 4.53228 500.049 0.566238
v 5.06044 500.021 0.564781
v 5.06044 500.131 0.6
v 5.06044 500.08 0.590585
v 28.7346 500.021 0.564782
v 28.7346 500.08 0.590585
v 28.7346 500.131 0.6
v 29.2627 500.077 0.578257
v 29.2627 500.049 0.566238
v 29.5252 500.077 0.566238
v 29.2309 500.131 0.590585
v 29.7944 500.131 0.564782
v 29.7944 502.589 0.564782
v 29.2309 502.589 0.590585
v 28.7345 502.589 0.6
v 29.2627 502.643 0.578258
v 29.5252 502.643 0.566238
v 29.2627 502.671 0.566238
v 28.7345 502.699 0.564782
v 28.7345 502.64 0.590585
v 29.2627 500.077 -0.578258
v 29.5252 500.077 -0.566238
v 29.2627 500.049 -0.566238
v 28.7346 500.021 -0.564781
v 29.7944 500.131 -0.564781
v 28.7346 500.08 -0.590585
v 5.06044 500.021 -0.564782
v 29.2309 500.131 -0.590585
v 5.06044 500.08 -0.590586
v 28.7346 500.131 -0.6
v 29.2309 502.589 -0.590585
v 29.7944 502.589 -0.564781
v 29.5252 502.643 -0.566238
v 5.06044 500.131 -0.6
v 28.7346 502.589 -0.6
v 29.2627 502.643 -0.578258
v 29.2627 502.671 -0.566238
v 28.7346 502.699 -0.564781
v 28.7346 502.64 -0.590585
v 5.06044 502.699 -0.564782
v 5.06044 502.589 -0.6
v 5.06044 502.64 -0.590586
v 4.53228 502.643 -0.578258
v 4.53228 502.671 -0.566238
v 4.26981 502.643 -0.566238
v 4.56409 502.589 -0.590586
v 4.0006 502.589 -0.564782
v 4.56409 500.131 -0.590586
v 4.0006 500.131 -0.564782
v 4.26981 500.077 -0.566238
v 4.53228 500.077 -0.578258
v 4.53228 500.049 -0.566238
v 11.8814 499.535 -9.76003
v 11.9183 499.556 -9.76003
v 11.9183 499.556 -9.33177
v 11.8814 499.535 -9.33177
v 11.4532 499.535 -9.76003
v 11.4532 499.535 -9.33177
v 11.4163 499.556 -9.33177
v 11.4163 499.556 -9.76003
v 11.4532 503.165 -9.76003
v 11.4163 503.144 -9.76003
v 11.4163 503.144 -9.33177
v 11.4532 503.165 -9.33177
v 11.8814 503.165 -9.33177
v 11.8814 503.165 -9.76003
v 11.9183 503.144 -9.76003
v 11.9183 503.144 -9.33177
v 11.9207 503.117 -9.2925
v 11.9183 503.144 -9.33177
v 11.8814 503.165 -9.33177
v 11.8814 503.144 -9.29486
v 11.9207 503.104 -9.28247
v 11.4532 503.165 -9.33177
v 11.4163 503.144 -9.33177
v 11.4139 503.117 -9.2925
v 11.4532 503.144 -9.29486
v 11.4139 503.104 -9.28247
v 11.8814 503.1 -9.26245
v 11.4532 503.1 -9.26245
v 11.8814 503.051 -9.24717
v 11.9183 503.051 -9.26245
v 11.4532 503.051 -9.24717
v 11.4163 503.051 -9.26245
v 11.4163 499.649 -9.26245
v 11.8814 499.649 -9.24717
v 11.9183 499.649 -9.26245
v 11.4532 499.649 -9.24717
v 11.9207 499.596 -9.28247
v 11.4139 499.596 -9.28247
v 11.8814 499.6 -9.26245
v 11.4532 499.6 -9.26245
v 11.8814 499.556 -9.29486
v 11.9207 499.583 -9.2925
v 11.4532 499.556 -9.29486
v 11.4139 499.583 -9.2925
v 11.8814 499.535 -9.33177
v 11.9183 499.556 -9.33177
v 11.4532 499.535 -9.33177
v 11.4163 499.556 -9.33177
v 11.9183 499.556 -9.76003
v 11.8814 499.535 -9.76003
v 11.9207 499.583 -9.7993
v 11.8814 499.556 -9.79694
v 11.9207 499.596 -9.80933
v 11.4532 499.535 -9.76003
v 11.4163 499.556 -9.76003
v 11.4139 499.583 -9.7993
v 11.4532 499.556 -9.79694
v 11.4139 499.596 -9.80933
v 11.8814 499.6 -9.82935
v 11.4532 499.6 -9.82935
v 11.8814 499.649 -9.84464
v 11.9183 499.649 -9.82935
v 11.4532 499.649 -9.84464
v 11.4163 499.649 -9.82935
v 11.4163 503.051 -9.82935
v 11.8814 503.051 -9.84464
v 11.9183 503.051 -9.82935
v 11.4532 503.051 -9.84464
v 11.4139 503.104 -9.80933
v 11.9207 503.104 -9.80933
v 11.4532 503.1 -9.82935
v 11.8814 503.1 -9.82935
v 11.4139 503.117 -9.7993
v 11.8814 503.144 -9.79694
v 11.9207 503.117 -9.7993
v 11.4532 503.144 -9.79694
v 11.4163 503.144 -9.76003
v 11.4532 503.165 -9.76003
v 11.8814 503.165 -9.76003
v 11.9183 503.144 -9.76003
v 11.9207 503.104 -9.80933
v 11.9207 503.117 -9.7993
v 11.9307 503.104 -9.7993
v 11.9183 503.051 -9.82935
v 11.9183 503.144 -9.76003
v 11.9507 503.051 -9.79694
v 11.9183 499.649 -9.82935
v 11.9507 503.1 -9.76003
v 11.9183 503.144 -9.33177
v 11.966 503.051 -9.76003
v 11.9507 503.1 -9.33177
v 11.9307 503.104 -9.2925
v 11.9207 503.117 -9.2925
v 11.9207 503.104 -9.28247
v 11.966 503.051 -9.33177
v 11.9507 503.051 -9.29486
v 11.9183 503.051 -9.26245
v 11.9183 499.649 -9.26245
v 11.9507 499.649 -9.29486
v 11.966 499.649 -9.76003
v 11.966 499.649 -9.33177
v 11.9307 499.596 -9.2925
v 11.9207 499.596 -9.28247
v 11.9207 499.583 -9.2925
v 11.9183 499.556 -9.33177
v 11.9507 499.6 -9.33177
v 11.9183 499.556 -9.76003
v 11.9507 499.6 -9.76003
v 11.9307 499.596 -9.7993
v 11.9207 499.583 -9.7993
v 11.9207 499.596 -9.80933
v 11.9507 499.649 -9.79694
v 11.4039 503.104 -9.2925
v 11.4139 503.104 -9.28247
v 11.4139 503.117 -9.2925
v 11.4163 503.144 -9.33177
v 11.4163 503.051 -9.26245
v 11.3839 503.1 -9.33177
v 11.4163 503.144 -9.76003
v 11.3839 503.051 -9.29486
v 11.3839 503.1 -9.76003
v 11.3686 503.051 -9.33177
v 11.4039 503.104 -9.7993
v 11.4139 503.117 -9.7993
v 11.4139 503.104 -9.80933
v 11.3686 503.051 -9.76003
v 11.3839 503.051 -9.79694
v 11.4163 503.051 -9.82935
v 11.4163 499.649 -9.82935
v 11.3839 499.649 -9.79694
v 11.4139 499.596 -9.80933
v 11.3686 499.649 -9.76003
v 11.4039 499.596 -9.7993
v 11.4139 499.583 -9.7993
v 11.4163 499.556 -9.76003
v 11.3839 499.6 -9.76003
v 11.4163 499.556 -9.33177
v 11.3839 499.6 -9.33177
v 11.3686 499.649 -9.33177
v 11.4039 499.596 -9.2925
v 11.4139 499.583 -9.2925
v 11.4139 499.596 -9.28247
v 11.3839 499.649 -9.29486
v 11.4163 499.649 -9.26245
v -11.4532 499.535 -9.76003
v -11.4163 499.556 -9.76003
v -11.4163 499.556 -9.33177
v -11.4532 499.535 -9.33177
v -11.8814 499.535 -9.76003
v -11.8814 499.535 -9.33177
v -11.9183 499.556 -9.33177
v -11.9183 499.556 -9.76003
v -11.8814 503.165 -9.76003
v -11.9183 503.144 -9.76003
v -11.9183 503.144 -9.33177
v -11.8814 503.165 -9.33177
v -11.4532 503.165 -9.33177
v -11.4532 503.165 -9.76003
v -11.4163 503.144 -9.76003
v -11.4163 503.144 -9.33177
v -11.4139 503.117 -9.2925
v -11.4163 503.144 -9.33177
v -11.4532 503.165 -9.33177
v -11.4532 503.144 -9.29486
v -11.4139 503.104 -9.28247
v -11.8814 503.165 -9.33177
v -11.9183 503.144 -9.33177
v -11.9207 503.117 -9.2925
v -11.8814 503.144 -9.29486
v -11.9207 503.104 -9.28247
v -11.4532 503.1 -9.26245
v -11.8814 503.1 -9.26245
v -11.4532 503.051 -9.24717
v -11.4163 503.051 -9.26245
v -11.8814 503.051 -9.24717
v -11.9183 503.051 -9.26245
v -11.9183 499.649 -9.26245
v -11.4532 499.649 -9.24717
v -11.4163 499.649 -9.26245
v -11.8814 499.649 -9.24717
v -11.4139 499.596 -9.28247
v -11.9207 499.596 -9.28247
v -11.4532 499.6 -9.26245
v -11.8814 499.6 -9.26245
v -11.4532 499.556 -9.29486
v -11.4139 499.583 -9.2925
v -11.8814 499.556 -9.29486
v -11.9207 499.583 -9.2925
v -11.4532 499.535 -9.33177
v -11.4163 499.556 -9.33177
v -11.8814 499.535 -9.33177
v -11.9183 499.556 -9.33177
v -11.4163 499.556 -9.76003
v -11.4532 499.535 -9.76003
v -11.4139 499.583 -9.7993
v -11.4532 499.556 -9.79694
v -11.4139 499.596 -9.80933
v -11.8814 499.535 -9.76003
v -11.9183 499.556 -9.76003
v -11.9207 499.583 -9.7993
v -11.8814 499.556 -9.79694
v -11.9207 499.596 -9.80933
v -11.4532 499.6 -9.82935
v -11.8814 499.6 -9.82935
v -11.4532 499.649 -9.84464
v -11.4163 499.649 -9.82935
v -11.8814 499.649 -9.84464
v -11.9183 499.649 -9.82935
v -11.9183 503.051 -9.82935
v -11.4532 503.051 -9.84464
v -11.4163 503.051 -9.82935
v -11.8814 503.051 -9.84464
v -11.9207 503.104 -9.80933
v -11.4139 503.104 -9.80933
v -11.8814 503.1 -9.82935
v -11.4532 503.1 -9.82935
v -11.9207 503.117 -9.7993
v -11.4532 503.144 -9.79694
v -11.4139 503.117 -9.7993
v -11.8814 503.144 -9.79694
v -11.9183 503.144 -9.76003
v -11.8814 503.165 -9.76003
v -11.4532 503.165 -9.76003
v -11.4163 503.144 -9.76003
v -11.4139 503.104 -9.80933
v -11.4139 503.117 -9.7993
v -11.4039 503.104 -9.7993
v -11.4163 503.051 -9.82935
v -11.4163 503.144 -9.76003
v -11.3839 503.051 -9.79694
v -11.4163 499.649 -9.82935
v -11.3839 503.1 -9.76003
v -11.4163 503.144 -9.33177
v -11.3686 503.051 -9.76003
v -11.3839 503.1 -9.33177
v -11.4039 503.104 -9.2925
v -11.4139 503.117 -9.2925
v -11.4139 503.104 -9.28247
v -11.3686 503.051 -9.33177
v -11.3839 503.051 -9.29486
v -11.4163 503.051 -9.26245
v -11.4163 499.649 -9.26245
v -11.3839 499.649 -9.29486
v -11.3686 499.649 -9.76003
v -11.3686 499.649 -9.33177
v -11.4039 499.596 -9.2925
v -11.4139 499.596 -9.28247
v -11.4139 499.583 -9.2925
v -11.4163 499.556 -9.33177
v -11.3839 499.6 -9.33177
v -11.4163 499.556 -9.76003
v -11.3839 499.6 -9.76003
v -11.4039 499.596 -9.7993
v -11.4139 499.583 -9.7993
v -11.4139 499.596 -9.80933
v -11.3839 499.649 -9.79694
v -11.9307 503.104 -9.2925
v -11.9207 503.104 -9.28247
v -11.9207 503.117 -9.2925
v -11.9183 503.144 -9.33177
v -11.9183 503.051 -9.26245
v -11.9507 503.1 -9.33177
v -11.9183 503.144 -9.76003
v -11.9507 503.051 -9.29486
v -11.9507 503.1 -9.76003
v -11.966 503.051 -9.33177
v -11.9307 503.104 -9.7993
v -11.9207 503.117 -9.7993
v -11.9207 503.104 -9.80933
v -11.966 503.051 -9.76003
v -11.9507 503.051 -9.79694
v -11.9183 503.051 -9.82935
v -11.9183 499.649 -9.82935
v -11.9507 499.649 -9.79694
v -11.9207 499.596 -9.80933
v -11.966 499.649 -9.76003
v -11.9307 499.596 -9.7993
v -11.9207 499.583 -9.7993
v -11.9183 499.556 -9.76003
v -11.9507 499.6 -9.76003
v -11.9183 499.556 -9.33177
v -11.9507 499.6 -9.33177
v -11.966 499.649 -9.33177
v -11.9307 499.596 -9.2925
v -11.9207 499.583 -9.2925
v -11.9207 499.596 -9.28247
v -11.9507 499.649 -9.29486
v -11.9183 499.649 -9.26245
v 11.8814 499.535 9.33177
v 11.9183 499.556 9.33177
v 11.9183 499.556 9.76003
v 11.8814 499.535 9.76003
v 11.4532 499.535 9.33177
v 11.4532 499.535 9.76003
v 11.4163 499.556 9.76003
v 11.4163 499.556 9.33177
v 11.4532 503.165 9.33177
v 11.4163 503.144 9.33177
v 11.4163 503.144 9.76003
v 11.4532 503.165 9.76003
v 11.8814 503.165 9.76003
v 11.8814 503.165 9.33177
v 11.9183 503.144 9.33177
v 11.9183 503.144 9.76003
v 11.9207 503.117 9.7993
v 11.9183 503.144 9.76003
v 11.8814 503.165 9.76003
v 11.8814 503.144 9.79694
v 11.9207 503.104 9.80933
v 11.4532 503.165 9.76003
v 11.4163 503.144 9.76003
v 11.4139 503.117 9.7993
v 11.4532 503.144 9.79694
v 11.4139 503.104 9.80933
v 11.8814 503.1 9.82935
v 11.4532 503.1 9.82935
v 11.8814 503.051 9.84464
v 11.9183 503.051 9.82935
v 11.4532 503.051 9.84464
v 11.4163 503.051 9.82935
v 11.4163 499.649 9.82935
v 11.8814 499.649 9.84464
v 11.9183 499.649 9.82935
v 11.4532 499.649 9.84464
v 11.9207 499.596 9.80933
v 11.4139 499.596 9.80933
v 11.8814 499.6 9.82935
v 11.4532 499.6 9.82935
v 11.8814 499.556 9.79694
v 11.9207 499.583 9.7993
v 11.4532 499.556 9.79694
v 11.4139 499.583 9.7993
v 11.8814 499.535 9.76003
v 11.9183 499.556 9.76003
v 11.4532 499.535 9.76003
v 11.4163 499.556 9.76003
v 11.9183 499.556 9.33177
v 11.8814 499.535 9.33177
v 11.9207 499.583 9.2925
v 11.8814 499.556 9.29486
v 11.9207 499.596 9.28247
v 11.4532 499.535 9.33177
v 11.4163 499.556 9.33177
v 11.4139 499.583 9.2925
v 11.4532 499.556 9.29486
v 11.4139 499.596 9.28247
v 11.8814 499.6 9.26245
v 11.4532 499.6 9.26245
v 11.8814 499.649 9.24717
v 11.9183 499.649 9.26245
v 11.4532 499.649 9.24717
v 11.4163 499.649 9.26245
v 11.4163 503.051 9.26245
v 11.8814 503.051 9.24717
v 11.9183 503.051 9.26245
v 11.4532 503.051 9.24717
v 11.4139 503.104 9.28247
v 11.9207 503.104 9.28247
v 11.4532 503.1 9.26245
v 11.8814 503.1 9.26245
v 11.4139 503.117 9.2925
v 11.8814 503.144 9.29486
v 11.9207 503.117 9.2925
v 11.4532 503.144 9.29486
v 11.4163 503.144 9.33177
v 11.4532 503.165 9.33177
v 11.8814 503.165 9.33177
v 11.9183 503.144 9.33177
v 11.9207 503.104 9.28247
v 11.9207 503.117 9.2925
v 11.9307 503.104 9.2925
v 11.9183 503.051 9.26245
v 11.9183 503.144 9.33177
v 11.9507 503.051 9.29486
v 11.9183 499.649 9.26245
v 11.9507 503.1 9.33177
v 11.9183 503.144 9.76003
v 11.966 503.051 9.33177
v 11.9507 503.1 9.76003
v 11.9307 503.104 9.7993
v 11.9207 503.117 9.7993
v 11.9207 503.104 9.80933
v 11.966 503.051 9.76003
v 11.9507 503.051 9.79694
v 11.9183 503.051 9.82935
v 11.9183 499.649 9.82935
v 11.9507 499.649 9.79694
v 11.966 499.649 9.33177
v 11.966 499.649 9.76003
v 11.9307 499.596 9.7993
v 11.9207 499.596 9.80933
v 11.9207 499.583 9.7993
v 11.9183 499.556 9.76003
v 11.9507 499.6 9.76003
v 11.9183 499.556 9.33177
v 11.9507 499.6 9.33177
v 11.9307 499.596 9.2925
v 11.9207 499.583 9.2925
v 11.9207 499.596 9.28247
v 11.9507 499.649 9.29486
v 11.4039 503.104 9.7993
v 11.4139 503.104 9.80933
v 11.4139 503.117 9.7993
v 11.4163 503.144 9.76003
v 11.4163 503.051 9.82935
v 11.3839 503.1 9.76003
v 11.4163 503.144 9.33177
v 11.3839 503.051 9.79694
v 11.3839 503.1 9.33177
v 11.3686 503.051 9.76003
v 11.4039 503.104 9.2925
v 11.4139 503.117 9.2925
v 11.4139 503.104 9.28247
v 11.3686 503.051 9.33177
v 11.3839 503.051 9.29486
v 11.4163 503.051 9.26245
v 11.4163 499.649 9.26245
v 11.3839 499.649 9.29486
v 11.4139 499.596 9.28247
v 11.3686 499.649 9.33177
v 11.4039 499.596 9.2925
v 11.4139 499.583 9.2925
v 11.4163 499.556 9.33177
v 11.3839 499.6 9.33177
v 11.4163 499.556 9.76003
v 11.3839 499.6 9.76003
v 11.3686 499.649 9.76003
v 11.4039 499.596 9.7993
v 11.4139 499.583 9.7993
v 11.4139 499.596 9.80933
v 11.3839 499.649 9.79694
v 11.4163 499.649 9.82935
v -11.4532 499.535 9.33177
v -11.4163 499.556 9.33177
v -11.4163 499.556 9.76003
v -11.4532 499.535 9.76003
v -11.8814 499.535 9.33177
v -11.8814 499.535 9.76003
v -11.9183 499.556 9.76003
v -11.9183 499.556 9.33177
v -11.8814 503.165 9.33177
v -11.9183 503.144 9.33177
v -11.9183 503.144 9.76003
v -11.8814 503.165 9.76003
v -11.4532 503.165 9.76003
v -11.4532 503.165 9.33177
v -11.4163 503.144 9.33177
v -11.4163 503.144 9.76003
v -11.4139 503.117 9.7993
v -11.4163 503.144 9.76003
v -11.4532 503.165 9.76003
v -11.4532 503.144 9.79694
v -11.4139 503.104 9.80933
v -11.8814 503.165 9.76003
v -11.9183 503.144 9.76003
v -11.9207 503.117 9.7993
v -11.8814 503.144 9.79694
v -11.9207 503.104 9.80933
v -11.4532 503.1 9.82935
v -11.8814 503.1 9.82935
v -11.4532 503.051 9.84464
v -11.4163 503.051 9.82935
v -11.8814 503.051 9.84464
v -11.9183 503.051 9.82935
v -11.9183 499.649 9.82935
v -11.4532 499.649 9.84464
v -11.4163 499.649 9.82935
v -11.8814 499.649 9.84464
v -11.4139 499.596 9.80933
v -11.9207 499.596 9.80933
v -11.4532 499.6 9.82935
v -11.8814 499.6 9.82935
v -11.4532 499.556 9.79694
v -11.4139 499.583 9.7993
v -11.8814 499.556 9.79694
v -11.9207 499.583 9.7993
v -11.4532 499.535 9.76003
v -11.4163 499.556 9.76003
v -11.8814 499.535 9.76003
v -11.9183 499.556 9.76003
v -11.4163 499.556 9.33177
v -11.4532 499.535 9.33177
v -11.4139 499.583 9.2925
v -11.4532 499.556 9.29486
v -11.4139 499.596 9.28247
v -11.8814 499.535 9.33177
v -11.9183 499.556 9.33177
v -11.9207 499.583 9.2925
v -11.8814 499.556 9.29486
v -11.9207 499.596 9.28247
v -11.4532 499.6 9.26245
v -11.8814 499.6 9.26245
v -11.4532 499.649 9.24717
v -11.4163 499.649 9.26245
v -11.8814 499.649 9.24717
v -11.9183 499.649 9.26245
v -11.9183 503.051 9.26245
v -11.4532 503.051 9.24717
v -11.4163 503.051 9.26245
v -11.8814 503.051 9.24717
v -11.9207 503.104 9.28247
v -11.4139 503.104 9.28247
v -11.8814 503.1 9.26245
v -11.4532 503.1 9.26245
v -11.9207 503.117 9.2925
v -11.4532 503.144 9.29486
v -11.4139 503.117 9.2925
v -11.8814 503.144 9.29486
v -11.9183 503.144 9.33177
v -11.8814 503.165 9.33177
v -11.4532 503.165 9.33177
v -11.4163 503.144 9.33177
v -11.4139 503.104 9.28247
v -11.4139 503.117 9.2925
v -11.4039 503.104 9.2925
v -11.4163 503.051 9.26245
v -11.4163 503.144 9.33177
v -11.3839 503.051 9.29486
v -11.4163 499.649 9.26245
v -11.3839 503.1 9.33177
v -11.4163 503.144 9.76003
v -11.3686 503.051 9.33177
v -11.3839 503.1 9.76003
v -11.4039 503.104 9.7993
v -11.4139 503.117 9.7993
v -11.4139 503.104 9.80933
v -11.3686 503.051 9.76003
v -11.3839 503.051 9.79694
v -11.4163 503.051 9.82935
v -11.4163 499.649 9.82935
v -11.3839 499.649 9.79694
v -11.3686 499.649 9.33177
v -11.3686 499.649 9.76003
v -11.4039 499.596 9.7993
v -11.4139 499.596 9.80933
v -11.4139 499.583 9.7993
v -11.4163 499.556 9.76003
v -11.3839 499.6 9.76003
v -11.4163 499.556 9.33177
v -11.3839 499.6 9.33177
v -11.4039 499.596 9.2925
v -11.4139 499.583 9.2925
v -11.4139 499.596 9.28247
v -11.3839 499.649 9.29486
v -11.9307 503.104 9.7993
v -11.9207 503.104 9.80933
v -11.9207 503.117 9.7993
v -11.9183 503.144 9.76003
v -11.9183 503.051 9.82935
v -11.9507 503.1 9.76003
v -11.9183 503.144 9.33177
v -11.9507 503.051 9.79694
v -11.9507 503.1 9.33177
v -11.966 503.051 9.76003
v -11.9307 503.104 9.2925
v -11.9207 503.117 9.2925
v -11.9207 503.104 9.28247
v -11.966 503.051 9.33177
v -11.9507 503.051 9.29486
v -11.9183 503.051 9.26245
v -11.9183 499.649 9.26245
v -11.9507 499.649 9.29486
v -11.9207 499.596 9.28247
v -11.966 499.649 9.33177
v -11.9307 499.596 9.2925
v -11.9207 499.583 9.2925
v -11.9183 499.556 9.33177
v -11.9507 499.6 9.33177
v -11.9183 499.556 9.76003
v -11.9507 499.6 9.76003
v -11.966 499.649 9.76003
v -11.9307 499.596 9.7993
v -11.9207 499.583 9.7993
v -11.9207 499.596 9.80933
v -11.9507 499.649 9.79694
v -11.9183 499.649 9.82935
v -26.6624 501.787 9.90916
v -26.6478 501.806 9.4859
v -26.7826 501.769 9.90916
v -26.9059 501.767 9.4859
v -26.6478 501.806 -9.48591
v -27 501.732 9.4859
v -26.9059 501.732 9.88367
v -26.9058 501.767 -9.48591
v -26.6624 501.787 -9.90917
v -26.7826 501.769 -9.90917
v -27 501.732 -9.48591
v -26.9058 501.732 -9.88369
v -27 500.088 9.4859
v -26.9059 500.088 9.88367
v -26.7826 500.051 9.90916
v -27 500.088 -9.48591
v -26.9058 500.088 -9.88369
v -26.7826 500.051 -9.90917
v -26.9059 500.053 9.4859
v -26.6624 500.033 9.90916
v -26.9058 500.053 -9.48591
v -26.6478 500.014 9.4859
v -26.6478 500.014 -9.48591
v -26.6624 500.033 -9.90917
v -26.4205 500 9.4859
v -26.4205 500.014 9.88367
v -26.4205 500 -9.48591
v -26.4205 500.014 -9.88369
v -15.5795 500.014 -9.88368
v -15.5795 500 9.4859
v -15.5795 500.014 9.88368
v -15.3376 500.033 9.90916
v -15.3522 500.014 9.4859
v -15.5795 500 -9.48591
v -15.3376 500.033 -9.90917
v -15.3522 500.014 -9.48591
v -15.3522 500.014 -9.48591
v -15.3376 500.033 -9.90917
v -15.2174 500.051 -9.90917
v -15.0941 500.053 -9.48591
v -15.0941 500.053 9.4859
v -15.3522 500.014 9.4859
v -15.3376 500.033 9.90916
v -15.2174 500.051 9.90916
v -15 500.088 -9.48591
v -15.0941 500.088 -9.88368
v -15 500.088 9.4859
v -15.0941 500.088 9.88368
v -15.0942 501.732 9.88368
v -15 501.732 9.48592
v -15.2174 501.769 9.90917
v -15 501.732 -9.4859
v -15.0941 501.732 -9.88368
v -15.2174 501.769 -9.90916
v -15.0942 501.767 9.48592
v -15.0941 501.767 -9.4859
v -15.3522 501.806 9.48592
v -15.3376 501.787 9.90917
v -15.3522 501.806 -9.4859
v -15.3376 501.787 -9.90916
v -15.5795 501.82 9.48592
v -15.5795 501.806 9.88368
v -15.5795 501.82 -9.4859
v -15.5795 501.806 -9.88368
v -26.4205 501.806 -9.88369
v -26.4205 501.82 -9.48591
v -26.6624 501.787 -9.90917
v -26.6478 501.806 -9.48591
v -26.4205 501.82 9.4859
v -26.6478 501.806 9.4859
v -26.4205 501.806 9.88367
v -26.6624 501.787 9.90916
v -26.6624 501.787 9.90916
v -26.7826 501.769 9.90916
v -26.6624 501.769 10.1195
v -26.9059 501.732 9.88367
v -26.4205 501.806 9.88367
v -26.6478 501.732 10.3352
v -26.9059 500.088 9.88367
v -26.4205 501.767 10.3352
v -26.6478 500.088 10.3352
v -26.4205 501.732 10.5
v -26.6624 500.051 10.1195
v -26.7826 500.051 9.90916
v -26.6624 500.033 9.90916
v -26.4205 500.014 9.88367
v -26.4205 500.088 10.5
v -26.4205 500.053 10.3352
v -15.5795 500.014 9.88368
v -15.5795 500.053 10.3352
v -15.5795 500.088 10.5
v -15.3376 500.051 10.1195
v -15.3376 500.033 9.90916
v -15.2174 500.051 9.90916
v -15.3522 500.088 10.3352
v -15.0941 500.088 9.88368
v -15.0942 501.732 9.88368
v -15.3522 501.732 10.3352
v -15.5795 501.732 10.5
v -15.3376 501.769 10.1195
v -15.2174 501.769 9.90917
v -15.3376 501.787 9.90917
v -15.5795 501.806 9.88368
v -15.5795 501.767 10.3352
v -15.3376 500.051 -10.1195
v -15.2174 500.051 -9.90917
v -15.3376 500.033 -9.90917
v -15.5795 500.014 -9.88368
v -15.0941 500.088 -9.88368
v -15.5795 500.053 -10.3352
v -26.4205 500.014 -9.88369
v -15.3522 500.088 -10.3352
v -26.4205 500.053 -10.3352
v -15.5795 500.088 -10.5
v -15.3522 501.732 -10.3352
v -15.0941 501.732 -9.88368
v -15.2174 501.769 -9.90916
v -26.4205 500.088 -10.5
v -15.5795 501.732 -10.5
v -15.3376 501.769 -10.1195
v -15.3376 501.787 -9.90916
v -15.5795 501.806 -9.88368
v -15.5795 501.767 -10.3352
v -26.4205 501.806 -9.88369
v -26.4205 501.732 -10.5
v -26.4205 501.767 -10.3352
v -26.6624 501.769 -10.1195
v -26.6624 501.787 -9.90917
v -26.7826 501.769 -9.90917
v -26.6478 501.732 -10.3352
v -26.9058 501.732 -9.88369
v -26.6478 500.088 -10.3352
v -26.9058 500.088 -9.88369
v -26.7826 500.051 -9.90917
v -26.6624 500.051 -10.1195
v -26.6624 500.033 -9.90917
v 15.3376 501.787 9.90916
v 15.3522 501.806 9.4859
v 15.2174 501.769 9.90916
v 15.0941 501.767 9.4859
v 15.3522 501.806 -9.48591
v 15 501.732 9.4859
v 15.0941 501.732 9.88367
v 15.0942 501.767 -9.48591
v 15.3376 501.787 -9.90917
v 15.2174 501.769 -9.90917
v 15 501.732 -9.48591
v 15.0942 501.732 -9.88369
v 15 500.088 9.4859
v 15.0941 500.088 9.88367
v 15.2174 500.051 9.90916
v 15 500.088 -9.48591
v 15.0942 500.088 -9.88369
v 15.2174 500.051 -9.90917
v 15.0941 500.053 9.4859
v 15.3376 500.033 9.90916
v 15.0942 500.053 -9.48591
v 15.3522 500.014 9.4859
v 15.3522 500.014 -9.48591
v 15.3376 500.033 -9.90917
v 15.5795 500 9.4859
v 15.5795 500.014 9.88367
v 15.5795 500 -9.48591
v 15.5795 500.014 -9.88369
v 26.4205 500.014 -9.88368
v 26.4205 500 9.4859
v 26.4205 500.014 9.88368
v 26.6624 500.033 9.90916
v 26.6478 500.014 9.4859
v 26.4205 500 -9.48591
v 26.6624 500.033 -9.90917
v 26.6478 500.014 -9.48591
v 26.6478 500.014 -9.48591
v 26.6624 500.033 -9.90917
v 26.7826 500.051 -9.90917
v 26.9059 500.053 -9.48591
v 26.9059 500.053 9.4859
v 26.6478 500.014 9.4859
v 26.6624 500.033 9.90916
v 26.7826 500.051 9.90916
v 27 500.088 -9.48591
v 26.9059 500.088 -9.88368
v 27 500.088 9.4859
v 26.9059 500.088 9.88368
v 26.9058 501.732 9.88368
v 27 501.732 9.48592
v 26.7826 501.769 9.90917
v 27 501.732 -9.4859
v 26.9059 501.732 -9.88368
v 26.7826 501.769 -9.90916
v 26.9058 501.767 9.48592
v 26.9059 501.767 -9.4859
v 26.6478 501.806 9.48592
v 26.6624 501.787 9.90917
v 26.6478 501.806 -9.4859
v 26.6624 501.787 -9.90916
v 26.4205 501.82 9.48592
v 26.4205 501.806 9.88368
v 26.4205 501.82 -9.4859
v 26.4205 501.806 -9.88368
v 15.5795 501.806 -9.88369
v 15.5795 501.82 -9.48591
v 15.3376 501.787 -9.90917
v 15.3522 501.806 -9.48591
v 15.5795 501.82 9.4859
v 15.3522 501.806 9.4859
v 15.5795 501.806 9.88367
v 15.3376 501.787 9.90916
v 15.3376 501.787 9.90916
v 15.2174 501.769 9.90916
v 15.3376 501.769 10.1195
v 15.0941 501.732 9.88367
v 15.5795 501.806 9.88367
v 15.3522 501.732 10.3352
v 15.0941 500.088 9.88367
v 15.5795 501.767 10.3352
v 15.3522 500.088 10.3352
v 15.5795 501.732 10.5
v 15.3376 500.051 10.1195
v 15.2174 500.051 9.90916
v 15.3376 500.033 9.90916
v 15.5795 500.014 9.88367
v 15.5795 500.088 10.5
v 15.5795 500.053 10.3352
v 26.4205 500.014 9.88368
v 26.4205 500.053 10.3352
v 26.4205 500.088 10.5
v 26.6624 500.051 10.1195
v 26.6624 500.033 9.90916
v 26.7826 500.051 9.90916
v 26.6478 500.088 10.3352
v 26.9059 500.088 9.88368
v 26.9058 501.732 9.88368
v 26.6478 501.732 10.3352
v 26.4205 501.732 10.5
v 26.6624 501.769 10.1195
v 26.7826 501.769 9.90917
v 26.6624 501.787 9.90917
v 26.4205 501.806 9.88368
v 26.4205 501.767 10.3352
v 26.6624 500.051 -10.1195
v 26.7826 500.051 -9.90917
v 26.6624 500.033 -9.90917
v 26.4205 500.014 -9.88368
v 26.9059 500.088 -9.88368
v 26.4205 500.053 -10.3352
v 15.5795 500.014 -9.88369
v 26.6478 500.088 -10.3352
v 15.5795 500.053 -10.3352
v 26.4205 500.088 -10.5
v 26.6478 501.732 -10.3352
v 26.9059 501.732 -9.88368
v 26.7826 501.769 -9.90916
v 15.5795 500.088 -10.5
v 26.4205 501.732 -10.5
v 26.6624 501.769 -10.1195
v 26.6624 501.787 -9.90916
v 26.4205 501.806 -9.88368
v 26.4205 501.767 -10.3352
v 15.5795 501.806 -9.88369
v 15.5795 501.732 -10.5
v 15.5795 501.767 -10.3352
v 15.3376 501.769 -10.1195
v 15.3376 501.787 -9.90917
v 15.2174 501.769 -9.90917
v 15.3522 501.732 -10.3352
v 15.0942 501.732 -9.88369
v 15.3522 500.088 -10.3352
v 15.0942 500.088 -9.88369
v 15.2174 500.051 -9.90917
v 15.3376 500.051 -10.1195
v 15.3376 500.033 -9.90917
f 72 70 3
f 70 4 3
f 70 68 4
f 3 4 6
f 7 3 6
f 68 8 4
f 6 4 8
f 68 9 10
f 8 68 10
f 8 10 11
f 11 6 8
f 10 131 11
f 6 13 7
f 13 14 7
f 14 13 84
f 6 11 16
f 16 11 131
f 13 6 16
f 133 16 131
f 133 18 16
f 13 19 84
f 13 16 19
f 84 19 85
f 18 21 16
f 16 21 19
f 19 22 85
f 19 21 22
f 23 21 18
f 21 23 22
f 24 23 18
f 85 22 25
f 25 22 23
f 26 85 25
f 27 23 24
f 27 25 23
f 28 27 24
f 27 28 108
f 25 30 26
f 30 25 27
f 30 31 26
f 93 31 30
f 33 93 30
f 34 27 108
f 34 30 27
f 30 34 33
f 34 108 107
f 34 36 33
f 36 34 107
f 36 107 39
f 40 36 39
f 40 41 36
f 41 33 36
f 33 41 93
f 41 94 93
f 40 39 45
f 39 109 45
f 47 41 40
f 94 41 47
f 45 47 40
f 96 94 47
f 96 47 49
f 47 50 49
f 47 45 50
f 49 50 101
f 52 45 109
f 45 52 50
f 53 52 109
f 53 117 52
f 50 55 101
f 50 52 55
f 117 56 52
f 52 56 55
f 55 57 101
f 57 55 56
f 57 102 101
f 59 56 117
f 59 57 56
f 121 59 117
f 102 57 61
f 61 57 59
f 103 102 61
f 63 59 121
f 63 61 59
f 64 63 121
f 63 64 124
f 66 63 124
f 63 66 61
f 66 124 9
f 68 66 9
f 66 69 61
f 69 66 68
f 61 69 103
f 70 69 68
f 69 71 103
f 70 72 69
f 72 71 69
f 72 3 75
f 3 7 75
f 71 72 75
f 7 78 75
f 78 7 14
f 80 71 75
f 81 78 14
f 78 82 75
f 82 78 81
f 82 80 75
f 81 14 83
f 14 84 83
f 85 83 84
f 85 26 83
f 81 83 87
f 87 82 81
f 26 88 83
f 83 88 87
f 88 26 31
f 87 88 90
f 90 88 31
f 87 91 82
f 91 87 90
f 90 31 92
f 91 90 92
f 31 93 92
f 93 94 92
f 95 92 94
f 95 91 92
f 96 95 94
f 96 49 95
f 91 95 98
f 49 98 95
f 91 99 82
f 99 91 98
f 82 99 80
f 98 49 100
f 98 100 99
f 49 101 100
f 102 100 101
f 102 103 100
f 99 104 80
f 100 104 99
f 103 104 100
f 71 80 104
f 103 71 104
f 105 39 107
f 107 108 105
f 109 39 105
f 108 110 105
f 108 28 110
f 112 109 105
f 28 113 110
f 114 112 105
f 110 114 105
f 112 115 109
f 115 112 114
f 115 53 109
f 53 115 117
f 118 114 110
f 113 118 110
f 119 115 114
f 119 114 118
f 115 120 117
f 120 115 119
f 117 120 121
f 64 121 120
f 123 64 120
f 123 120 119
f 64 123 124
f 119 125 123
f 125 119 118
f 123 126 124
f 125 126 123
f 124 126 127
f 127 126 125
f 9 124 127
f 127 10 9
f 130 127 125
f 127 130 10
f 125 118 130
f 130 131 10
f 131 130 132
f 118 132 130
f 133 131 132
f 133 132 18
f 135 132 118
f 132 135 18
f 113 135 118
f 18 135 24
f 113 28 135
f 28 24 135
f 208 206 139
f 206 140 139
f 206 204 140
f 139 140 142
f 143 139 142
f 204 144 140
f 142 140 144
f 204 145 146
f 144 204 146
f 144 146 147
f 147 142 144
f 146 267 147
f 142 149 143
f 149 150 143
f 150 149 220
f 142 147 152
f 152 147 267
f 149 142 152
f 269 152 267
f 269 154 152
f 149 155 220
f 149 152 155
f 220 155 221
f 154 157 152
f 152 157 155
f 155 158 221
f 155 157 158
f 159 157 154
f 157 159 158
f 160 159 154
f 221 158 161
f 161 158 159
f 162 221 161
f 163 159 160
f 163 161 159
f 164 163 160
f 163 164 244
f 161 166 162
f 166 161 163
f 166 167 162
f 229 167 166
f 169 229 166
f 170 163 244
f 170 166 163
f 166 170 169
f 170 244 243
f 170 172 169
f 172 170 243
f 172 243 175
f 176 172 175
f 176 177 172
f 177 169 172
f 169 177 229
f 177 230 229
f 176 175 181
f 175 245 181
f 183 177 176
f 230 177 183
f 181 183 176
f 232 230 183
f 232 183 185
f 183 186 185
f 183 181 186
f 185 186 237
f 188 181 245
f 181 188 186
f 189 188 245
f 189 253 188
f 186 191 237
f 186 188 191
f 253 192 188
f 188 192 191
f 191 193 237
f 193 191 192
f 193 238 237
f 195 192 253
f 195 193 192
f 257 195 253
f 238 193 197
f 197 193 195
f 239 238 197
f 199 195 257
f 199 197 195
f 200 199 257
f 199 200 260
f 202 199 260
f 199 202 197
f 202 260 145
f 204 202 145
f 202 205 197
f 205 202 204
f 197 205 239
f 206 205 204
f 205 207 239
f 206 208 205
f 208 207 205
f 208 139 211
f 139 143 211
f 207 208 211
f 143 214 211
f 214 143 150
f 216 207 211
f 217 214 150
f 214 218 211
f 218 214 217
f 218 216 211
f 217 150 219
f 150 220 219
f 221 219 220
f 221 162 219
f 217 219 223
f 223 218 217
f 162 224 219
f 219 224 223
f 224 162 167
f 223 224 226
f 226 224 167
f 223 227 218
f 227 223 226
f 226 167 228
f 227 226 228
f 167 229 228
f 229 230 228
f 231 228 230
f 231 227 228
f 232 231 230
f 232 185 231
f 227 231 234
f 185 234 231
f 227 235 218
f 235 227 234
f 218 235 216
f 234 185 236
f 234 236 235
f 185 237 236
f 238 236 237
f 238 239 236
f 235 240 216
f 236 240 235
f 239 240 236
f 207 216 240
f 239 207 240
f 241 175 243
f 243 244 241
f 245 175 241
f 244 246 241
f 244 164 246
f 248 245 241
f 164 249 246
f 250 248 241
f 246 250 241
f 248 251 245
f 251 248 250
f 251 189 245
f 189 251 253
f 254 250 246
f 249 254 246
f 255 251 250
f 255 250 254
f 251 256 253
f 256 251 255
f 253 256 257
f 200 257 256
f 259 200 256
f 259 256 255
f 200 259 260
f 255 261 259
f 261 255 254
f 259 262 260
f 261 262 259
f 260 262 263
f 263 262 261
f 145 260 263
f 263 146 145
f 266 263 261
f 263 266 146
f 261 254 266
f 266 267 146
f 267 266 268
f 254 268 266
f 269 267 268
f 269 268 154
f 271 268 254
f 268 271 154
f 249 271 254
f 154 271 160
f 249 164 271
f 164 160 271
f 344 342 275
f 342 276 275
f 342 340 276
f 275 276 278
f 279 275 278
f 340 280 276
f 278 276 280
f 340 281 282
f 280 340 282
f 280 282 283
f 283 278 280
f 282 403 283
f 278 285 279
f 285 286 279
f 286 285 356
f 278 283 288
f 288 283 403
f 285 278 288
f 405 288 403
f 405 290 288
f 285 291 356
f 285 288 291
f 356 291 357
f 290 293 288
f 288 293 291
f 291 294 357
f 291 293 294
f 295 293 290
f 293 295 294
f 296 295 290
f 357 294 297
f 297 294 295
f 298 357 297
f 299 295 296
f 299 297 295
f 300 299 296
f 299 300 380
f 297 302 298
f 302 297 299
f 302 303 298
f 365 303 302
f 305 365 302
f 306 299 380
f 306 302 299
f 302 306 305
f 306 380 379
f 306 308 305
f 308 306 379
f 308 379 311
f 312 308 311
f 312 313 308
f 313 305 308
f 305 313 365
f 313 366 365
f 312 311 317
f 311 381 317
f 319 313 312
f 366 313 319
f 317 319 312
f 368 366 319
f 368 319 321
f 319 322 321
f 319 317 322
f 321 322 373
f 324 317 381
f 317 324 322
f 325 324 381
f 325 389 324
f 322 327 373
f 322 324 327
f 389 328 324
f 324 328 327
f 327 329 373
f 329 327 328
f 329 374 373
f 331 328 389
f 331 329 328
f 393 331 389
f 374 329 333
f 333 329 331
f 375 374 333
f 335 331 393
f 335 333 331
f 336 335 393
f 335 336 396
f 338 335 396
f 335 338 333
f 338 396 281
f 340 338 281
f 338 341 333
f 341 338 340
f 333 341 375
f 342 341 340
f 341 343 375
f 342 344 341
f 344 343 341
f 344 275 347
f 275 279 347
f 343 344 347
f 279 350 347
f 350 279 286
f 352 343 347
f 353 350 286
f 350 354 347
f 354 350 353
f 354 352 347
f 353 286 355
f 286 356 355
f 357 355 356
f 357 298 355
f 353 355 359
f 359 354 353
f 298 360 355
f 355 360 359
f 360 298 303
f 359 360 362
f 362 360 303
f 359 363 354
f 363 359 362
f 362 303 364
f 363 362 364
f 303 365 364
f 365 366 364
f 367 364 366
f 367 363 364
f 368 367 366
f 368 321 367
f 363 367 370
f 321 370 367
f 363 371 354
f 371 363 370
f 354 371 352
f 370 321 372
f 370 372 371
f 321 373 372
f 374 372 373
f 374 375 372
f 371 376 352
f 372 376 371
f 375 376 372
f 343 352 376
f 375 343 376
f 377 311 379
f 379 380 377
f 381 311 377
f 380 382 377
f 380 300 382
f 384 381 377
f 300 385 382
f 386 384 377
f 382 386 377
f 384 387 381
f 387 384 386
f 387 325 381
f 325 387 389
f 390 386 382
f 385 390 382
f 391 387 386
f 391 386 390
f 387 392 389
f 392 387 391
f 389 392 393
f 336 393 392
f 395 336 392
f 395 392 391
f 336 395 396
f 391 397 395
f 397 391 390
f 395 398 396
f 397 398 395
f 396 398 399
f 399 398 397
f 281 396 399
f 399 282 281
f 402 399 397
f 399 402 282
f 397 390 402
f 402 403 282
f 403 402 404
f 390 404 402
f 405 403 404
f 405 404 290
f 407 404 390
f 404 407 290
f 385 407 390
f 290 407 296
f 385 300 407
f 300 296 407
f 480 478 411
f 478 412 411
f 478 476 412
f 411 412 414
f 415 411 414
f 476 416 412
f 414 412 416
f 476 417 418
f 416 476 418
f 416 418 419
f 419 414 416
f 418 539 419
f 414 421 415
f 421 422 415
f 422 421 492
f 414 419 424
f 424 419 539
f 421 414 424
f 541 424 539
f 541 426 424
f 421 427 492
f 421 424 427
f 492 427 493
f 426 429 424
f 424 429 427
f 427 430 493
f 427 429 430
f 431 429 426
f 429 431 430
f 432 431 426
f 493 430 433
f 433 430 431
f 434 493 433
f 435 431 432
f 435 433 431
f 436 435 432
f 435 436 516
f 433 438 434
f 438 433 435
f 438 439 434
f 501 439 438
f 441 501 438
f 442 435 516
f 442 438 435
f 438 442 441
f 442 516 515
f 442 444 441
f 444 442 515
f 444 515 447
f 448 444 447
f 448 449 444
f 449 441 444
f 441 449 501
f 449 502 501
f 448 447 453
f 447 517 453
f 455 449 448
f 502 449 455
f 453 455 448
f 504 502 455
f 504 455 457
f 455 458 457
f 455 453 458
f 457 458 509
f 460 453 517
f 453 460 458
f 461 460 517
f 461 525 460
f 458 463 509
f 458 460 463
f 525 464 460
f 460 464 463
f 463 465 509
f 465 463 464
f 465 510 509
f 467 464 525
f 467 465 464
f 529 467 525
f 510 465 469
f 469 465 467
f 511 510 469
f 471 467 529
f 471 469 467
f 472 471 529
f 471 472 532
f 474 471 532
f 471 474 469
f 474 532 417
f 476 474 417
f 474 477 469
f 477 474 476
f 469 477 511
f 478 477 476
f 477 479 511
f 478 480 477
f 480 479 477
f 480 411 483
f 411 415 483
f 479 480 483
f 415 486 483
f 486 415 422
f 488 479 483
f 489 486 422
f 486 490 483
f 490 486 489
f 490 488 483
f 489 422 491
f 422 492 491
f 493 491 492
f 493 434 491
f 489 491 495
f 495 490 489
f 434 496 491
f 491 496 495
f 496 434 439
f 495 496 498
f 498 496 439
f 495 499 490
f 499 495 498
f 498 439 500
f 499 498 500
f 439 501 500
f 501 502 500
f 503 500 502
f 503 499 500
f 504 503 502
f 504 457 503
f 499 503 506
f 457 506 503
f 499 507 490
f 507 499 506
f 490 507 488
f 506 457 508
f 506 508 507
f 457 509 508
f 510 508 509
f 510 511 508
f 507 512 488
f 508 512 507
f 511 512 508
f 479 488 512
f 511 479 512
f 513 447 515
f 515 516 513
f 517 447 513
f 516 518 513
f 516 436 518
f 520 517 513
f 436 521 518
f 522 520 513
f 518 522 513
f 520 523 517
f 523 520 522
f 523 461 517
f 461 523 525
f 526 522 518
f 521 526 518
f 527 523 522
f 527 522 526
f 523 528 525
f 528 523 527
f 525 528 529
f 472 529 528
f 531 472 528
f 531 528 527
f 472 531 532
f 527 533 531
f 533 527 526
f 531 534 532
f 533 534 531
f 532 534 535
f 535 534 533
f 417 532 535
f 535 418 417
f 538 535 533
f 535 538 418
f 533 526 538
f 538 539 418
f 539 538 540
f 526 540 538
f 541 539 540
f 541 540 426
f 543 540 526
f 540 543 426
f 521 543 526
f 426 543 432
f 521 436 543
f 436 432 543
f 616 614 547
f 614 548 547
f 614 612 548
f 547 548 550
f 551 547 550
f 612 552 548
f 550 548 552
f 612 553 554
f 552 612 554
f 552 554 555
f 555 550 552
f 554 675 555
f 550 557 551
f 557 558 551
f 558 557 628
f 550 555 560
f 560 555 675
f 557 550 560
f 677 560 675
f 677 562 560
f 557 563 628
f 557 560 563
f 628 563 629
f 562 565 560
f 560 565 563
f 563 566 629
f 563 565 566
f 567 565 562
f 565 567 566
f 568 567 562
f 629 566 569
f 569 566 567
f 570 629 569
f 571 567 568
f 571 569 567
f 572 571 568
f 571 572 652
f 569 574 570
f 574 569 571
f 574 575 570
f 637 575 574
f 577 637 574
f 578 571 652
f 578 574 571
f 574 578 577
f 578 652 651
f 578 580 577
f 580 578 651
f 580 651 583
f 584 580 583
f 584 585 580
f 585 577 580
f 577 585 637
f 585 638 637
f 584 583 589
f 583 653 589
f 591 585 584
f 638 585 591
f 589 591 584
f 640 638 591
f 640 591 593
f 591 594 593
f 591 589 594
f 593 594 645
f 596 589 653
f 589 596 594
f 597 596 653
f 597 661 596
f 594 599 645
f 594 596 599
f 661 600 596
f 596 600 599
f 599 601 645
f 601 599 600
f 601 646 645
f 603 600 661
f 603 601 600
f 665 603 661
f 646 601 605
f 605 601 603
f 647 646 605
f 607 603 665
f 607 605 603
f 608 607 665
f 607 608 668
f 610 607 668
f 607 610 605
f 610 668 553
f 612 610 553
f 610 613 605
f 613 610 612
f 605 613 647
f 614 613 612
f 613 615 647
f 614 616 613
f 616 615 613
f 616 547 619
f 547 551 619
f 615 616 619
f 551 622 619
f 622 551 558
f 624 615 619
f 625 622 558
f 622 626 619
f 626 622 625
f 626 624 619
f 625 558 627
f 558 628 627
f 629 627 628
f 629 570 627
f 625 627 631
f 631 626 625
f 570 632 627
f 627 632 631
f 632 570 575
f 631 632 634
f 634 632 575
f 631 635 626
f 635 631 634
f 634 575 636
f 635 634 636
f 575 637 636
f 637 638 636
f 639 636 638
f 639 635 636
f 640 639 638
f 640 593 639
f 635 639 642
f 593 642 639
f 635 643 626
f 643 635 642
f 626 643 624
f 642 593 644
f 642 644 643
f 593 645 644
f 646 644 645
f 646 647 644
f 643 648 624
f 644 648 643
f 647 648 644
f 615 624 648
f 647 615 648
f 649 583 651
f 651 652 649
f 653 583 649
f 652 654 649
f 652 572 654
f 656 653 649
f 572 657 654
f 658 656 649
f 654 658 649
f 656 659 653
f 659 656 658
f 659 597 653
f 597 659 661
f 662 658 654
f 657 662 654
f 663 659 658
f 663 658 662
f 659 664 661
f 664 659 663
f 661 664 665
f 608 665 664
f 667 608 664
f 667 664 663
f 608 667 668
f 663 669 667
f 669 663 662
f 667 670 668
f 669 670 667
f 668 670 671
f 671 670 669
f 553 668 671
f 671 554 553
f 674 671 669
f 671 674 554
f 669 662 674
f 674 675 554
f 675 674 676
f 662 676 674
f 677 675 676
f 677 676 562
f 679 676 662
f 676 679 562
f 657 679 662
f 562 679 568
f 657 572 679
f 572 568 679
f 752 750 683
f 750 684 683
f 750 748 684
f 683 684 686
f 687 683 686
f 748 688 684
f 686 684 688
f 748 689 690
f 688 748 690
f 688 690 691
f 691 686 688
f 690 811 691
f 686 693 687
f 693 694 687
f 694 693 764
f 686 691 696
f 696 691 811
f 693 686 696
f 813 696 811
f 813 698 696
f 693 699 764
f 693 696 699
f 764 699 765
f 698 701 696
f 696 701 699
f 699 702 765
f 699 701 702
f 703 701 698
f 701 703 702
f 704 703 698
f 765 702 705
f 705 702 703
f 706 765 705
f 707 703 704
f 707 705 703
f 708 707 704
f 707 708 788
f 705 710 706
f 710 705 707
f 710 711 706
f 773 711 710
f 713 773 710
f 714 707 788
f 714 710 707
f 710 714 713
f 714 788 787
f 714 716 713
f 716 714 787
f 716 787 719
f 720 716 719
f 720 721 716
f 721 713 716
f 713 721 773
f 721 774 773
f 720 719 725
f 719 789 725
f 727 721 720
f 774 721 727
f 725 727 720
f 776 774 727
f 776 727 729
f 727 730 729
f 727 725 730
f 729 730 781
f 732 725 789
f 725 732 730
f 733 732 789
f 733 797 732
f 730 735 781
f 730 732 735
f 797 736 732
f 732 736 735
f 735 737 781
f 737 735 736
f 737 782 781
f 739 736 797
f 739 737 736
f 801 739 797
f 782 737 741
f 741 737 739
f 783 782 741
f 743 739 801
f 743 741 739
f 744 743 801
f 743 744 804
f 746 743 804
f 743 746 741
f 746 804 689
f 748 746 689
f 746 749 741
f 749 746 748
f 741 749 783
f 750 749 748
f 749 751 783
f 750 752 749
f 752 751 749
f 752 683 755
f 683 687 755
f 751 752 755
f 687 758 755
f 758 687 694
f 760 751 755
f 761 758 694
f 758 762 755
f 762 758 761
f 762 760 755
f 761 694 763
f 694 764 763
f 765 763 764
f 765 706 763
f 761 763 767
f 767 762 761
f 706 768 763
f 763 768 767
f 768 706 711
f 767 768 770
f 770 768 711
f 767 771 762
f 771 767 770
f 770 711 772
f 771 770 772
f 711 773 772
f 773 774 772
f 775 772 774
f 775 771 772
f 776 775 774
f 776 729 775
f 771 775 778
f 729 778 775
f 771 779 762
f 779 771 778
f 762 779 760
f 778 729 780
f 778 780 779
f 729 781 780
f 782 780 781
f 782 783 780
f 779 784 760
f 780 784 779
f 783 784 780
f 751 760 784
f 783 751 784
f 785 719 787
f 787 788 785
f 789 719 785
f 788 790 785
f 788 708 790
f 792 789 785
f 708 793 790
f 794 792 785
f 790 794 785
f 792 795 789
f 795 792 794
f 795 733 789
f 733 795 797
f 798 794 790
f 793 798 790
f 799 795 794
f 799 794 798
f 795 800 797
f 800 795 799
f 797 800 801
f 744 801 800
f 803 744 800
f 803 800 799
f 744 803 804
f 799 805 803
f 805 799 798
f 803 806 804
f 805 806 803
f 804 806 807
f 807 806 805
f 689 804 807
f 807 690 689
f 810 807 805
f 807 810 690
f 805 798 810
f 810 811 690
f 811 810 812
f 798 812 810
f 813 811 812
f 813 812 698
f 815 812 798
f 812 815 698
f 793 815 798
f 698 815 704
f 793 708 815
f 708 704 815
f 888 886 819
f 886 820 819
f 886 884 820
f 819 820 822
f 823 819 822
f 884 824 820
f 822 820 824
f 884 825 826
f 824 884 826
f 824 826 827
f 827 822 824
f 826 947 827
f 822 829 823
f 829 830 823
f 830 829 900
f 822 827 832
f 832 827 947
f 829 822 832
f 949 832 947
f 949 834 832
f 829 835 900
f 829 832 835
f 900 835 901
f 834 837 832
f 832 837 835
f 835 838 901
f 835 837 838
f 839 837 834
f 837 839 838
f 840 839 834
f 901 838 841
f 841 838 839
f 842 901 841
f 843 839 840
f 843 841 839
f 844 843 840
f 843 844 924
f 841 846 842
f 846 841 843
f 846 847 842
f 909 847 846
f 849 909 846
f 850 843 924
f 850 846 843
f 846 850 849
f 850 924 923
f 850 852 849
f 852 850 923
f 852 923 855
f 856 852 855
f 856 857 852
f 857 849 852
f 849 857 909
f 857 910 909
f 856 855 861
f 855 925 861
f 863 857 856
f 910 857 863
f 861 863 856
f 912 910 863
f 912 863 865
f 863 866 865
f 863 861 866
f 865 866 917
f 868 861 925
f 861 868 866
f 869 868 925
f 869 933 868
f 866 871 917
f 866 868 871
f 933 872 868
f 868 872 871
f 871 873 917
f 873 871 872
f 873 918 917
f 875 872 933
f 875 873 872
f 937 875 933
f 918 873 877
f 877 873 875
f 919 918 877
f 879 875 937
f 879 877 875
f 880 879 937
f 879 880 940
f 882 879 940
f 879 882 877
f 882 940 825
f 884 882 825
f 882 885 877
f 885 882 884
f 877 885 919
f 886 885 884
f 885 887 919
f 886 888 885
f 888 887 885
f 888 819 891
f 819 823 891
f 887 888 891
f 823 894 891
f 894 823 830
f 896 887 891
f 897 894 830
f 894 898 891
f 898 894 897
f 898 896 891
f 897 830 899
f 830 900 899
f 901 899 900
f 901 842 899
f 897 899 903
f 903 898 897
f 842 904 899
f 899 904 903
f 904 842 847
f 903 904 906
f 906 904 847
f 903 907 898
f 907 903 906
f 906 847 908
f 907 906 908
f 847 909 908
f 909 910 908
f 911 908 910
f 911 907 908
f 912 911 910
f 912 865 911
f 907 911 914
f 865 914 911
f 907 915 898
f 915 907 914
f 898 915 896
f 914 865 916
f 914 916 915
f 865 917 916
f 918 916 917
f 918 919 916
f 915 920 896
f 916 920 915
f 919 920 916
f 887 896 920
f 919 887 920
f 921 855 923
f 923 924 921
f 925 855 921
f 924 926 921
f 924 844 926
f 928 925 921
f 844 929 926
f 930 928 921
f 926 930 921
f 928 931 925
f 931 928 930
f 931 869 925
f 869 931 933
f 934 930 926
f 929 934 926
f 935 931 930
f 935 930 934
f 931 936 933
f 936 931 935
f 933 936 937
f 880 937 936
f 939 880 936
f 939 936 935
f 880 939 940
f 935 941 939
f 941 935 934
f 939 942 940
f 941 942 939
f 940 942 943
f 943 942 941
f 825 940 943
f 943 826 825
f 946 943 941
f 943 946 826
f 941 934 946
f 946 947 826
f 947 946 948
f 934 948 946
f 949 947 948
f 949 948 834
f 951 948 934
f 948 951 834
f 929 951 934
f 834 951 840
f 929 844 951
f 844 840 951
f 953 1001 1057
f 956 953 1057
f 1006 953 956
f 999 1006 956
f 1006 999 1089
f 1007 1006 1089
f 1030 1071 975
f 974 1030 975
f 974 971 1030
f 971 966 1030
f 966 971 1037
f 971 1041 1037
f 1045 1041 971
f 972 1045 971
f 1045 972 1046
f 971 974 972
f 974 975 1067
f 977 974 1067
f 974 977 972
f 977 1067 1066
f 972 979 1046
f 972 977 979
f 980 977 1066
f 977 980 979
f 979 981 1046
f 981 979 980
f 981 1049 1046
f 980 1066 983
f 983 981 980
f 1066 984 983
f 983 984 1096
f 981 986 1049
f 981 983 986
f 986 987 1049
f 988 983 1096
f 983 988 986
f 989 987 986
f 1096 990 988
f 991 989 986
f 986 988 991
f 990 992 988
f 988 992 991
f 991 993 989
f 993 991 992
f 993 994 989
f 995 992 990
f 995 993 992
f 996 995 990
f 993 956 994
f 993 995 956
f 956 1057 994
f 995 999 956
f 999 995 996
f 1089 999 996
f 1001 953 1062
f 953 1004 1062
f 1062 1004 1063
f 953 1006 1004
f 1006 1007 1086
f 1009 1006 1086
f 1006 1009 1004
f 1009 1086 1010
f 1004 1011 1063
f 1004 1009 1011
f 1012 1009 1010
f 1009 1012 1011
f 1063 1011 1013
f 1013 1011 1012
f 1039 1063 1013
f 1012 1010 1015
f 1015 1013 1012
f 1010 1016 1015
f 1015 1016 1080
f 1013 1018 1039
f 1018 1013 1015
f 1018 1019 1039
f 1020 1015 1080
f 1020 1018 1015
f 1020 1080 1077
f 1033 1019 1018
f 1023 1020 1077
f 1018 1020 1024
f 1024 1033 1018
f 1020 1023 1024
f 1023 1077 1025
f 1024 1026 1033
f 1026 1024 1023
f 1026 1027 1033
f 1028 1023 1025
f 1028 1026 1023
f 1025 1071 1030
f 1028 1025 1030
f 1030 966 1028
f 966 1026 1028
f 1027 1026 966
f 1037 1027 966
f 1033 1027 1035
f 1019 1033 1035
f 1027 1037 1035
f 1038 1019 1035
f 1019 1038 1039
f 1037 1040 1035
f 1037 1041 1040
f 1040 1042 1035
f 1042 1038 1035
f 1041 1043 1040
f 1042 1040 1043
f 1043 1041 1044
f 1041 1045 1044
f 1044 1045 1046
f 1047 1042 1043
f 1043 1044 1047
f 1048 1044 1046
f 1044 1048 1047
f 1049 1048 1046
f 1049 987 1048
f 1047 1048 1051
f 987 1051 1048
f 1042 1047 1052
f 1042 1052 1038
f 1053 1047 1051
f 1047 1053 1052
f 1051 987 1054
f 1051 1054 1053
f 987 989 1054
f 1054 989 994
f 994 1057 1054
f 1057 1058 1054
f 1054 1058 1053
f 1057 1001 1058
f 1053 1058 1060
f 1001 1060 1058
f 1052 1053 1060
f 1060 1001 1061
f 1060 1061 1052
f 1001 1062 1061
f 1063 1061 1062
f 1063 1039 1061
f 1061 1064 1052
f 1039 1064 1061
f 1052 1064 1038
f 1038 1064 1039
f 1065 1066 1067
f 1067 975 1065
f 984 1066 1065
f 975 1070 1065
f 975 1071 1070
f 1072 984 1065
f 1071 1073 1070
f 1065 1070 1074
f 1074 1070 1073
f 1072 1065 1074
f 1073 1071 1075
f 1071 1025 1075
f 1075 1025 1077
f 1073 1075 1078
f 1078 1074 1073
f 1079 1075 1077
f 1075 1079 1078
f 1080 1079 1077
f 1080 1016 1079
f 1016 1082 1079
f 1078 1079 1082
f 1082 1016 1010
f 1084 1078 1082
f 1074 1078 1084
f 1085 1082 1010
f 1082 1085 1084
f 1085 1010 1086
f 1086 1007 1085
f 1007 1088 1085
f 1085 1088 1084
f 1007 1089 1088
f 1084 1088 1090
f 1089 1090 1088
f 1091 1074 1084
f 1091 1084 1090
f 1074 1091 1072
f 1090 1089 1092
f 1091 1090 1092
f 1089 996 1092
f 996 990 1092
f 1091 1095 1072
f 1095 1091 1092
f 1095 1092 990
f 984 1072 1095
f 1096 1095 990
f 1096 984 1095
f 1097 1145 1201
f 1100 1097 1201
f 1150 1097 1100
f 1143 1150 1100
f 1150 1143 1233
f 1151 1150 1233
f 1174 1215 1119
f 1118 1174 1119
f 1118 1115 1174
f 1115 1110 1174
f 1110 1115 1181
f 1115 1185 1181
f 1189 1185 1115
f 1116 1189 1115
f 1189 1116 1190
f 1115 1118 1116
f 1118 1119 1211
f 1121 1118 1211
f 1118 1121 1116
f 1121 1211 1210
f 1116 1123 1190
f 1116 1121 1123
f 1124 1121 1210
f 1121 1124 1123
f 1123 1125 1190
f 1125 1123 1124
f 1125 1193 1190
f 1124 1210 1127
f 1127 1125 1124
f 1210 1128 1127
f 1127 1128 1240
f 1125 1130 1193
f 1125 1127 1130
f 1130 1131 1193
f 1132 1127 1240
f 1127 1132 1130
f 1133 1131 1130
f 1240 1134 1132
f 1135 1133 1130
f 1130 1132 1135
f 1134 1136 1132
f 1132 1136 1135
f 1135 1137 1133
f 1137 1135 1136
f 1137 1138 1133
f 1139 1136 1134
f 1139 1137 1136
f 1140 1139 1134
f 1137 1100 1138
f 1137 1139 1100
f 1100 1201 1138
f 1139 1143 1100
f 1143 1139 1140
f 1233 1143 1140
f 1145 1097 1206
f 1097 1148 1206
f 1206 1148 1207
f 1097 1150 1148
f 1150 1151 1230
f 1153 1150 1230
f 1150 1153 1148
f 1153 1230 1154
f 1148 1155 1207
f 1148 1153 1155
f 1156 1153 1154
f 1153 1156 1155
f 1207 1155 1157
f 1157 1155 1156
f 1183 1207 1157
f 1156 1154 1159
f 1159 1157 1156
f 1154 1160 1159
f 1159 1160 1224
f 1157 1162 1183
f 1162 1157 1159
f 1162 1163 1183
f 1164 1159 1224
f 1164 1162 1159
f 1164 1224 1221
f 1177 1163 1162
f 1167 1164 1221
f 1162 1164 1168
f 1168 1177 1162
f 1164 1167 1168
f 1167 1221 1169
f 1168 1170 1177
f 1170 1168 1167
f 1170 1171 1177
f 1172 1167 1169
f 1172 1170 1167
f 1169 1215 1174
f 1172 1169 1174
f 1174 1110 1172
f 1110 1170 1172
f 1171 1170 1110
f 1181 1171 1110
f 1177 1171 1179
f 1163 1177 1179
f 1171 1181 1179
f 1182 1163 1179
f 1163 1182 1183
f 1181 1184 1179
f 1181 1185 1184
f 1184 1186 1179
f 1186 1182 1179
f 1185 1187 1184
f 1186 1184 1187
f 1187 1185 1188
f 1185 1189 1188
f 1188 1189 1190
f 1191 1186 1187
f 1187 1188 1191
f 1192 1188 1190
f 1188 1192 1191
f 1193 1192 1190
f 1193 1131 1192
f 1191 1192 1195
f 1131 1195 1192
f 1186 1191 1196
f 1186 1196 1182
f 1197 1191 1195
f 1191 1197 1196
f 1195 1131 1198
f 1195 1198 1197
f 1131 1133 1198
f 1198 1133 1138
f 1138 1201 1198
f 1201 1202 1198
f 1198 1202 1197
f 1201 1145 1202
f 1197 1202 1204
f 1145 1204 1202
f 1196 1197 1204
f 1204 1145 1205
f 1204 1205 1196
f 1145 1206 1205
f 1207 1205 1206
f 1207 1183 1205
f 1205 1208 1196
f 1183 1208 1205
f 1196 1208 1182
f 1182 1208 1183
f 1209 1210 1211
f 1211 1119 1209
f 1128 1210 1209
f 1119 1214 1209
f 1119 1215 1214
f 1216 1128 1209
f 1215 1217 1214
f 1209 1214 1218
f 1218 1214 1217
f 1216 1209 1218
f 1217 1215 1219
f 1215 1169 1219
f 1219 1169 1221
f 1217 1219 1222
f 1222 1218 1217
f 1223 1219 1221
f 1219 1223 1222
f 1224 1223 1221
f 1224 1160 1223
f 1160 1226 1223
f 1222 1223 1226
f 1226 1160 1154
f 1228 1222 1226
f 1218 1222 1228
f 1229 1226 1154
f 1226 1229 1228
f 1229 1154 1230
f 1230 1151 1229
f 1151 1232 1229
f 1229 1232 1228
f 1151 1233 1232
f 1228 1232 1234
f 1233 1234 1232
f 1235 1218 1228
f 1235 1228 1234
f 1218 1235 1216
f 1234 1233 1236
f 1235 1234 1236
f 1233 1140 1236
f 1140 1134 1236
f 1235 1239 1216
f 1239 1235 1236
f 1239 1236 1134
f 1128 1216 1239
f 1240 1239 1134
f 1240 1128 1239
f 1241 1289 1345
f 1244 1241 1345
f 1294 1241 1244
f 1287 1294 1244
f 1294 1287 1377
f 1295 1294 1377
f 1318 1359 1263
f 1262 1318 1263
f 1262 1259 1318
f 1259 1254 1318
f 1254 1259 1325
f 1259 1329 1325
f 1333 1329 1259
f 1260 1333 1259
f 1333 1260 1334
f 1259 1262 1260
f 1262 1263 1355
f 1265 1262 1355
f 1262 1265 1260
f 1265 1355 1354
f 1260 1267 1334
f 1260 1265 1267
f 1268 1265 1354
f 1265 1268 1267
f 1267 1269 1334
f 1269 1267 1268
f 1269 1337 1334
f 1268 1354 1271
f 1271 1269 1268
f 1354 1272 1271
f 1271 1272 1384
f 1269 1274 1337
f 1269 1271 1274
f 1274 1275 1337
f 1276 1271 1384
f 1271 1276 1274
f 1277 1275 1274
f 1384 1278 1276
f 1279 1277 1274
f 1274 1276 1279
f 1278 1280 1276
f 1276 1280 1279
f 1279 1281 1277
f 1281 1279 1280
f 1281 1282 1277
f 1283 1280 1278
f 1283 1281 1280
f 1284 1283 1278
f 1281 1244 1282
f 1281 1283 1244
f 1244 1345 1282
f 1283 1287 1244
f 1287 1283 1284
f 1377 1287 1284
f 1289 1241 1350
f 1241 1292 1350
f 1350 1292 1351
f 1241 1294 1292
f 1294 1295 1374
f 1297 1294 1374
f 1294 1297 1292
f 1297 1374 1298
f 1292 1299 1351
f 1292 1297 1299
f 1300 1297 1298
f 1297 1300 1299
f 1351 1299 1301
f 1301 1299 1300
f 1327 1351 1301
f 1300 1298 1303
f 1303 1301 1300
f 1298 1304 1303
f 1303 1304 1368
f 1301 1306 1327
f 1306 1301 1303
f 1306 1307 1327
f 1308 1303 1368
f 1308 1306 1303
f 1308 1368 1365
f 1321 1307 1306
f 1311 1308 1365
f 1306 1308 1312
f 1312 1321 1306
f 1308 1311 1312
f 1311 1365 1313
f 1312 1314 1321
f 1314 1312 1311
f 1314 1315 1321
f 1316 1311 1313
f 1316 1314 1311
f 1313 1359 1318
f 1316 1313 1318
f 1318 1254 1316
f 1254 1314 1316
f 1315 1314 1254
f 1325 1315 1254
f 1321 1315 1323
f 1307 1321 1323
f 1315 1325 1323
f 1326 1307 1323
f 1307 1326 1327
f 1325 1328 1323
f 1325 1329 1328
f 1328 1330 1323
f 1330 1326 1323
f 1329 1331 1328
f 1330 1328 1331
f 1331 1329 1332
f 1329 1333 1332
f 1332 1333 1334
f 1335 1330 1331
f 1331 1332 1335
f 1336 1332 1334
f 1332 1336 1335
f 1337 1336 1334
f 1337 1275 1336
f 1335 1336 1339
f 1275 1339 1336
f 1330 1335 1340
f 1330 1340 1326
f 1341 1335 1339
f 1335 1341 1340
f 1339 1275 1342
f 1339 1342 1341
f 1275 1277 1342
f 1342 1277 1282
f 1282 1345 1342
f 1345 1346 1342
f 1342 1346 1341
f 1345 1289 1346
f 1341 1346 1348
f 1289 1348 1346
f 1340 1341 1348
f 1348 1289 1349
f 1348 1349 1340
f 1289 1350 1349
f 1351 1349 1350
f 1351 1327 1349
f 1349 1352 1340
f 1327 1352 1349
f 1340 1352 1326
f 1326 1352 1327
f 1353 1354 1355
f 1355 1263 1353
f 1272 1354 1353
f 1263 1358 1353
f 1263 1359 1358
f 1360 1272 1353
f 1359 1361 1358
f 1353 1358 1362
f 1362 1358 1361
f 1360 1353 1362
f 1361 1359 1363
f 1359 1313 1363
f 1363 1313 1365
f 1361 1363 1366
f 1366 1362 1361
f 1367 1363 1365
f 1363 1367 1366
f 1368 1367 1365
f 1368 1304 1367
f 1304 1370 1367
f 1366 1367 1370
f 1370 1304 1298
f 1372 1366 1370
f 1362 1366 1372
f 1373 1370 1298
f 1370 1373 1372
f 1373 1298 1374
f 1374 1295 1373
f 1295 1376 1373
f 1373 1376 1372
f 1295 1377 1376
f 1372 1376 1378
f 1377 1378 1376
f 1379 1362 1372
f 1379 1372 1378
f 1362 1379 1360
f 1378 1377 1380
f 1379 1378 1380
f 1377 1284 1380
f 1284 1278 1380
f 1379 1383 1360
f 1383 1379 1380
f 1383 1380 1278
f 1272 1360 1383
f 1384 1383 1278
f 1384 1272 1383
f 1385 1433 1489
f 1388 1385 1489
f 1438 1385 1388
f 1431 1438 1388
f 1438 1431 1521
f 1439 1438 1521
f 1462 1503 1407
f 1406 1462 1407
f 1406 1403 1462
f 1403 1398 1462
f 1398 1403 1469
f 1403 1473 1469
f 1477 1473 1403
f 1404 1477 1403
f 1477 1404 1478
f 1403 1406 1404
f 1406 1407 1499
f 1409 1406 1499
f 1406 1409 1404
f 1409 1499 1498
f 1404 1411 1478
f 1404 1409 1411
f 1412 1409 1498
f 1409 1412 1411
f 1411 1413 1478
f 1413 1411 1412
f 1413 1481 1478
f 1412 1498 1415
f 1415 1413 1412
f 1498 1416 1415
f 1415 1416 1528
f 1413 1418 1481
f 1413 1415 1418
f 1418 1419 1481
f 1420 1415 1528
f 1415 1420 1418
f 1421 1419 1418
f 1528 1422 1420
f 1423 1421 1418
f 1418 1420 1423
f 1422 1424 1420
f 1420 1424 1423
f 1423 1425 1421
f 1425 1423 1424
f 1425 1426 1421
f 1427 1424 1422
f 1427 1425 1424
f 1428 1427 1422
f 1425 1388 1426
f 1425 1427 1388
f 1388 1489 1426
f 1427 1431 1388
f 1431 1427 1428
f 1521 1431 1428
f 1433 1385 1494
f 1385 1436 1494
f 1494 1436 1495
f 1385 1438 1436
f 1438 1439 1518
f 1441 1438 1518
f 1438 1441 1436
f 1441 1518 1442
f 1436 1443 1495
f 1436 1441 1443
f 1444 1441 1442
f 1441 1444 1443
f 1495 1443 1445
f 1445 1443 1444
f 1471 1495 1445
f 1444 1442 1447
f 1447 1445 1444
f 1442 1448 1447
f 1447 1448 1512
f 1445 1450 1471
f 1450 1445 1447
f 1450 1451 1471
f 1452 1447 1512
f 1452 1450 1447
f 1452 1512 1509
f 1465 1451 1450
f 1455 1452 1509
f 1450 1452 1456
f 1456 1465 1450
f 1452 1455 1456
f 1455 1509 1457
f 1456 1458 1465
f 1458 1456 1455
f 1458 1459 1465
f 1460 1455 1457
f 1460 1458 1455
f 1457 1503 1462
f 1460 1457 1462
f 1462 1398 1460
f 1398 1458 1460
f 1459 1458 1398
f 1469 1459 1398
f 1465 1459 1467
f 1451 1465 1467
f 1459 1469 1467
f 1470 1451 1467
f 1451 1470 1471
f 1469 1472 1467
f 1469 1473 1472
f 1472 1474 1467
f 1474 1470 1467
f 1473 1475 1472
f 1474 1472 1475
f 1475 1473 1476
f 1473 1477 1476
f 1476 1477 1478
f 1479 1474 1475
f 1475 1476 1479
f 1480 1476 1478
f 1476 1480 1479
f 1481 1480 1478
f 1481 1419 1480
f 1479 1480 1483
f 1419 1483 1480
f 1474 1479 1484
f 1474 1484 1470
f 1485 1479 1483
f 1479 1485 1484
f 1483 1419 1486
f 1483 1486 1485
f 1419 1421 1486
f 1486 1421 1426
f 1426 1489 1486
f 1489 1490 1486
f 1486 1490 1485
f 1489 1433 1490
f 1485 1490 1492
f 1433 1492 1490
f 1484 1485 1492
f 1492 1433 1493
f 1492 1493 1484
f 1433 1494 1493
f 1495 1493 1494
f 1495 1471 1493
f 1493 1496 1484
f 1471 1496 1493
f 1484 1496 1470
f 1470 1496 1471
f 1497 1498 1499
f 1499 1407 1497
f 1416 1498 1497
f 1407 1502 1497
f 1407 1503 1502
f 1504 1416 1497
f 1503 1505 1502
f 1497 1502 1506
f 1506 1502 1505
f 1504 1497 1506
f 1505 1503 1507
f 1503 1457 1507
f 1507 1457 1509
f 1505 1507 1510
f 1510 1506 1505
f 1511 1507 1509
f 1507 1511 1510
f 1512 1511 1509
f 1512 1448 1511
f 1448 1514 1511
f 1510 1511 1514
f 1514 1448 1442
f 1516 1510 1514
f 1506 1510 1516
f 1517 1514 1442
f 1514 1517 1516
f 1517 1442 1518
f 1518 1439 1517
f 1439 1520 1517
f 1517 1520 1516
f 1439 1521 1520
f 1516 1520 1522
f 1521 1522 1520
f 1523 1506 1516
f 1523 1516 1522
f 1506 1523 1504
f 1522 1521 1524
f 1523 1522 1524
f 1521 1428 1524
f 1428 1422 1524
f 1523 1527 1504
f 1527 1523 1524
f 1527 1524 1422
f 1416 1504 1527
f 1528 1527 1422
f 1528 1416 1527
f 1600 1598 1531
f 1598 1532 1531
f 1598 1596 1532
f 1531 1532 1534
f 1535 1531 1534
f 1596 1536 1532
f 1534 1532 1536
f 1596 1537 1538
f 1536 1596 1538
f 1536 1538 1539
f 1539 1534 1536
f 1538 1659 1539
f 1534 1541 1535
f 1541 1542 1535
f 1542 1541 1612
f 1534 1539 1544
f 1544 1539 1659
f 1541 1534 1544
f 1661 1544 1659
f 1661 1546 1544
f 1541 1547 1612
f 1541 1544 1547
f 1612 1547 1613
f 1546 1549 1544
f 1544 1549 1547
f 1547 1550 1613
f 1547 1549 1550
f 1551 1549 1546
f 1549 1551 1550
f 1552 1551 1546
f 1613 1550 1553
f 1553 1550 1551
f 1554 1613 1553
f 1555 1551 1552
f 1555 1553 1551
f 1556 1555 1552
f 1555 1556 1636
f 1553 1558 1554
f 1558 1553 1555
f 1558 1559 1554
f 1621 1559 1558
f 1561 1621 1558
f 1562 1555 1636
f 1562 1558 1555
f 1558 1562 1561
f 1562 1636 1635
f 1562 1564 1561
f 1564 1562 1635
f 1564 1635 1567
f 1568 1564 1567
f 1568 1569 1564
f 1569 1561 1564
f 1561 1569 1621
f 1569 1622 1621
f 1568 1567 1573
f 1567 1637 1573
f 1575 1569 1568
f 1622 1569 1575
f 1573 1575 1568
f 1624 1622 1575
f 1624 1575 1577
f 1575 1578 1577
f 1575 1573 1578
f 1577 1578 1629
f 1580 1573 1637
f 1573 1580 1578
f 1581 1580 1637
f 1581 1645 1580
f 1578 1583 1629
f 1578 1580 1583
f 1645 1584 1580
f 1580 1584 1583
f 1583 1585 1629
f 1585 1583 1584
f 1585 1630 1629
f 1587 1584 1645
f 1587 1585 1584
f 1649 1587 1645
f 1630 1585 1589
f 1589 1585 1587
f 1631 1630 1589
f 1591 1587 1649
f 1591 1589 1587
f 1592 1591 1649
f 1591 1592 1652
f 1594 1591 1652
f 1591 1594 1589
f 1594 1652 1537
f 1596 1594 1537
f 1594 1597 1589
f 1597 1594 1596
f 1589 1597 1631
f 1598 1597 1596
f 1597 1599 1631
f 1598 1600 1597
f 1600 1599 1597
f 1600 1531 1603
f 1531 1535 1603
f 1599 1600 1603
f 1535 1606 1603
f 1606 1535 1542
f 1608 1599 1603
f 1609 1606 1542
f 1606 1610 1603
f 1610 1606 1609
f 1610 1608 1603
f 1609 1542 1611
f 1542 1612 1611
f 1613 1611 1612
f 1613 1554 1611
f 1609 1611 1615
f 1615 1610 1609
f 1554 1616 1611
f 1611 1616 1615
f 1616 1554 1559
f 1615 1616 1618
f 1618 1616 1559
f 1615 1619 1610
f 1619 1615 1618
f 1618 1559 1620
f 1619 1618 1620
f 1559 1621 1620
f 1621 1622 1620
f 1623 1620 1622
f 1623 1619 1620
f 1624 1623 1622
f 1624 1577 1623
f 1619 1623 1626
f 1577 1626 1623
f 1619 1627 1610
f 1627 1619 1626
f 1610 1627 1608
f 1626 1577 1628
f 1626 1628 1627
f 1577 1629 1628
f 1630 1628 1629
f 1630 1631 1628
f 1627 1632 1608
f 1628 1632 1627
f 1631 1632 1628
f 1599 1608 1632
f 1631 1599 1632
f 1633 1567 1635
f 1635 1636 1633
f 1637 1567 1633
f 1636 1638 1633
f 1636 1556 1638
f 1640 1637 1633
f 1556 1641 1638
f 1642 1640 1633
f 1638 1642 1633
f 1640 1643 1637
f 1643 1640 1642
f 1643 1581 1637
f 1581 1643 1645
f 1646 1642 1638
f 1641 1646 1638
f 1647 1643 1642
f 1647 1642 1646
f 1643 1648 1645
f 1648 1643 1647
f 1645 1648 1649
f 1592 1649 1648
f 1651 1592 1648
f 1651 1648 1647
f 1592 1651 1652
f 1647 1653 1651
f 1653 1647 1646
f 1651 1654 1652
f 1653 1654 1651
f 1652 1654 1655
f 1655 1654 1653
f 1537 1652 1655
f 1655 1538 1537
f 1658 1655 1653
f 1655 1658 1538
f 1653 1646 1658
f 1658 1659 1538
f 1659 1658 1660
f 1646 1660 1658
f 1661 1659 1660
f 1661 1660 1546
f 1663 1660 1646
f 1660 1663 1546
f 1641 1663 1646
f 1546 1663 1552
f 1641 1556 1663
f 1556 1552 1663
f 1736 1734 1667
f 1734 1668 1667
f 1734 1732 1668
f 1667 1668 1670
f 1671 1667 1670
f 1732 1672 1668
f 1670 1668 1672
f 1732 1673 1674
f 1672 1732 1674
f 1672 1674 1675
f 1675 1670 1672
f 1674 1795 1675
f 1670 1677 1671
f 1677 1678 1671
f 1678 1677 1748
f 1670 1675 1680
f 1680 1675 1795
f 1677 1670 1680
f 1797 1680 1795
f 1797 1682 1680
f 1677 1683 1748
f 1677 1680 1683
f 1748 1683 1749
f 1682 1685 1680
f 1680 1685 1683
f 1683 1686 1749
f 1683 1685 1686
f 1687 1685 1682
f 1685 1687 1686
f 1688 1687 1682
f 1749 1686 1689
f 1689 1686 1687
f 1690 1749 1689
f 1691 1687 1688
f 1691 1689 1687
f 1692 1691 1688
f 1691 1692 1772
f 1689 1694 1690
f 1694 1689 1691
f 1694 1695 1690
f 1757 1695 1694
f 1697 1757 1694
f 1698 1691 1772
f 1698 1694 1691
f 1694 1698 1697
f 1698 1772 1771
f 1698 1700 1697
f 1700 1698 1771
f 1700 1771 1703
f 1704 1700 1703
f 1704 1705 1700
f 1705 1697 1700
f 1697 1705 1757
f 1705 1758 1757
f 1704 1703 1709
f 1703 1773 1709
f 1711 1705 1704
f 1758 1705 1711
f 1709 1711 1704
f 1760 1758 1711
f 1760 1711 1713
f 1711 1714 1713
f 1711 1709 1714
f 1713 1714 1765
f 1716 1709 1773
f 1709 1716 1714
f 1717 1716 1773
f 1717 1781 1716
f 1714 1719 1765
f 1714 1716 1719
f 1781 1720 1716
f 1716 1720 1719
f 1719 1721 1765
f 1721 1719 1720
f 1721 1766 1765
f 1723 1720 1781
f 1723 1721 1720
f 1785 1723 1781
f 1766 1721 1725
f 1725 1721 1723
f 1767 1766 1725
f 1727 1723 1785
f 1727 1725 1723
f 1728 1727 1785
f 1727 1728 1788
f 1730 1727 1788
f 1727 1730 1725
f 1730 1788 1673
f 1732 1730 1673
f 1730 1733 1725
f 1733 1730 1732
f 1725 1733 1767
f 1734 1733 1732
f 1733 1735 1767
f 1734 1736 1733
f 1736 1735 1733
f 1736 1667 1739
f 1667 1671 1739
f 1735 1736 1739
f 1671 1742 1739
f 1742 1671 1678
f 1744 1735 1739
f 1745 1742 1678
f 1742 1746 1739
f 1746 1742 1745
f 1746 1744 1739
f 1745 1678 1747
f 1678 1748 1747
f 1749 1747 1748
f 1749 1690 1747
f 1745 1747 1751
f 1751 1746 1745
f 1690 1752 1747
f 1747 1752 1751
f 1752 1690 1695
f 1751 1752 1754
f 1754 1752 1695
f 1751 1755 1746
f 1755 1751 1754
f 1754 1695 1756
f 1755 1754 1756
f 1695 1757 1756
f 1757 1758 1756
f 1759 1756 1758
f 1759 1755 1756
f 1760 1759 1758
f 1760 1713 1759
f 1755 1759 1762
f 1713 1762 1759
f 1755 1763 1746
f 1763 1755 1762
f 1746 1763 1744
f 1762 1713 1764
f 1762 1764 1763
f 1713 1765 1764
f 1766 1764 1765
f 1766 1767 1764
f 1763 1768 1744
f 1764 1768 1763
f 1767 1768 1764
f 1735 1744 1768
f 1767 1735 1768
f 1769 1703 1771
f 1771 1772 1769
f 1773 1703 1769
f 1772 1774 1769
f 1772 1692 1774
f 1776 1773 1769
f 1692 1777 1774
f 1778 1776 1769
f 1774 1778 1769
f 1776 1779 1773
f 1779 1776 1778
f 1779 1717 1773
f 1717 1779 1781
f 1782 1778 1774
f 1777 1782 1774
f 1783 1779 1778
f 1783 1778 1782
f 1779 1784 1781
f 1784 1779 1783
f 1781 1784 1785
f 1728 1785 1784
f 1787 1728 1784
f 1787 1784 1783
f 1728 1787 1788
f 1783 1789 1787
f 1789 1783 1782
f 1787 1790 1788
f 1789 1790 1787
f 1788 1790 1791
f 1791 1790 1789
f 1673 1788 1791
f 1791 1674 1673
f 1794 1791 1789
f 1791 1794 1674
f 1789 1782 1794
f 1794 1795 1674
f 1795 1794 1796
f 1782 1796 1794
f 1797 1795 1796
f 1797 1796 1682
f 1799 1796 1782
f 1796 1799 1682
f 1777 1799 1782
f 1682 1799 1688
f 1777 1692 1799
f 1692 1688 1799
