v -18.8746 499.964 18.8746
v -18.8261 499.984 18.0684
v -19.2752 499.944 18.8746
v -19.6862 499.941 18.0684
v -18.826 499.984 -18.0684
v -20 499.903 18.0684
v -19.6862 499.903 18.826
v -19.6862 499.941 -18.0684
v -18.8746 499.964 -18.8746
v -19.2752 499.944 -18.8746
v -20 499.903 -18.0684
v -19.6862 499.903 -18.8261
v -20 498.097 18.0684
v -19.6862 498.097 18.826
v -19.2752 498.056 18.8746
v -20 498.097 -18.0684
v -19.6862 498.097 -18.8261
v -19.2752 498.056 -18.8746
v -19.6862 498.059 18.0684
v -18.8746 498.036 18.8746
v -19.6862 498.059 -18.0684
v -18.8261 498.016 18.0684
v -18.826 498.016 -18.0684
v -18.8746 498.036 -18.8746
v -18.0684 498 18.0684
v -18.0684 498.016 18.826
v -18.0684 498 -18.0684
v -18.0684 498.016 -18.8261
v 18.0684 498.016 -18.826
v 18.0684 498 18.0684
v 18.0684 498.016 18.826
v 18.8746 498.036 18.8746
v 18.8261 498.016 18.0684
v 18.0684 498 -18.0684
v 18.8746 498.036 -18.8746
v 18.8261 498.016 -18.0684
v 18.8261 498.016 -18.0684
v 18.8746 498.036 -18.8746
v 19.2752 498.056 -18.8746
v 19.6862 498.059 -18.0684
v 19.6862 498.059 18.0684
v 18.8261 498.016 18.0684
v 18.8746 498.036 18.8746
v 19.2752 498.056 18.8746
v 20 498.097 -18.0684
v 19.6862 498.097 -18.826
v 20 498.097 18.0684
v 19.6862 498.097 18.826
v 19.6862 499.903 18.826
v 20 499.903 18.0684
v 19.2752 499.944 18.8746
v 20 499.903 -18.0684
v 19.6862 499.903 -18.826
v 19.2753 499.944 -18.8746
v 19.6862 499.941 18.0684
v 19.6862 499.941 -18.0684
v 18.826 499.984 18.0684
v 18.8746 499.964 18.8746
v 18.8261 499.984 -18.0684
v 18.8746 499.964 -18.8746
v 18.0684 500 18.0684
v 18.0684 499.984 18.826
v 18.0684 500 -18.0684
v 18.0684 499.984 -18.826
v -18.0684 499.984 -18.8261
v -18.0684 500 -18.0684
v -18.8746 499.964 -18.8746
v -18.826 499.984 -18.0684
v -18.0684 500 18.0684
v -18.8261 499.984 18.0684
v -18.0684 499.984 18.826
v -18.8746 499.964 18.8746
v -18.8746 499.964 18.8746
v -19.2752 499.944 18.8746
v -18.8746 499.944 19.2752
v -19.6862 499.903 18.826
v -18.0684 499.984 18.826
v -18.8261 499.903 19.6861
v -19.6862 498.097 18.826
v -18.0684 499.941 19.6861
v -18.8261 498.097 19.6861
v -18.0684 499.903 20
v -18.8746 498.056 19.2752
v -19.2752 498.056 18.8746
v -18.8746 498.036 18.8746
v -18.0684 498.016 18.826
v -18.0684 498.097 20
v -18.0684 498.059 19.6861
v 18.0684 498.016 18.826
v 18.0684 498.059 19.6862
v 18.0684 498.097 20
v 18.8746 498.056 19.2752
v 18.8746 498.036 18.8746
v 19.2752 498.056 18.8746
v 18.8261 498.097 19.6862
v 19.6862 498.097 18.826
v 19.6862 499.903 18.826
v 18.826 499.903 19.6862
v 18.0684 499.903 20
v 18.8746 499.944 19.2752
v 19.2752 499.944 18.8746
v 18.8746 499.964 18.8746
v 18.0684 499.984 18.826
v 18.0684 499.941 19.6862
v 18.8746 498.056 -19.2752
v 19.2752 498.056 -18.8746
v 18.8746 498.036 -18.8746
v 18.0684 498.016 -18.826
v 19.6862 498.097 -18.826
v 18.0684 498.059 -19.6862
v -18.0684 498.016 -18.8261
v 18.8261 498.097 -19.6862
v -18.0684 498.059 -19.6862
v 18.0684 498.097 -20
v 18.8261 499.903 -19.6862
v 19.6862 499.903 -18.826
v 19.2753 499.944 -18.8746
v -18.0684 498.097 -20
v 18.0684 499.903 -20
v 18.8746 499.944 -19.2752
v 18.8746 499.964 -18.8746
v 18.0684 499.984 -18.826
v 18.0684 499.941 -19.6862
v -18.0684 499.984 -18.8261
v -18.0684 499.903 -20
v -18.0684 499.941 -19.6862
v -18.8746 499.944 -19.2752
v -18.8746 499.964 -18.8746
v -19.2752 499.944 -18.8746
v -18.826 499.903 -19.6862
v -19.6862 499.903 -18.8261
v -18.826 498.097 -19.6862
v -19.6862 498.097 -18.8261
v -19.2752 498.056 -18.8746
v -18.8746 498.056 -19.2752
v -18.8746 498.036 -18.8746
v -18.8746 504.534 20.4719
v -18.8261 504.581 20.4517
v -19.2752 504.488 20.4719
v -19.6862 504.482 20.4517
v -18.826 504.581 19.5483
v -20 504.395 20.4517
v -19.6862 504.395 20.4707
v -19.6862 504.482 19.5483
v -18.8746 504.534 19.5281
v -19.2752 504.488 19.5281
v -20 504.395 19.5483
v -19.6862 504.395 19.5293
v -20 500.223 20.4517
v -19.6862 500.223 20.4707
v -19.2752 500.13 20.4719
v -20 500.223 19.5483
v -19.6862 500.223 19.5293
v -19.2752 500.13 19.5281
v -19.6862 500.136 20.4517
v -18.8746 500.084 20.4719
v -19.6862 500.136 19.5483
v -18.8261 500.036 20.4517
v -18.826 500.036 19.5483
v -18.8746 500.084 19.5281
v -18.0684 500 20.4517
v -18.0684 500.036 20.4707
v -18.0684 500 19.5483
v -18.0684 500.036 19.5293
v 18.0684 500.036 19.5293
v 18.0684 500 20.4517
v 18.0684 500.036 20.4707
v 18.8746 500.084 20.4719
v 18.8261 500.036 20.4517
v 18.0684 500 19.5483
v 18.8746 500.084 19.5281
v 18.8261 500.036 19.5483
v 18.8261 500.036 19.5483
v 18.8746 500.084 19.5281
v 19.2752 500.13 19.5281
v 19.6862 500.136 19.5483
v 19.6862 500.136 20.4517
v 18.8261 500.036 20.4517
v 18.8746 500.084 20.4719
v 19.2752 500.13 20.4719
v 20 500.223 19.5483
v 19.6862 500.223 19.5293
v 20 500.223 20.4517
v 19.6862 500.223 20.4707
v 19.6862 504.395 20.4707
v 20 504.395 20.4517
v 19.2752 504.488 20.4719
v 20 504.395 19.5483
v 19.6862 504.395 19.5293
v 19.2753 504.488 19.5281
v 19.6862 504.482 20.4517
v 19.6862 504.482 19.5483
v 18.826 504.581 20.4517
v 18.8746 504.534 20.4719
v 18.8261 504.581 19.5483
v 18.8746 504.534 19.5281
v 18.0684 504.618 20.4517
v 18.0684 504.581 20.4707
v 18.0684 504.618 19.5483
v 18.0684 504.581 19.5293
v -18.0684 504.581 19.5293
v -18.0684 504.618 19.5483
v -18.8746 504.534 19.5281
v -18.826 504.581 19.5483
v -18.0684 504.618 20.4517
v -18.8261 504.581 20.4517
v -18.0684 504.581 20.4707
v -18.8746 504.534 20.4719
v -18.8746 504.534 20.4719
v -19.2752 504.488 20.4719
v -18.8746 504.488 20.4819
v -19.6862 504.395 20.4707
v -18.0684 504.581 20.4707
v -18.8261 504.395 20.4922
v -19.6862 500.223 20.4707
v -18.0684 504.482 20.4922
v -18.8261 500.223 20.4922
v -18.0684 504.395 20.5
v -18.8746 500.13 20.4819
v -19.2752 500.13 20.4719
v -18.8746 500.084 20.4719
v -18.0684 500.036 20.4707
v -18.0684 500.223 20.5
v -18.0684 500.136 20.4922
v 18.0684 500.036 20.4707
v 18.0684 500.136 20.4922
v 18.0684 500.223 20.5
v 18.8746 500.13 20.4819
v 18.8746 500.084 20.4719
v 19.2752 500.13 20.4719
v 18.8261 500.223 20.4922
v 19.6862 500.223 20.4707
v 19.6862 504.395 20.4707
v 18.826 504.395 20.4922
v 18.0684 504.395 20.5
v 18.8746 504.488 20.4819
v 19.2752 504.488 20.4719
v 18.8746 504.534 20.4719
v 18.0684 504.581 20.4707
v 18.0684 504.482 20.4922
v 18.8746 500.13 19.5181
v 19.2752 500.13 19.5281
v 18.8746 500.084 19.5281
v 18.0684 500.036 19.5293
v 19.6862 500.223 19.5293
v 18.0684 500.136 19.5078
v -18.0684 500.036 19.5293
v 18.8261 500.223 19.5078
v -18.0684 500.136 19.5078
v 18.0684 500.223 19.5
v 18.8261 504.395 19.5078
v 19.6862 504.395 19.5293
v 19.2753 504.488 19.5281
v -18.0684 500.223 19.5
v 18.0684 504.395 19.5
v 18.8746 504.488 19.5181
v 18.8746 504.534 19.5281
v 18.0684 504.581 19.5293
v 18.0684 504.482 19.5078
v -18.0684 504.581 19.5293
v -18.0684 504.395 19.5
v -18.0684 504.482 19.5078
v -18.8746 504.488 19.5181
v -18.8746 504.534 19.5281
v -19.2752 504.488 19.5281
v -18.826 504.395 19.5078
v -19.6862 504.395 19.5293
v -18.826 500.223 19.5078
v -19.6862 500.223 19.5293
v -19.2752 500.13 19.5281
v -18.8746 500.13 19.5181
v -18.8746 500.084 19.5281
v -18.8746 504.534 -19.5281
v -18.8261 504.581 -19.5483
v -19.2752 504.488 -19.5281
v -19.6862 504.482 -19.5483
v -18.826 504.581 -20.4517
v -20 504.395 -19.5483
v -19.6862 504.395 -19.5293
v -19.6862 504.482 -20.4517
v -18.8746 504.534 -20.4719
v -19.2752 504.488 -20.4719
v -20 504.395 -20.4517
v -19.6862 504.395 -20.4707
v -20 500.223 -19.5483
v -19.6862 500.223 -19.5293
v -19.2752 500.13 -19.5281
v -20 500.223 -20.4517
v -19.6862 500.223 -20.4707
v -19.2752 500.13 -20.4719
v -19.6862 500.136 -19.5483
v -18.8746 500.084 -19.5281
v -19.6862 500.136 -20.4517
v -18.8261 500.036 -19.5483
v -18.826 500.036 -20.4517
v -18.8746 500.084 -20.4719
v -18.0684 500 -19.5483
v -18.0684 500.036 -19.5293
v -18.0684 500 -20.4517
v -18.0684 500.036 -20.4707
v 18.0684 500.036 -20.4707
v 18.0684 500 -19.5483
v 18.0684 500.036 -19.5293
v 18.8746 500.084 -19.5281
v 18.8261 500.036 -19.5483
v 18.0684 500 -20.4517
v 18.8746 500.084 -20.4719
v 18.8261 500.036 -20.4517
v 18.8261 500.036 -20.4517
v 18.8746 500.084 -20.4719
v 19.2752 500.13 -20.4719
v 19.6862 500.136 -20.4517
v 19.6862 500.136 -19.5483
v 18.8261 500.036 -19.5483
v 18.8746 500.084 -19.5281
v 19.2752 500.13 -19.5281
v 20 500.223 -20.4517
v 19.6862 500.223 -20.4707
v 20 500.223 -19.5483
v 19.6862 500.223 -19.5293
v 19.6862 504.395 -19.5293
v 20 504.395 -19.5483
v 19.2752 504.488 -19.5281
v 20 504.395 -20.4517
v 19.6862 504.395 -20.4707
v 19.2753 504.488 -20.4719
v 19.6862 504.482 -19.5483
v 19.6862 504.482 -20.4517
v 18.826 504.581 -19.5483
v 18.8746 504.534 -19.5281
v 18.8261 504.581 -20.4517
v 18.8746 504.534 -20.4719
v 18.0684 504.618 -19.5483
v 18.0684 504.581 -19.5293
v 18.0684 504.618 -20.4517
v 18.0684 504.581 -20.4707
v -18.0684 504.581 -20.4707
v -18.0684 504.618 -20.4517
v -18.8746 504.534 -20.4719
v -18.826 504.581 -20.4517
v -18.0684 504.618 -19.5483
v -18.8261 504.581 -19.5483
v -18.0684 504.581 -19.5293
v -18.8746 504.534 -19.5281
v -18.8746 504.534 -19.5281
v -19.2752 504.488 -19.5281
v -18.8746 504.488 -19.5181
v -19.6862 504.395 -19.5293
v -18.0684 504.581 -19.5293
v -18.8261 504.395 -19.5078
v -19.6862 500.223 -19.5293
v -18.0684 504.482 -19.5078
v -18.8261 500.223 -19.5078
v -18.0684 504.395 -19.5
v -18.8746 500.13 -19.5181
v -19.2752 500.13 -19.5281
v -18.8746 500.084 -19.5281
v -18.0684 500.036 -19.5293
v -18.0684 500.223 -19.5
v -18.0684 500.136 -19.5078
v 18.0684 500.036 -19.5293
v 18.0684 500.136 -19.5078
v 18.0684 500.223 -19.5
v 18.8746 500.13 -19.5181
v 18.8746 500.084 -19.5281
v 19.2752 500.13 -19.5281
v 18.8261 500.223 -19.5078
v 19.6862 500.223 -19.5293
v 19.6862 504.395 -19.5293
v 18.826 504.395 -19.5078
v 18.0684 504.395 -19.5
v 18.8746 504.488 -19.5181
v 19.2752 504.488 -19.5281
v 18.8746 504.534 -19.5281
v 18.0684 504.581 -19.5293
v 18.0684 504.482 -19.5078
v 18.8746 500.13 -20.4819
v 19.2752 500.13 -20.4719
v 18.8746 500.084 -20.4719
v 18.0684 500.036 -20.4707
v 19.6862 500.223 -20.4707
v 18.0684 500.136 -20.4922
v -18.0684 500.036 -20.4707
v 18.8261 500.223 -20.4922
v -18.0684 500.136 -20.4922
v 18.0684 500.223 -20.5
v 18.8261 504.395 -20.4922
v 19.6862 504.395 -20.4707
v 19.2753 504.488 -20.4719
v -18.0684 500.223 -20.5
v 18.0684 504.395 -20.5
v 18.8746 504.488 -20.4819
v 18.8746 504.534 -20.4719
v 18.0684 504.581 -20.4707
v 18.0684 504.482 -20.4922
v -18.0684 504.581 -20.4707
v -18.0684 504.395 -20.5
v -18.0684 504.482 -20.4922
v -18.8746 504.488 -20.4819
v -18.8746 504.534 -20.4719
v -19.2752 504.488 -20.4719
v -18.826 504.395 -20.4922
v -19.6862 504.395 -20.4707
v -18.826 500.223 -20.4922
v -19.6862 500.223 -20.4707
v -19.2752 500.13 -20.4719
v -18.8746 500.13 -20.4819
v -18.8746 500.084 -20.4719
v 19.5281 504.534 18.8746
v 19.5293 504.581 18.0684
v 19.5181 504.488 18.8746
v 19.5078 504.482 18.0684
v 19.5293 504.581 -18.0684
v 19.5 504.395 18.0684
v 19.5078 504.395 18.826
v 19.5078 504.482 -18.0684
v 19.5281 504.534 -18.8746
v 19.5181 504.488 -18.8746
v 19.5 504.395 -18.0684
v 19.5078 504.395 -18.8261
v 19.5 500.223 18.0684
v 19.5078 500.223 18.826
v 19.5181 500.13 18.8746
v 19.5 500.223 -18.0684
v 19.5078 500.223 -18.8261
v 19.5181 500.13 -18.8746
v 19.5078 500.136 18.0684
v 19.5281 500.084 18.8746
v 19.5078 500.136 -18.0684
v 19.5293 500.036 18.0684
v 19.5293 500.036 -18.0684
v 19.5281 500.084 -18.8746
v 19.5483 500 18.0684
v 19.5483 500.036 18.826
v 19.5483 500 -18.0684
v 19.5483 500.036 -18.8261
v 20.4517 500.036 -18.826
v 20.4517 500 18.0684
v 20.4517 500.036 18.826
v 20.4719 500.084 18.8746
v 20.4707 500.036 18.0684
v 20.4517 500 -18.0684
v 20.4719 500.084 -18.8746
v 20.4707 500.036 -18.0684
v 20.4707 500.036 -18.0684
v 20.4719 500.084 -18.8746
v 20.4819 500.13 -18.8746
v 20.4922 500.136 -18.0684
v 20.4922 500.136 18.0684
v 20.4707 500.036 18.0684
v 20.4719 500.084 18.8746
v 20.4819 500.13 18.8746
v 20.5 500.223 -18.0684
v 20.4922 500.223 -18.826
v 20.5 500.223 18.0684
v 20.4922 500.223 18.826
v 20.4922 504.395 18.826
v 20.5 504.395 18.0684
v 20.4819 504.488 18.8746
v 20.5 504.395 -18.0684
v 20.4922 504.395 -18.826
v 20.4819 504.488 -18.8746
v 20.4922 504.482 18.0684
v 20.4922 504.482 -18.0684
v 20.4707 504.581 18.0684
v 20.4719 504.534 18.8746
v 20.4707 504.581 -18.0684
v 20.4719 504.534 -18.8746
v 20.4517 504.618 18.0684
v 20.4517 504.581 18.826
v 20.4517 504.618 -18.0684
v 20.4517 504.581 -18.826
v 19.5483 504.581 -18.8261
v 19.5483 504.618 -18.0684
v 19.5281 504.534 -18.8746
v 19.5293 504.581 -18.0684
v 19.5483 504.618 18.0684
v 19.5293 504.581 18.0684
v 19.5483 504.581 18.826
v 19.5281 504.534 18.8746
v 19.5281 504.534 18.8746
v 19.5181 504.488 18.8746
v 19.5281 504.488 19.2752
v 19.5078 504.395 18.826
v 19.5483 504.581 18.826
v 19.5293 504.395 19.6861
v 19.5078 500.223 18.826
v 19.5483 504.482 19.6861
v 19.5293 500.223 19.6861
v 19.5483 504.395 20
v 19.5281 500.13 19.2752
v 19.5181 500.13 18.8746
v 19.5281 500.084 18.8746
v 19.5483 500.036 18.826
v 19.5483 500.223 20
v 19.5483 500.136 19.6861
v 20.4517 500.036 18.826
v 20.4517 500.136 19.6862
v 20.4517 500.223 20
v 20.4719 500.13 19.2752
v 20.4719 500.084 18.8746
v 20.4819 500.13 18.8746
v 20.4707 500.223 19.6862
v 20.4922 500.223 18.826
v 20.4922 504.395 18.826
v 20.4707 504.395 19.6862
v 20.4517 504.395 20
v 20.4719 504.488 19.2752
v 20.4819 504.488 18.8746
v 20.4719 504.534 18.8746
v 20.4517 504.581 18.826
v 20.4517 504.482 19.6862
v 20.4719 500.13 -19.2752
v 20.4819 500.13 -18.8746
v 20.4719 500.084 -18.8746
v 20.4517 500.036 -18.826
v 20.4922 500.223 -18.826
v 20.4517 500.136 -19.6862
v 19.5483 500.036 -18.8261
v 20.4707 500.223 -19.6862
v 19.5483 500.136 -19.6862
v 20.4517 500.223 -20
v 20.4707 504.395 -19.6862
v 20.4922 504.395 -18.826
v 20.4819 504.488 -18.8746
v 19.5483 500.223 -20
v 20.4517 504.395 -20
v 20.4719 504.488 -19.2752
v 20.4719 504.534 -18.8746
v 20.4517 504.581 -18.826
v 20.4517 504.482 -19.6862
v 19.5483 504.581 -18.8261
v 19.5483 504.395 -20
v 19.5483 504.482 -19.6862
v 19.5281 504.488 -19.2752
v 19.5281 504.534 -18.8746
v 19.5181 504.488 -18.8746
v 19.5293 504.395 -19.6862
v 19.5078 504.395 -18.8261
v 19.5293 500.223 -19.6862
v 19.5078 500.223 -18.8261
v 19.5181 500.13 -18.8746
v 19.5281 500.13 -19.2752
v 19.5281 500.084 -18.8746
v -20.4719 504.534 18.8746
v -20.4707 504.581 18.0684
v -20.4819 504.488 18.8746
v -20.4922 504.482 18.0684
v -20.4707 504.581 -18.0684
v -20.5 504.395 18.0684
v -20.4922 504.395 18.826
v -20.4922 504.482 -18.0684
v -20.4719 504.534 -18.8746
v -20.4819 504.488 -18.8746
v -20.5 504.395 -18.0684
v -20.4922 504.395 -18.8261
v -20.5 500.223 18.0684
v -20.4922 500.223 18.826
v -20.4819 500.13 18.8746
v -20.5 500.223 -18.0684
v -20.4922 500.223 -18.8261
v -20.4819 500.13 -18.8746
v -20.4922 500.136 18.0684
v -20.4719 500.084 18.8746
v -20.4922 500.136 -18.0684
v -20.4707 500.036 18.0684
v -20.4707 500.036 -18.0684
v -20.4719 500.084 -18.8746
v -20.4517 500 18.0684
v -20.4517 500.036 18.826
v -20.4517 500 -18.0684
v -20.4517 500.036 -18.8261
v -19.5483 500.036 -18.826
v -19.5483 500 18.0684
v -19.5483 500.036 18.826
v -19.5281 500.084 18.8746
v -19.5293 500.036 18.0684
v -19.5483 500 -18.0684
v -19.5281 500.084 -18.8746
v -19.5293 500.036 -18.0684
v -19.5293 500.036 -18.0684
v -19.5281 500.084 -18.8746
v -19.5181 500.13 -18.8746
v -19.5078 500.136 -18.0684
v -19.5078 500.136 18.0684
v -19.5293 500.036 18.0684
v -19.5281 500.084 18.8746
v -19.5181 500.13 18.8746
v -19.5 500.223 -18.0684
v -19.5078 500.223 -18.826
v -19.5 500.223 18.0684
v -19.5078 500.223 18.826
v -19.5078 504.395 18.826
v -19.5 504.395 18.0684
v -19.5181 504.488 18.8746
v -19.5 504.395 -18.0684
v -19.5078 504.395 -18.826
v -19.5181 504.488 -18.8746
v -19.5078 504.482 18.0684
v -19.5078 504.482 -18.0684
v -19.5293 504.581 18.0684
v -19.5281 504.534 18.8746
v -19.5293 504.581 -18.0684
v -19.5281 504.534 -18.8746
v -19.5483 504.618 18.0684
v -19.5483 504.581 18.826
v -19.5483 504.618 -18.0684
v -19.5483 504.581 -18.826
v -20.4517 504.581 -18.8261
v -20.4517 504.618 -18.0684
v -20.4719 504.534 -18.8746
v -20.4707 504.581 -18.0684
v -20.4517 504.618 18.0684
v -20.4707 504.581 18.0684
v -20.4517 504.581 18.826
v -20.4719 504.534 18.8746
v -20.4719 504.534 18.8746
v -20.4819 504.488 18.8746
v -20.4719 504.488 19.2752
v -20.4922 504.395 18.826
v -20.4517 504.581 18.826
v -20.4707 504.395 19.6861
v -20.4922 500.223 18.826
v -20.4517 504.482 19.6861
v -20.4707 500.223 19.6861
v -20.4517 504.395 20
v -20.4719 500.13 19.2752
v -20.4819 500.13 18.8746
v -20.4719 500.084 18.8746
v -20.4517 500.036 18.826
v -20.4517 500.223 20
v -20.4517 500.136 19.6861
v -19.5483 500.036 18.826
v -19.5483 500.136 19.6862
v -19.5483 500.223 20
v -19.5281 500.13 19.2752
v -19.5281 500.084 18.8746
v -19.5181 500.13 18.8746
v -19.5293 500.223 19.6862
v -19.5078 500.223 18.826
v -19.5078 504.395 18.826
v -19.5293 504.395 19.6862
v -19.5483 504.395 20
v -19.5281 504.488 19.2752
v -19.5181 504.488 18.8746
v -19.5281 504.534 18.8746
v -19.5483 504.581 18.826
v -19.5483 504.482 19.6862
v -19.5281 500.13 -19.2752
v -19.5181 500.13 -18.8746
v -19.5281 500.084 -18.8746
v -19.5483 500.036 -18.826
v -19.5078 500.223 -18.826
v -19.5483 500.136 -19.6862
v -20.4517 500.036 -18.8261
v -19.5293 500.223 -19.6862
v -20.4517 500.136 -19.6862
v -19.5483 500.223 -20
v -19.5293 504.395 -19.6862
v -19.5078 504.395 -18.826
v -19.5181 504.488 -18.8746
v -20.4517 500.223 -20
v -19.5483 504.395 -20
v -19.5281 504.488 -19.2752
v -19.5281 504.534 -18.8746
v -19.5483 504.581 -18.826
v -19.5483 504.482 -19.6862
v -20.4517 504.581 -18.8261
v -20.4517 504.395 -20
v -20.4517 504.482 -19.6862
v -20.4719 504.488 -19.2752
v -20.4719 504.534 -18.8746
v -20.4819 504.488 -18.8746
v -20.4707 504.395 -19.6862
v -20.4922 504.395 -18.8261
v -20.4707 500.223 -19.6862
v -20.4922 500.223 -18.8261
v -20.4819 500.13 -18.8746
v -20.4719 500.13 -19.2752
v -20.4719 500.084 -18.8746
v -16.1749 501.789 -8.62508
v -16.1652 501.807 -8.78632
v -16.255 501.771 -8.62508
v -16.3372 501.768 -8.78632
v -16.1652 501.807 -16.0137
v -16.4 501.734 -8.78632
v -16.3372 501.734 -8.63479
v -16.3372 501.768 -16.0137
v -16.1749 501.789 -16.1749
v -16.255 501.771 -16.1749
v -16.4 501.734 -16.0137
v -16.3372 501.734 -16.1652
v -16.4 500.088 -8.78632
v -16.3372 500.088 -8.63479
v -16.255 500.051 -8.62508
v -16.4 500.088 -16.0137
v -16.3372 500.088 -16.1652
v -16.255 500.051 -16.1749
v -16.3372 500.053 -8.78632
v -16.1749 500.033 -8.62508
v -16.3372 500.053 -16.0137
v -16.1652 500.014 -8.78632
v -16.1652 500.014 -16.0137
v -16.1749 500.033 -16.1749
v -16.0137 500 -8.78632
v -16.0137 500.014 -8.63479
v -16.0137 500 -16.0137
v -16.0137 500.014 -16.1652
v -8.78632 500.014 -16.1652
v -8.78632 500 -8.78632
v -8.78632 500.014 -8.63479
v -8.62508 500.033 -8.62508
v -8.63479 500.014 -8.78632
v -8.78632 500 -16.0137
v -8.62508 500.033 -16.1749
v -8.63479 500.014 -16.0137
v -8.63479 500.014 -16.0137
v -8.62508 500.033 -16.1749
v -8.54495 500.051 -16.1749
v -8.46276 500.053 -16.0137
v -8.46276 500.053 -8.78632
v -8.63479 500.014 -8.78632
v -8.62508 500.033 -8.62508
v -8.54495 500.051 -8.62508
v -8.4 500.088 -16.0137
v -8.46276 500.088 -16.1652
v -8.4 500.088 -8.78632
v -8.46276 500.088 -8.63479
v -8.46277 501.734 -8.63479
v -8.4 501.734 -8.78632
v -8.54495 501.771 -8.62508
v -8.4 501.734 -16.0137
v -8.46276 501.734 -16.1652
v -8.54495 501.771 -16.1749
v -8.46277 501.768 -8.78632
v -8.46276 501.768 -16.0137
v -8.63479 501.807 -8.78632
v -8.62508 501.789 -8.62508
v -8.63479 501.807 -16.0137
v -8.62508 501.789 -16.1749
v -8.78632 501.822 -8.78632
v -8.78632 501.807 -8.63479
v -8.78632 501.822 -16.0137
v -8.78632 501.807 -16.1652
v -16.0137 501.807 -16.1652
v -16.0137 501.822 -16.0137
v -16.1749 501.789 -16.1749
v -16.1652 501.807 -16.0137
v -16.0137 501.822 -8.78632
v -16.1652 501.807 -8.78632
v -16.0137 501.807 -8.63479
v -16.1749 501.789 -8.62508
v -16.1749 501.789 -8.62508
v -16.255 501.771 -8.62508
v -16.1749 501.771 -8.54495
v -16.3372 501.734 -8.63479
v -16.0137 501.807 -8.63479
v -16.1652 501.734 -8.46277
v -16.3372 500.088 -8.63479
v -16.0137 501.768 -8.46277
v -16.1652 500.088 -8.46277
v -16.0137 501.734 -8.4
v -16.1749 500.051 -8.54495
v -16.255 500.051 -8.62508
v -16.1749 500.033 -8.62508
v -16.0137 500.014 -8.63479
v -16.0137 500.088 -8.4
v -16.0137 500.053 -8.46277
v -8.78632 500.014 -8.63479
v -8.78632 500.053 -8.46277
v -8.78632 500.088 -8.4
v -8.62508 500.051 -8.54495
v -8.62508 500.033 -8.62508
v -8.54495 500.051 -8.62508
v -8.63479 500.088 -8.46277
v -8.46276 500.088 -8.63479
v -8.46277 501.734 -8.63479
v -8.63479 501.734 -8.46277
v -8.78632 501.734 -8.4
v -8.62508 501.771 -8.54495
v -8.54495 501.771 -8.62508
v -8.62508 501.789 -8.62508
v -8.78632 501.807 -8.63479
v -8.78632 501.768 -8.46277
v -8.62508 500.051 -16.255
v -8.54495 500.051 -16.1749
v -8.62508 500.033 -16.1749
v -8.78632 500.014 -16.1652
v -8.46276 500.088 -16.1652
v -8.78632 500.053 -16.3372
v -16.0137 500.014 -16.1652
v -8.63479 500.088 -16.3372
v -16.0137 500.053 -16.3372
v -8.78632 500.088 -16.4
v -8.63479 501.734 -16.3372
v -8.46276 501.734 -16.1652
v -8.54495 501.771 -16.1749
v -16.0137 500.088 -16.4
v -8.78632 501.734 -16.4
v -8.62508 501.771 -16.255
v -8.62508 501.789 -16.1749
v -8.78632 501.807 -16.1652
v -8.78632 501.768 -16.3372
v -16.0137 501.807 -16.1652
v -16.0137 501.734 -16.4
v -16.0137 501.768 -16.3372
v -16.1749 501.771 -16.255
v -16.1749 501.789 -16.1749
v -16.255 501.771 -16.1749
v -16.1652 501.734 -16.3372
v -16.3372 501.734 -16.1652
v -16.1652 500.088 -16.3372
v -16.3372 500.088 -16.1652
v -16.255 500.051 -16.1749
v -16.1749 500.051 -16.255
v -16.1749 500.033 -16.1749
v -8.54373 500.894 -9.56881
v -8.5413 500.904 -9.68974
v -8.56376 500.885 -9.56881
v -8.58431 500.884 -9.68974
v -8.5413 500.904 -15.1103
v -8.6 500.867 -9.68974
v -8.58431 500.867 -9.5761
v -8.58431 500.884 -15.1103
v -8.54373 500.894 -15.2312
v -8.56376 500.885 -15.2312
v -8.6 500.867 -15.1103
v -8.58431 500.867 -15.2239
v -8.6 500.044 -9.68974
v -8.58431 500.044 -9.5761
v -8.56376 500.026 -9.56881
v -8.6 500.044 -15.1103
v -8.58431 500.044 -15.2239
v -8.56376 500.026 -15.2312
v -8.58431 500.027 -9.68974
v -8.54373 500.017 -9.56881
v -8.58431 500.027 -15.1103
v -8.5413 500.007 -9.68974
v -8.5413 500.007 -15.1103
v -8.54373 500.017 -15.2312
v -8.50342 500 -9.68974
v -8.50342 500.007 -9.5761
v -8.50342 500 -15.1103
v -8.50342 500.007 -15.2239
v -6.69658 500.007 -15.2239
v -6.69658 500 -9.68974
v -6.69658 500.007 -9.57609
v -6.65627 500.017 -9.56881
v -6.6587 500.007 -9.68974
v -6.69658 500 -15.1103
v -6.65627 500.017 -15.2312
v -6.6587 500.007 -15.1103
v -6.6587 500.007 -15.1103
v -6.65627 500.017 -15.2312
v -6.63624 500.026 -15.2312
v -6.61569 500.027 -15.1103
v -6.61569 500.027 -9.68974
v -6.6587 500.007 -9.68974
v -6.65627 500.017 -9.56881
v -6.63624 500.026 -9.56881
v -6.6 500.044 -15.1103
v -6.61569 500.044 -15.2239
v -6.6 500.044 -9.68974
v -6.61569 500.044 -9.57609
v -6.61569 500.867 -9.57609
v -6.6 500.867 -9.68974
v -6.63624 500.885 -9.56881
v -6.6 500.867 -15.1103
v -6.61569 500.867 -15.2239
v -6.63624 500.885 -15.2312
v -6.61569 500.884 -9.68974
v -6.61569 500.884 -15.1103
v -6.6587 500.904 -9.68974
v -6.65627 500.894 -9.56881
v -6.6587 500.904 -15.1103
v -6.65627 500.894 -15.2312
v -6.69658 500.911 -9.68974
v -6.69658 500.904 -9.57609
v -6.69658 500.911 -15.1103
v -6.69658 500.904 -15.2239
v -8.50342 500.904 -15.2239
v -8.50342 500.911 -15.1103
v -8.54373 500.894 -15.2312
v -8.5413 500.904 -15.1103
v -8.50342 500.911 -9.68974
v -8.5413 500.904 -9.68974
v -8.50342 500.904 -9.5761
v -8.54373 500.894 -9.56881
v -8.54373 500.894 -9.56881
v -8.56376 500.885 -9.56881
v -8.54373 500.885 -9.50871
v -8.58431 500.867 -9.5761
v -8.50342 500.904 -9.5761
v -8.5413 500.867 -9.44708
v -8.58431 500.044 -9.5761
v -8.50342 500.884 -9.44708
v -8.5413 500.044 -9.44708
v -8.50342 500.867 -9.4
v -8.54373 500.026 -9.50871
v -8.56376 500.026 -9.56881
v -8.54373 500.017 -9.56881
v -8.50342 500.007 -9.5761
v -8.50342 500.044 -9.4
v -8.50342 500.027 -9.44708
v -6.69658 500.007 -9.57609
v -6.69658 500.027 -9.44707
v -6.69658 500.044 -9.4
v -6.65627 500.026 -9.50871
v -6.65627 500.017 -9.56881
v -6.63624 500.026 -9.56881
v -6.6587 500.044 -9.44707
v -6.61569 500.044 -9.57609
v -6.61569 500.867 -9.57609
v -6.6587 500.867 -9.44707
v -6.69658 500.867 -9.4
v -6.65627 500.885 -9.50871
v -6.63624 500.885 -9.56881
v -6.65627 500.894 -9.56881
v -6.69658 500.904 -9.57609
v -6.69658 500.884 -9.44707
v -6.65627 500.026 -15.2913
v -6.63624 500.026 -15.2312
v -6.65627 500.017 -15.2312
v -6.69658 500.007 -15.2239
v -6.61569 500.044 -15.2239
v -6.69658 500.027 -15.3529
v -8.50342 500.007 -15.2239
v -6.6587 500.044 -15.3529
v -8.50342 500.027 -15.3529
v -6.69658 500.044 -15.4
v -6.6587 500.867 -15.3529
v -6.61569 500.867 -15.2239
v -6.63624 500.885 -15.2312
v -8.50342 500.044 -15.4
v -6.69658 500.867 -15.4
v -6.65627 500.885 -15.2913
v -6.65627 500.894 -15.2312
v -6.69658 500.904 -15.2239
v -6.69658 500.884 -15.3529
v -8.50342 500.904 -15.2239
v -8.50342 500.867 -15.4
v -8.50342 500.884 -15.3529
v -8.54373 500.885 -15.2913
v -8.54373 500.894 -15.2312
v -8.56376 500.885 -15.2312
v -8.5413 500.867 -15.3529
v -8.58431 500.867 -15.2239
v -8.5413 500.044 -15.3529
v -8.58431 500.044 -15.2239
v -8.56376 500.026 -15.2312
v -8.54373 500.026 -15.2913
v -8.54373 500.017 -15.2312
v 8.62508 501.789 16.1749
v 8.63479 501.807 16.0137
v 8.54495 501.771 16.1749
v 8.46276 501.768 16.0137
v 8.63479 501.807 8.78632
v 8.4 501.734 16.0137
v 8.46276 501.734 16.1652
v 8.46277 501.768 8.78632
v 8.62508 501.789 8.62508
v 8.54495 501.771 8.62508
v 8.4 501.734 8.78632
v 8.46277 501.734 8.63479
v 8.4 500.088 16.0137
v 8.46276 500.088 16.1652
v 8.54495 500.051 16.1749
v 8.4 500.088 8.78632
v 8.46277 500.088 8.63479
v 8.54495 500.051 8.62508
v 8.46276 500.053 16.0137
v 8.62508 500.033 16.1749
v 8.46277 500.053 8.78632
v 8.63479 500.014 16.0137
v 8.63479 500.014 8.78632
v 8.62508 500.033 8.62508
v 8.78632 500 16.0137
v 8.78632 500.014 16.1652
v 8.78632 500 8.78632
v 8.78632 500.014 8.63479
v 16.0137 500.014 8.63479
v 16.0137 500 16.0137
v 16.0137 500.014 16.1652
v 16.1749 500.033 16.1749
v 16.1652 500.014 16.0137
v 16.0137 500 8.78632
v 16.1749 500.033 8.62508
v 16.1652 500.014 8.78632
v 16.1652 500.014 8.78632
v 16.1749 500.033 8.62508
v 16.255 500.051 8.62508
v 16.3372 500.053 8.78632
v 16.3372 500.053 16.0137
v 16.1652 500.014 16.0137
v 16.1749 500.033 16.1749
v 16.255 500.051 16.1749
v 16.4 500.088 8.78632
v 16.3372 500.088 8.63479
v 16.4 500.088 16.0137
v 16.3372 500.088 16.1652
v 16.3372 501.734 16.1652
v 16.4 501.734 16.0137
v 16.255 501.771 16.1749
v 16.4 501.734 8.78632
v 16.3372 501.734 8.63479
v 16.2551 501.771 8.62508
v 16.3372 501.768 16.0137
v 16.3372 501.768 8.78632
v 16.1652 501.807 16.0137
v 16.1749 501.789 16.1749
v 16.1652 501.807 8.78632
v 16.1749 501.789 8.62508
v 16.0137 501.822 16.0137
v 16.0137 501.807 16.1652
v 16.0137 501.822 8.78632
v 16.0137 501.807 8.63479
v 8.78632 501.807 8.63479
v 8.78632 501.822 8.78632
v 8.62508 501.789 8.62508
v 8.63479 501.807 8.78632
v 8.78632 501.822 16.0137
v 8.63479 501.807 16.0137
v 8.78632 501.807 16.1652
v 8.62508 501.789 16.1749
v 8.62508 501.789 16.1749
v 8.54495 501.771 16.1749
v 8.62508 501.771 16.255
v 8.46276 501.734 16.1652
v 8.78632 501.807 16.1652
v 8.63479 501.734 16.3372
v 8.46276 500.088 16.1652
v 8.78632 501.768 16.3372
v 8.63479 500.088 16.3372
v 8.78632 501.734 16.4
v 8.62508 500.051 16.255
v 8.54495 500.051 16.1749
v 8.62508 500.033 16.1749
v 8.78632 500.014 16.1652
v 8.78632 500.088 16.4
v 8.78632 500.053 16.3372
v 16.0137 500.014 16.1652
v 16.0137 500.053 16.3372
v 16.0137 500.088 16.4
v 16.1749 500.051 16.255
v 16.1749 500.033 16.1749
v 16.255 500.051 16.1749
v 16.1652 500.088 16.3372
v 16.3372 500.088 16.1652
v 16.3372 501.734 16.1652
v 16.1652 501.734 16.3372
v 16.0137 501.734 16.4
v 16.1749 501.771 16.2551
v 16.255 501.771 16.1749
v 16.1749 501.789 16.1749
v 16.0137 501.807 16.1652
v 16.0137 501.768 16.3372
v 16.1749 500.051 8.54495
v 16.255 500.051 8.62508
v 16.1749 500.033 8.62508
v 16.0137 500.014 8.63479
v 16.3372 500.088 8.63479
v 16.0137 500.053 8.46277
v 8.78632 500.014 8.63479
v 16.1652 500.088 8.46277
v 8.78632 500.053 8.46276
v 16.0137 500.088 8.4
v 16.1652 501.734 8.46277
v 16.3372 501.734 8.63479
v 16.2551 501.771 8.62508
v 8.78632 500.088 8.4
v 16.0137 501.734 8.4
v 16.1749 501.771 8.54495
v 16.1749 501.789 8.62508
v 16.0137 501.807 8.63479
v 16.0137 501.768 8.46277
v 8.78632 501.807 8.63479
v 8.78632 501.734 8.4
v 8.78632 501.768 8.46276
v 8.62508 501.771 8.54495
v 8.62508 501.789 8.62508
v 8.54495 501.771 8.62508
v 8.63479 501.734 8.46276
v 8.46277 501.734 8.63479
v 8.63479 500.088 8.46276
v 8.46277 500.088 8.63479
v 8.54495 500.051 8.62508
v 8.62508 500.051 8.54495
v 8.62508 500.033 8.62508
v 6.65627 500.894 15.2312
v 6.6587 500.904 15.1103
v 6.63624 500.885 15.2312
v 6.61569 500.884 15.1103
v 6.6587 500.904 9.68974
v 6.6 500.867 15.1103
v 6.61569 500.867 15.2239
v 6.61569 500.884 9.68974
v 6.65627 500.894 9.56881
v 6.63624 500.885 9.56881
v 6.6 500.867 9.68974
v 6.61569 500.867 9.57609
v 6.6 500.044 15.1103
v 6.61569 500.044 15.2239
v 6.63624 500.026 15.2312
v 6.6 500.044 9.68974
v 6.61569 500.044 9.57609
v 6.63624 500.026 9.56881
v 6.61569 500.027 15.1103
v 6.65627 500.017 15.2312
v 6.61569 500.027 9.68974
v 6.6587 500.007 15.1103
v 6.6587 500.007 9.68974
v 6.65627 500.017 9.56881
v 6.69658 500 15.1103
v 6.69658 500.007 15.2239
v 6.69658 500 9.68974
v 6.69658 500.007 9.57609
v 8.50342 500.007 9.57609
v 8.50342 500 15.1103
v 8.50342 500.007 15.2239
v 8.54373 500.017 15.2312
v 8.5413 500.007 15.1103
v 8.50342 500 9.68974
v 8.54373 500.017 9.56881
v 8.5413 500.007 9.68974
v 8.5413 500.007 9.68974
v 8.54373 500.017 9.56881
v 8.56376 500.026 9.56881
v 8.58431 500.027 9.68974
v 8.58431 500.027 15.1103
v 8.5413 500.007 15.1103
v 8.54373 500.017 15.2312
v 8.56376 500.026 15.2312
v 8.6 500.044 9.68974
v 8.58431 500.044 9.57609
v 8.6 500.044 15.1103
v 8.58431 500.044 15.2239
v 8.58431 500.867 15.2239
v 8.6 500.867 15.1103
v 8.56376 500.885 15.2312
v 8.6 500.867 9.68974
v 8.58431 500.867 9.57609
v 8.56376 500.885 9.56881
v 8.58431 500.884 15.1103
v 8.58431 500.884 9.68974
v 8.5413 500.904 15.1103
v 8.54373 500.894 15.2312
v 8.5413 500.904 9.68974
v 8.54373 500.894 9.56881
v 8.50342 500.911 15.1103
v 8.50342 500.904 15.2239
v 8.50342 500.911 9.68974
v 8.50342 500.904 9.57609
v 6.69658 500.904 9.57609
v 6.69658 500.911 9.68974
v 6.65627 500.894 9.56881
v 6.6587 500.904 9.68974
v 6.69658 500.911 15.1103
v 6.6587 500.904 15.1103
v 6.69658 500.904 15.2239
v 6.65627 500.894 15.2312
v 6.65627 500.894 15.2312
v 6.63624 500.885 15.2312
v 6.65627 500.885 15.2913
v 6.61569 500.867 15.2239
v 6.69658 500.904 15.2239
v 6.6587 500.867 15.3529
v 6.61569 500.044 15.2239
v 6.69658 500.884 15.3529
v 6.6587 500.044 15.3529
v 6.69658 500.867 15.4
v 6.65627 500.026 15.2913
v 6.63624 500.026 15.2312
v 6.65627 500.017 15.2312
v 6.69658 500.007 15.2239
v 6.69658 500.044 15.4
v 6.69658 500.027 15.3529
v 8.50342 500.007 15.2239
v 8.50342 500.027 15.3529
v 8.50342 500.044 15.4
v 8.54373 500.026 15.2913
v 8.54373 500.017 15.2312
v 8.56376 500.026 15.2312
v 8.5413 500.044 15.3529
v 8.58431 500.044 15.2239
v 8.58431 500.867 15.2239
v 8.5413 500.867 15.3529
v 8.50342 500.867 15.4
v 8.54373 500.885 15.2913
v 8.56376 500.885 15.2312
v 8.54373 500.894 15.2312
v 8.50342 500.904 15.2239
v 8.50342 500.884 15.3529
v 8.54373 500.026 9.50871
v 8.56376 500.026 9.56881
v 8.54373 500.017 9.56881
v 8.50342 500.007 9.57609
v 8.58431 500.044 9.57609
v 8.50342 500.027 9.44707
v 6.69658 500.007 9.57609
v 8.5413 500.044 9.44707
v 6.69658 500.027 9.44707
v 8.50342 500.044 9.4
v 8.5413 500.867 9.44707
v 8.58431 500.867 9.57609
v 8.56376 500.885 9.56881
v 6.69658 500.044 9.4
v 8.50342 500.867 9.4
v 8.54373 500.885 9.50871
v 8.54373 500.894 9.56881
v 8.50342 500.904 9.57609
v 8.50342 500.884 9.44707
v 6.69658 500.904 9.57609
v 6.69658 500.867 9.4
v 6.69658 500.884 9.44707
v 6.65627 500.885 9.50871
v 6.65627 500.894 9.56881
v 6.63624 500.885 9.56881
v 6.6587 500.867 9.44707
v 6.61569 500.867 9.57609
v 6.6587 500.044 9.44707
v 6.61569 500.044 9.57609
v 6.63624 500.026 9.56881
v 6.65627 500.026 9.50871
v 6.65627 500.017 9.56881
f 72 70 3
f 70 4 3
f 70 68 4
f 3 4 6
f 7 3 6
f 68 8 4
f 6 4 8
f 68 9 10
f 8 68 10
f 8 10 11
f 11 6 8
f 10 131 11
f 6 13 7
f 13 14 7
f 14 13 84
f 6 11 16
f 16 11 131
f 13 6 16
f 133 16 131
f 133 18 16
f 13 19 84
f 13 16 19
f 84 19 85
f 18 21 16
f 16 21 19
f 19 22 85
f 19 21 22
f 23 21 18
f 21 23 22
f 24 23 18
f 85 22 25
f 25 22 23
f 26 85 25
f 27 23 24
f 27 25 23
f 28 27 24
f 27 28 108
f 25 30 26
f 30 25 27
f 30 31 26
f 93 31 30
f 33 93 30
f 34 27 108
f 34 30 27
f 30 34 33
f 34 108 107
f 34 36 33
f 36 34 107
f 36 107 39
f 40 36 39
f 40 41 36
f 41 33 36
f 33 41 93
f 41 94 93
f 40 39 45
f 39 109 45
f 47 41 40
f 94 41 47
f 45 47 40
f 96 94 47
f 96 47 49
f 47 50 49
f 47 45 50
f 49 50 101
f 52 45 109
f 45 52 50
f 53 52 109
f 53 117 52
f 50 55 101
f 50 52 55
f 117 56 52
f 52 56 55
f 55 57 101
f 57 55 56
f 57 102 101
f 59 56 117
f 59 57 56
f 121 59 117
f 102 57 61
f 61 57 59
f 103 102 61
f 63 59 121
f 63 61 59
f 64 63 121
f 63 64 124
f 66 63 124
f 63 66 61
f 66 124 9
f 68 66 9
f 66 69 61
f 69 66 68
f 61 69 103
f 70 69 68
f 69 71 103
f 70 72 69
f 72 71 69
f 72 3 75
f 3 7 75
f 71 72 75
f 7 78 75
f 78 7 14
f 80 71 75
f 81 78 14
f 78 82 75
f 82 78 81
f 82 80 75
f 81 14 83
f 14 84 83
f 85 83 84
f 85 26 83
f 81 83 87
f 87 82 81
f 26 88 83
f 83 88 87
f 88 26 31
f 87 88 90
f 90 88 31
f 87 91 82
f 91 87 90
f 90 31 92
f 91 90 92
f 31 93 92
f 93 94 92
f 95 92 94
f 95 91 92
f 96 95 94
f 96 49 95
f 91 95 98
f 49 98 95
f 91 99 82
f 99 91 98
f 82 99 80
f 98 49 100
f 98 100 99
f 49 101 100
f 102 100 101
f 102 103 100
f 99 104 80
f 100 104 99
f 103 104 100
f 71 80 104
f 103 71 104
f 105 39 107
f 107 108 105
f 109 39 105
f 108 110 105
f 108 28 110
f 112 109 105
f 28 113 110
f 114 112 105
f 110 114 105
f 112 115 109
f 115 112 114
f 115 53 109
f 53 115 117
f 118 114 110
f 113 118 110
f 119 115 114
f 119 114 118
f 115 120 117
f 120 115 119
f 117 120 121
f 64 121 120
f 123 64 120
f 123 120 119
f 64 123 124
f 119 125 123
f 125 119 118
f 123 126 124
f 125 126 123
f 124 126 127
f 127 126 125
f 9 124 127
f 127 10 9
f 130 127 125
f 127 130 10
f 125 118 130
f 130 131 10
f 131 130 132
f 118 132 130
f 133 131 132
f 133 132 18
f 135 132 118
f 132 135 18
f 113 135 118
f 18 135 24
f 113 28 135
f 28 24 135
f 208 206 139
f 206 140 139
f 206 204 140
f 139 140 142
f 143 139 142
f 204 144 140
f 142 140 144
f 204 145 146
f 144 204 146
f 144 146 147
f 147 142 144
f 146 267 147
f 142 149 143
f 149 150 143
f 150 149 220
f 142 147 152
f 152 147 267
f 149 142 152
f 269 152 267
f 269 154 152
f 149 155 220
f 149 152 155
f 220 155 221
f 154 157 152
f 152 157 155
f 155 158 221
f 155 157 158
f 159 157 154
f 157 159 158
f 160 159 154
f 221 158 161
f 161 158 159
f 162 221 161
f 163 159 160
f 163 161 159
f 164 163 160
f 163 164 244
f 161 166 162
f 166 161 163
f 166 167 162
f 229 167 166
f 169 229 166
f 170 163 244
f 170 166 163
f 166 170 169
f 170 244 243
f 170 172 169
f 172 170 243
f 172 243 175
f 176 172 175
f 176 177 172
f 177 169 172
f 169 177 229
f 177 230 229
f 176 175 181
f 175 245 181
f 183 177 176
f 230 177 183
f 181 183 176
f 232 230 183
f 232 183 185
f 183 186 185
f 183 181 186
f 185 186 237
f 188 181 245
f 181 188 186
f 189 188 245
f 189 253 188
f 186 191 237
f 186 188 191
f 253 192 188
f 188 192 191
f 191 193 237
f 193 191 192
f 193 238 237
f 195 192 253
f 195 193 192
f 257 195 253
f 238 193 197
f 197 193 195
f 239 238 197
f 199 195 257
f 199 197 195
f 200 199 257
f 199 200 260
f 202 199 260
f 199 202 197
f 202 260 145
f 204 202 145
f 202 205 197
f 205 202 204
f 197 205 239
f 206 205 204
f 205 207 239
f 206 208 205
f 208 207 205
f 208 139 211
f 139 143 211
f 207 208 211
f 143 214 211
f 214 143 150
f 216 207 211
f 217 214 150
f 214 218 211
f 218 214 217
f 218 216 211
f 217 150 219
f 150 220 219
f 221 219 220
f 221 162 219
f 217 219 223
f 223 218 217
f 162 224 219
f 219 224 223
f 224 162 167
f 223 224 226
f 226 224 167
f 223 227 218
f 227 223 226
f 226 167 228
f 227 226 228
f 167 229 228
f 229 230 228
f 231 228 230
f 231 227 228
f 232 231 230
f 232 185 231
f 227 231 234
f 185 234 231
f 227 235 218
f 235 227 234
f 218 235 216
f 234 185 236
f 234 236 235
f 185 237 236
f 238 236 237
f 238 239 236
f 235 240 216
f 236 240 235
f 239 240 236
f 207 216 240
f 239 207 240
f 241 175 243
f 243 244 241
f 245 175 241
f 244 246 241
f 244 164 246
f 248 245 241
f 164 249 246
f 250 248 241
f 246 250 241
f 248 251 245
f 251 248 250
f 251 189 245
f 189 251 253
f 254 250 246
f 249 254 246
f 255 251 250
f 255 250 254
f 251 256 253
f 256 251 255
f 253 256 257
f 200 257 256
f 259 200 256
f 259 256 255
f 200 259 260
f 255 261 259
f 261 255 254
f 259 262 260
f 261 262 259
f 260 262 263
f 263 262 261
f 145 260 263
f 263 146 145
f 266 263 261
f 263 266 146
f 261 254 266
f 266 267 146
f 267 266 268
f 254 268 266
f 269 267 268
f 269 268 154
f 271 268 254
f 268 271 154
f 249 271 254
f 154 271 160
f 249 164 271
f 164 160 271
f 344 342 275
f 342 276 275
f 342 340 276
f 275 276 278
f 279 275 278
f 340 280 276
f 278 276 280
f 340 281 282
f 280 340 282
f 280 282 283
f 283 278 280
f 282 403 283
f 278 285 279
f 285 286 279
f 286 285 356
f 278 283 288
f 288 283 403
f 285 278 288
f 405 288 403
f 405 290 288
f 285 291 356
f 285 288 291
f 356 291 357
f 290 293 288
f 288 293 291
f 291 294 357
f 291 293 294
f 295 293 290
f 293 295 294
f 296 295 290
f 357 294 297
f 297 294 295
f 298 357 297
f 299 295 296
f 299 297 295
f 300 299 296
f 299 300 380
f 297 302 298
f 302 297 299
f 302 303 298
f 365 303 302
f 305 365 302
f 306 299 380
f 306 302 299
f 302 306 305
f 306 380 379
f 306 308 305
f 308 306 379
f 308 379 311
f 312 308 311
f 312 313 308
f 313 305 308
f 305 313 365
f 313 366 365
f 312 311 317
f 311 381 317
f 319 313 312
f 366 313 319
f 317 319 312
f 368 366 319
f 368 319 321
f 319 322 321
f 319 317 322
f 321 322 373
f 324 317 381
f 317 324 322
f 325 324 381
f 325 389 324
f 322 327 373
f 322 324 327
f 389 328 324
f 324 328 327
f 327 329 373
f 329 327 328
f 329 374 373
f 331 328 389
f 331 329 328
f 393 331 389
f 374 329 333
f 333 329 331
f 375 374 333
f 335 331 393
f 335 333 331
f 336 335 393
f 335 336 396
f 338 335 396
f 335 338 333
f 338 396 281
f 340 338 281
f 338 341 333
f 341 338 340
f 333 341 375
f 342 341 340
f 341 343 375
f 342 344 341
f 344 343 341
f 344 275 347
f 275 279 347
f 343 344 347
f 279 350 347
f 350 279 286
f 352 343 347
f 353 350 286
f 350 354 347
f 354 350 353
f 354 352 347
f 353 286 355
f 286 356 355
f 357 355 356
f 357 298 355
f 353 355 359
f 359 354 353
f 298 360 355
f 355 360 359
f 360 298 303
f 359 360 362
f 362 360 303
f 359 363 354
f 363 359 362
f 362 303 364
f 363 362 364
f 303 365 364
f 365 366 364
f 367 364 366
f 367 363 364
f 368 367 366
f 368 321 367
f 363 367 370
f 321 370 367
f 363 371 354
f 371 363 370
f 354 371 352
f 370 321 372
f 370 372 371
f 321 373 372
f 374 372 373
f 374 375 372
f 371 376 352
f 372 376 371
f 375 376 372
f 343 352 376
f 375 343 376
f 377 311 379
f 379 380 377
f 381 311 377
f 380 382 377
f 380 300 382
f 384 381 377
f 300 385 382
f 386 384 377
f 382 386 377
f 384 387 381
f 387 384 386
f 387 325 381
f 325 387 389
f 390 386 382
f 385 390 382
f 391 387 386
f 391 386 390
f 387 392 389
f 392 387 391
f 389 392 393
f 336 393 392
f 395 336 392
f 395 392 391
f 336 395 396
f 391 397 395
f 397 391 390
f 395 398 396
f 397 398 395
f 396 398 399
f 399 398 397
f 281 396 399
f 399 282 281
f 402 399 397
f 399 402 282
f 397 390 402
f 402 403 282
f 403 402 404
f 390 404 402
f 405 403 404
f 405 404 290
f 407 404 390
f 404 407 290
f 385 407 390
f 290 407 296
f 385 300 407
f 300 296 407
f 480 478 411
f 478 412 411
f 478 476 412
f 411 412 414
f 415 411 414
f 476 416 412
f 414 412 416
f 476 417 418
f 416 476 418
f 416 418 419
f 419 414 416
f 418 539 419
f 414 421 415
f 421 422 415
f 422 421 492
f 414 419 424
f 424 419 539
f 421 414 424
f 541 424 539
f 541 426 424
f 421 427 492
f 421 424 427
f 492 427 493
f 426 429 424
f 424 429 427
f 427 430 493
f 427 429 430
f 431 429 426
f 429 431 430
f 432 431 426
f 493 430 433
f 433 430 431
f 434 493 433
f 435 431 432
f 435 433 431
f 436 435 432
f 435 436 516
f 433 438 434
f 438 433 435
f 438 439 434
f 501 439 438
f 441 501 438
f 442 435 516
f 442 438 435
f 438 442 441
f 442 516 515
f 442 444 441
f 444 442 515
f 444 515 447
f 448 444 447
f 448 449 444
f 449 441 444
f 441 449 501
f 449 502 501
f 448 447 453
f 447 517 453
f 455 449 448
f 502 449 455
f 453 455 448
f 504 502 455
f 504 455 457
f 455 458 457
f 455 453 458
f 457 458 509
f 460 453 517
f 453 460 458
f 461 460 517
f 461 525 460
f 458 463 509
f 458 460 463
f 525 464 460
f 460 464 463
f 463 465 509
f 465 463 464
f 465 510 509
f 467 464 525
f 467 465 464
f 529 467 525
f 510 465 469
f 469 465 467
f 511 510 469
f 471 467 529
f 471 469 467
f 472 471 529
f 471 472 532
f 474 471 532
f 471 474 469
f 474 532 417
f 476 474 417
f 474 477 469
f 477 474 476
f 469 477 511
f 478 477 476
f 477 479 511
f 478 480 477
f 480 479 477
f 480 411 483
f 411 415 483
f 479 480 483
f 415 486 483
f 486 415 422
f 488 479 483
f 489 486 422
f 486 490 483
f 490 486 489
f 490 488 483
f 489 422 491
f 422 492 491
f 493 491 492
f 493 434 491
f 489 491 495
f 495 490 489
f 434 496 491
f 491 496 495
f 496 434 439
f 495 496 498
f 498 496 439
f 495 499 490
f 499 495 498
f 498 439 500
f 499 498 500
f 439 501 500
f 501 502 500
f 503 500 502
f 503 499 500
f 504 503 502
f 504 457 503
f 499 503 506
f 457 506 503
f 499 507 490
f 507 499 506
f 490 507 488
f 506 457 508
f 506 508 507
f 457 509 508
f 510 508 509
f 510 511 508
f 507 512 488
f 508 512 507
f 511 512 508
f 479 488 512
f 511 479 512
f 513 447 515
f 515 516 513
f 517 447 513
f 516 518 513
f 516 436 518
f 520 517 513
f 436 521 518
f 522 520 513
f 518 522 513
f 520 523 517
f 523 520 522
f 523 461 517
f 461 523 525
f 526 522 518
f 521 526 518
f 527 523 522
f 527 522 526
f 523 528 525
f 528 523 527
f 525 528 529
f 472 529 528
f 531 472 528
f 531 528 527
f 472 531 532
f 527 533 531
f 533 527 526
f 531 534 532
f 533 534 531
f 532 534 535
f 535 534 533
f 417 532 535
f 535 418 417
f 538 535 533
f 535 538 418
f 533 526 538
f 538 539 418
f 539 538 540
f 526 540 538
f 541 539 540
f 541 540 426
f 543 540 526
f 540 543 426
f 521 543 526
f 426 543 432
f 521 436 543
f 436 432 543
f 616 614 547
f 614 548 547
f 614 612 548
f 547 548 550
f 551 547 550
f 612 552 548
f 550 548 552
f 612 553 554
f 552 612 554
f 552 554 555
f 555 550 552
f 554 675 555
f 550 557 551
f 557 558 551
f 558 557 628
f 550 555 560
f 560 555 675
f 557 550 560
f 677 560 675
f 677 562 560
f 557 563 628
f 557 560 563
f 628 563 629
f 562 565 560
f 560 565 563
f 563 566 629
f 563 565 566
f 567 565 562
f 565 567 566
f 568 567 562
f 629 566 569
f 569 566 567
f 570 629 569
f 571 567 568
f 571 569 567
f 572 571 568
f 571 572 652
f 569 574 570
f 574 569 571
f 574 575 570
f 637 575 574
f 577 637 574
f 578 571 652
f 578 574 571
f 574 578 577
f 578 652 651
f 578 580 577
f 580 578 651
f 580 651 583
f 584 580 583
f 584 585 580
f 585 577 580
f 577 585 637
f 585 638 637
f 584 583 589
f 583 653 589
f 591 585 584
f 638 585 591
f 589 591 584
f 640 638 591
f 640 591 593
f 591 594 593
f 591 589 594
f 593 594 645
f 596 589 653
f 589 596 594
f 597 596 653
f 597 661 596
f 594 599 645
f 594 596 599
f 661 600 596
f 596 600 599
f 599 601 645
f 601 599 600
f 601 646 645
f 603 600 661
f 603 601 600
f 665 603 661
f 646 601 605
f 605 601 603
f 647 646 605
f 607 603 665
f 607 605 603
f 608 607 665
f 607 608 668
f 610 607 668
f 607 610 605
f 610 668 553
f 612 610 553
f 610 613 605
f 613 610 612
f 605 613 647
f 614 613 612
f 613 615 647
f 614 616 613
f 616 615 613
f 616 547 619
f 547 551 619
f 615 616 619
f 551 622 619
f 622 551 558
f 624 615 619
f 625 622 558
f 622 626 619
f 626 622 625
f 626 624 619
f 625 558 627
f 558 628 627
f 629 627 628
f 629 570 627
f 625 627 631
f 631 626 625
f 570 632 627
f 627 632 631
f 632 570 575
f 631 632 634
f 634 632 575
f 631 635 626
f 635 631 634
f 634 575 636
f 635 634 636
f 575 637 636
f 637 638 636
f 639 636 638
f 639 635 636
f 640 639 638
f 640 593 639
f 635 639 642
f 593 642 639
f 635 643 626
f 643 635 642
f 626 643 624
f 642 593 644
f 642 644 643
f 593 645 644
f 646 644 645
f 646 647 644
f 643 648 624
f 644 648 643
f 647 648 644
f 615 624 648
f 647 615 648
f 649 583 651
f 651 652 649
f 653 583 649
f 652 654 649
f 652 572 654
f 656 653 649
f 572 657 654
f 658 656 649
f 654 658 649
f 656 659 653
f 659 656 658
f 659 597 653
f 597 659 661
f 662 658 654
f 657 662 654
f 663 659 658
f 663 658 662
f 659 664 661
f 664 659 663
f 661 664 665
f 608 665 664
f 667 608 664
f 667 664 663
f 608 667 668
f 663 669 667
f 669 663 662
f 667 670 668
f 669 670 667
f 668 670 671
f 671 670 669
f 553 668 671
f 671 554 553
f 674 671 669
f 671 674 554
f 669 662 674
f 674 675 554
f 675 674 676
f 662 676 674
f 677 675 676
f 677 676 562
f 679 676 662
f 676 679 562
f 657 679 662
f 562 679 568
f 657 572 679
f 572 568 679
f 752 750 683
f 750 684 683
f 750 748 684
f 683 684 686
f 687 683 686
f 748 688 684
f 686 684 688
f 748 689 690
f 688 748 690
f 688 690 691
f 691 686 688
f 690 811 691
f 686 693 687
f 693 694 687
f 694 693 764
f 686 691 696
f 696 691 811
f 693 686 696
f 813 696 811
f 813 698 696
f 693 699 764
f 693 696 699
f 764 699 765
f 698 701 696
f 696 701 699
f 699 702 765
f 699 701 702
f 703 701 698
f 701 703 702
f 704 703 698
f 765 702 705
f 705 702 703
f 706 765 705
f 707 703 704
f 707 705 703
f 708 707 704
f 707 708 788
f 705 710 706
f 710 705 707
f 710 711 706
f 773 711 710
f 713 773 710
f 714 707 788
f 714 710 707
f 710 714 713
f 714 788 787
f 714 716 713
f 716 714 787
f 716 787 719
f 720 716 719
f 720 721 716
f 721 713 716
f 713 721 773
f 721 774 773
f 720 719 725
f 719 789 725
f 727 721 720
f 774 721 727
f 725 727 720
f 776 774 727
f 776 727 729
f 727 730 729
f 727 725 730
f 729 730 781
f 732 725 789
f 725 732 730
f 733 732 789
f 733 797 732
f 730 735 781
f 730 732 735
f 797 736 732
f 732 736 735
f 735 737 781
f 737 735 736
f 737 782 781
f 739 736 797
f 739 737 736
f 801 739 797
f 782 737 741
f 741 737 739
f 783 782 741
f 743 739 801
f 743 741 739
f 744 743 801
f 743 744 804
f 746 743 804
f 743 746 741
f 746 804 689
f 748 746 689
f 746 749 741
f 749 746 748
f 741 749 783
f 750 749 748
f 749 751 783
f 750 752 749
f 752 751 749
f 752 683 755
f 683 687 755
f 751 752 755
f 687 758 755
f 758 687 694
f 760 751 755
f 761 758 694
f 758 762 755
f 762 758 761
f 762 760 755
f 761 694 763
f 694 764 763
f 765 763 764
f 765 706 763
f 761 763 767
f 767 762 761
f 706 768 763
f 763 768 767
f 768 706 711
f 767 768 770
f 770 768 711
f 767 771 762
f 771 767 770
f 770 711 772
f 771 770 772
f 711 773 772
f 773 774 772
f 775 772 774
f 775 771 772
f 776 775 774
f 776 729 775
f 771 775 778
f 729 778 775
f 771 779 762
f 779 771 778
f 762 779 760
f 778 729 780
f 778 780 779
f 729 781 780
f 782 780 781
f 782 783 780
f 779 784 760
f 780 784 779
f 783 784 780
f 751 760 784
f 783 751 784
f 785 719 787
f 787 788 785
f 789 719 785
f 788 790 785
f 788 708 790
f 792 789 785
f 708 793 790
f 794 792 785
f 790 794 785
f 792 795 789
f 795 792 794
f 795 733 789
f 733 795 797
f 798 794 790
f 793 798 790
f 799 795 794
f 799 794 798
f 795 800 797
f 800 795 799
f 797 800 801
f 744 801 800
f 803 744 800
f 803 800 799
f 744 803 804
f 799 805 803
f 805 799 798
f 803 806 804
f 805 806 803
f 804 806 807
f 807 806 805
f 689 804 807
f 807 690 689
f 810 807 805
f 807 810 690
f 805 798 810
f 810 811 690
f 811 810 812
f 798 812 810
f 813 811 812
f 813 812 698
f 815 812 798
f 812 815 698
f 793 815 798
f 698 815 704
f 793 708 815
f 708 704 815
f 888 886 819
f 886 820 819
f 886 884 820
f 819 820 822
f 823 819 822
f 884 824 820
f 822 820 824
f 884 825 826
f 824 884 826
f 824 826 827
f 827 822 824
f 826 947 827
f 822 829 823
f 829 830 823
f 830 829 900
f 822 827 832
f 832 827 947
f 829 822 832
f 949 832 947
f 949 834 832
f 829 835 900
f 829 832 835
f 900 835 901
f 834 837 832
f 832 837 835
f 835 838 901
f 835 837 838
f 839 837 834
f 837 839 838
f 840 839 834
f 901 838 841
f 841 838 839
f 842 901 841
f 843 839 840
f 843 841 839
f 844 843 840
f 843 844 924
f 841 846 842
f 846 841 843
f 846 847 842
f 909 847 846
f 849 909 846
f 850 843 924
f 850 846 843
f 846 850 849
f 850 924 923
f 850 852 849
f 852 850 923
f 852 923 855
f 856 852 855
f 856 857 852
f 857 849 852
f 849 857 909
f 857 910 909
f 856 855 861
f 855 925 861
f 863 857 856
f 910 857 863
f 861 863 856
f 912 910 863
f 912 863 865
f 863 866 865
f 863 861 866
f 865 866 917
f 868 861 925
f 861 868 866
f 869 868 925
f 869 933 868
f 866 871 917
f 866 868 871
f 933 872 868
f 868 872 871
f 871 873 917
f 873 871 872
f 873 918 917
f 875 872 933
f 875 873 872
f 937 875 933
f 918 873 877
f 877 873 875
f 919 918 877
f 879 875 937
f 879 877 875
f 880 879 937
f 879 880 940
f 882 879 940
f 879 882 877
f 882 940 825
f 884 882 825
f 882 885 877
f 885 882 884
f 877 885 919
f 886 885 884
f 885 887 919
f 886 888 885
f 888 887 885
f 888 819 891
f 819 823 891
f 887 888 891
f 823 894 891
f 894 823 830
f 896 887 891
f 897 894 830
f 894 898 891
f 898 894 897
f 898 896 891
f 897 830 899
f 830 900 899
f 901 899 900
f 901 842 899
f 897 899 903
f 903 898 897
f 842 904 899
f 899 904 903
f 904 842 847
f 903 904 906
f 906 904 847
f 903 907 898
f 907 903 906
f 906 847 908
f 907 906 908
f 847 909 908
f 909 910 908
f 911 908 910
f 911 907 908
f 912 911 910
f 912 865 911
f 907 911 914
f 865 914 911
f 907 915 898
f 915 907 914
f 898 915 896
f 914 865 916
f 914 916 915
f 865 917 916
f 918 916 917
f 918 919 916
f 915 920 896
f 916 920 915
f 919 920 916
f 887 896 920
f 919 887 920
f 921 855 923
f 923 924 921
f 925 855 921
f 924 926 921
f 924 844 926
f 928 925 921
f 844 929 926
f 930 928 921
f 926 930 921
f 928 931 925
f 931 928 930
f 931 869 925
f 869 931 933
f 934 930 926
f 929 934 926
f 935 931 930
f 935 930 934
f 931 936 933
f 936 931 935
f 933 936 937
f 880 937 936
f 939 880 936
f 939 936 935
f 880 939 940
f 935 941 939
f 941 935 934
f 939 942 940
f 941 942 939
f 940 942 943
f 943 942 941
f 825 940 943
f 943 826 825
f 946 943 941
f 943 946 826
f 941 934 946
f 946 947 826
f 947 946 948
f 934 948 946
f 949 947 948
f 949 948 834
f 951 948 934
f 948 951 834
f 929 951 934
f 834 951 840
f 929 844 951
f 844 840 951
f 1024 1022 955
f 1022 956 955
f 1022 1020 956
f 955 956 958
f 959 955 958
f 1020 960 956
f 958 956 960
f 1020 961 962
f 960 1020 962
f 960 962 963
f 963 958 960
f 962 1083 963
f 958 965 959
f 965 966 959
f 966 965 1036
f 958 963 968
f 968 963 1083
f 965 958 968
f 1085 968 1083
f 1085 970 968
f 965 971 1036
f 965 968 971
f 1036 971 1037
f 970 973 968
f 968 973 971
f 971 974 1037
f 971 973 974
f 975 973 970
f 973 975 974
f 976 975 970
f 1037 974 977
f 977 974 975
f 978 1037 977
f 979 975 976
f 979 977 975
f 980 979 976
f 979 980 1060
f 977 982 978
f 982 977 979
f 982 983 978
f 1045 983 982
f 985 1045 982
f 986 979 1060
f 986 982 979
f 982 986 985
f 986 1060 1059
f 986 988 985
f 988 986 1059
f 988 1059 991
f 992 988 991
f 992 993 988
f 993 985 988
f 985 993 1045
f 993 1046 1045
f 992 991 997
f 991 1061 997
f 999 993 992
f 1046 993 999
f 997 999 992
f 1048 1046 999
f 1048 999 1001
f 999 1002 1001
f 999 997 1002
f 1001 1002 1053
f 1004 997 1061
f 997 1004 1002
f 1005 1004 1061
f 1005 1069 1004
f 1002 1007 1053
f 1002 1004 1007
f 1069 1008 1004
f 1004 1008 1007
f 1007 1009 1053
f 1009 1007 1008
f 1009 1054 1053
f 1011 1008 1069
f 1011 1009 1008
f 1073 1011 1069
f 1054 1009 1013
f 1013 1009 1011
f 1055 1054 1013
f 1015 1011 1073
f 1015 1013 1011
f 1016 1015 1073
f 1015 1016 1076
f 1018 1015 1076
f 1015 1018 1013
f 1018 1076 961
f 1020 1018 961
f 1018 1021 1013
f 1021 1018 1020
f 1013 1021 1055
f 1022 1021 1020
f 1021 1023 1055
f 1022 1024 1021
f 1024 1023 1021
f 1024 955 1027
f 955 959 1027
f 1023 1024 1027
f 959 1030 1027
f 1030 959 966
f 1032 1023 1027
f 1033 1030 966
f 1030 1034 1027
f 1034 1030 1033
f 1034 1032 1027
f 1033 966 1035
f 966 1036 1035
f 1037 1035 1036
f 1037 978 1035
f 1033 1035 1039
f 1039 1034 1033
f 978 1040 1035
f 1035 1040 1039
f 1040 978 983
f 1039 1040 1042
f 1042 1040 983
f 1039 1043 1034
f 1043 1039 1042
f 1042 983 1044
f 1043 1042 1044
f 983 1045 1044
f 1045 1046 1044
f 1047 1044 1046
f 1047 1043 1044
f 1048 1047 1046
f 1048 1001 1047
f 1043 1047 1050
f 1001 1050 1047
f 1043 1051 1034
f 1051 1043 1050
f 1034 1051 1032
f 1050 1001 1052
f 1050 1052 1051
f 1001 1053 1052
f 1054 1052 1053
f 1054 1055 1052
f 1051 1056 1032
f 1052 1056 1051
f 1055 1056 1052
f 1023 1032 1056
f 1055 1023 1056
f 1057 991 1059
f 1059 1060 1057
f 1061 991 1057
f 1060 1062 1057
f 1060 980 1062
f 1064 1061 1057
f 980 1065 1062
f 1066 1064 1057
f 1062 1066 1057
f 1064 1067 1061
f 1067 1064 1066
f 1067 1005 1061
f 1005 1067 1069
f 1070 1066 1062
f 1065 1070 1062
f 1071 1067 1066
f 1071 1066 1070
f 1067 1072 1069
f 1072 1067 1071
f 1069 1072 1073
f 1016 1073 1072
f 1075 1016 1072
f 1075 1072 1071
f 1016 1075 1076
f 1071 1077 1075
f 1077 1071 1070
f 1075 1078 1076
f 1077 1078 1075
f 1076 1078 1079
f 1079 1078 1077
f 961 1076 1079
f 1079 962 961
f 1082 1079 1077
f 1079 1082 962
f 1077 1070 1082
f 1082 1083 962
f 1083 1082 1084
f 1070 1084 1082
f 1085 1083 1084
f 1085 1084 970
f 1087 1084 1070
f 1084 1087 970
f 1065 1087 1070
f 970 1087 976
f 1065 980 1087
f 980 976 1087
f 1160 1158 1091
f 1158 1092 1091
f 1158 1156 1092
f 1091 1092 1094
f 1095 1091 1094
f 1156 1096 1092
f 1094 1092 1096
f 1156 1097 1098
f 1096 1156 1098
f 1096 1098 1099
f 1099 1094 1096
f 1098 1219 1099
f 1094 1101 1095
f 1101 1102 1095
f 1102 1101 1172
f 1094 1099 1104
f 1104 1099 1219
f 1101 1094 1104
f 1221 1104 1219
f 1221 1106 1104
f 1101 1107 1172
f 1101 1104 1107
f 1172 1107 1173
f 1106 1109 1104
f 1104 1109 1107
f 1107 1110 1173
f 1107 1109 1110
f 1111 1109 1106
f 1109 1111 1110
f 1112 1111 1106
f 1173 1110 1113
f 1113 1110 1111
f 1114 1173 1113
f 1115 1111 1112
f 1115 1113 1111
f 1116 1115 1112
f 1115 1116 1196
f 1113 1118 1114
f 1118 1113 1115
f 1118 1119 1114
f 1181 1119 1118
f 1121 1181 1118
f 1122 1115 1196
f 1122 1118 1115
f 1118 1122 1121
f 1122 1196 1195
f 1122 1124 1121
f 1124 1122 1195
f 1124 1195 1127
f 1128 1124 1127
f 1128 1129 1124
f 1129 1121 1124
f 1121 1129 1181
f 1129 1182 1181
f 1128 1127 1133
f 1127 1197 1133
f 1135 1129 1128
f 1182 1129 1135
f 1133 1135 1128
f 1184 1182 1135
f 1184 1135 1137
f 1135 1138 1137
f 1135 1133 1138
f 1137 1138 1189
f 1140 1133 1197
f 1133 1140 1138
f 1141 1140 1197
f 1141 1205 1140
f 1138 1143 1189
f 1138 1140 1143
f 1205 1144 1140
f 1140 1144 1143
f 1143 1145 1189
f 1145 1143 1144
f 1145 1190 1189
f 1147 1144 1205
f 1147 1145 1144
f 1209 1147 1205
f 1190 1145 1149
f 1149 1145 1147
f 1191 1190 1149
f 1151 1147 1209
f 1151 1149 1147
f 1152 1151 1209
f 1151 1152 1212
f 1154 1151 1212
f 1151 1154 1149
f 1154 1212 1097
f 1156 1154 1097
f 1154 1157 1149
f 1157 1154 1156
f 1149 1157 1191
f 1158 1157 1156
f 1157 1159 1191
f 1158 1160 1157
f 1160 1159 1157
f 1160 1091 1163
f 1091 1095 1163
f 1159 1160 1163
f 1095 1166 1163
f 1166 1095 1102
f 1168 1159 1163
f 1169 1166 1102
f 1166 1170 1163
f 1170 1166 1169
f 1170 1168 1163
f 1169 1102 1171
f 1102 1172 1171
f 1173 1171 1172
f 1173 1114 1171
f 1169 1171 1175
f 1175 1170 1169
f 1114 1176 1171
f 1171 1176 1175
f 1176 1114 1119
f 1175 1176 1178
f 1178 1176 1119
f 1175 1179 1170
f 1179 1175 1178
f 1178 1119 1180
f 1179 1178 1180
f 1119 1181 1180
f 1181 1182 1180
f 1183 1180 1182
f 1183 1179 1180
f 1184 1183 1182
f 1184 1137 1183
f 1179 1183 1186
f 1137 1186 1183
f 1179 1187 1170
f 1187 1179 1186
f 1170 1187 1168
f 1186 1137 1188
f 1186 1188 1187
f 1137 1189 1188
f 1190 1188 1189
f 1190 1191 1188
f 1187 1192 1168
f 1188 1192 1187
f 1191 1192 1188
f 1159 1168 1192
f 1191 1159 1192
f 1193 1127 1195
f 1195 1196 1193
f 1197 1127 1193
f 1196 1198 1193
f 1196 1116 1198
f 1200 1197 1193
f 1116 1201 1198
f 1202 1200 1193
f 1198 1202 1193
f 1200 1203 1197
f 1203 1200 1202
f 1203 1141 1197
f 1141 1203 1205
f 1206 1202 1198
f 1201 1206 1198
f 1207 1203 1202
f 1207 1202 1206
f 1203 1208 1205
f 1208 1203 1207
f 1205 1208 1209
f 1152 1209 1208
f 1211 1152 1208
f 1211 1208 1207
f 1152 1211 1212
f 1207 1213 1211
f 1213 1207 1206
f 1211 1214 1212
f 1213 1214 1211
f 1212 1214 1215
f 1215 1214 1213
f 1097 1212 1215
f 1215 1098 1097
f 1218 1215 1213
f 1215 1218 1098
f 1213 1206 1218
f 1218 1219 1098
f 1219 1218 1220
f 1206 1220 1218
f 1221 1219 1220
f 1221 1220 1106
f 1223 1220 1206
f 1220 1223 1106
f 1201 1223 1206
f 1106 1223 1112
f 1201 1116 1223
f 1116 1112 1223
