v -18.8746 499.964 18.8746
v -18.8261 499.984 18.0684
v -19.2752 499.944 18.8746
v -19.6862 499.941 18.0684
v -18.826 499.984 -18.0684
v -20 499.903 18.0684
v -19.6862 499.903 18.826
v -19.6862 499.941 -18.0684
v -18.8746 499.964 -18.8746
v -19.2752 499.944 -18.8746
v -20 499.903 -18.0684
v -19.6862 499.903 -18.8261
v -20 498.097 18.0684
v -19.6862 498.097 18.826
v -19.2752 498.056 18.8746
v -20 498.097 -18.0684
v -19.6862 498.097 -18.8261
v -19.2752 498.056 -18.8746
v -19.6862 498.059 18.0684
v -18.8746 498.036 18.8746
v -19.6862 498.059 -18.0684
v -18.8261 498.016 18.0684
v -18.826 498.016 -18.0684
v -18.8746 498.036 -18.8746
v -18.0684 498 18.0684
v -18.0684 498.016 18.826
v -18.0684 498 -18.0684
v -18.0684 498.016 -18.8261
v 18.0684 498.016 -18.826
v 18.0684 498 18.0684
v 18.0684 498.016 18.826
v 18.8746 498.036 18.8746
v 18.8261 498.016 18.0684
v 18.0684 498 -18.0684
v 18.8746 498.036 -18.8746
v 18.8261 498.016 -18.0684
v 18.8261 498.016 -18.0684
v 18.8746 498.036 -18.8746
v 19.2752 498.056 -18.8746
v 19.6862 498.059 -18.0684
v 19.6862 498.059 18.0684
v 18.8261 498.016 18.0684
v 18.8746 498.036 18.8746
v 19.2752 498.056 18.8746
v 20 498.097 -18.0684
v 19.6862 498.097 -18.826
v 20 498.097 18.0684
v 19.6862 498.097 18.826
v 19.6862 499.903 18.826
v 20 499.903 18.0684
v 19.2752 499.944 18.8746
v 20 499.903 -18.0684
v 19.6862 499.903 -18.826
v 19.2753 499.944 -18.8746
v 19.6862 499.941 18.0684
v 19.6862 499.941 -18.0684
v 18.826 499.984 18.0684
v 18.8746 499.964 18.8746
v 18.8261 499.984 -18.0684
v 18.8746 499.964 -18.8746
v 18.0684 500 18.0684
v 18.0684 499.984 18.826
v 18.0684 500 -18.0684
v 18.0684 499.984 -18.826
v -18.0684 499.984 -18.8261
v -18.0684 500 -18.0684
v -18.8746 499.964 -18.8746
v -18.826 499.984 -18.0684
v -18.0684 500 18.0684
v -18.8261 499.984 18.0684
v -18.0684 499.984 18.826
v -18.8746 499.964 18.8746
v -18.8746 499.964 18.8746
v -19.2752 499.944 18.8746
v -18.8746 499.944 19.2752
v -19.6862 499.903 18.826
v -18.0684 499.984 18.826
v -18.8261 499.903 19.6861
v -19.6862 498.097 18.826
v -18.0684 499.941 19.6861
v -18.8261 498.097 19.6861
v -18.0684 499.903 20
v -18.8746 498.056 19.2752
v -19.2752 498.056 18.8746
v -18.8746 498.036 18.8746
v -18.0684 498.016 18.826
v -18.0684 498.097 20
v -18.0684 498.059 19.6861
v 18.0684 498.016 18.826
v 18.0684 498.059 19.6862
v 18.0684 498.097 20
v 18.8746 498.056 19.2752
v 18.8746 498.036 18.8746
v 19.2752 498.056 18.8746
v 18.8261 498.097 19.6862
v 19.6862 498.097 18.826
v 19.6862 499.903 18.826
v 18.826 499.903 19.6862
v 18.0684 499.903 20
v 18.8746 499.944 19.2752
v 19.2752 499.944 18.8746
v 18.8746 499.964 18.8746
v 18.0684 499.984 18.826
v 18.0684 499.941 19.6862
v 18.8746 498.056 -19.2752
v 19.2752 498.056 -18.8746
v 18.8746 498.036 -18.8746
v 18.0684 498.016 -18.826
v 19.6862 498.097 -18.826
v 18.0684 498.059 -19.6862
v -18.0684 498.016 -18.8261
v 18.8261 498.097 -19.6862
v -18.0684 498.059 -19.6862
v 18.0684 498.097 -20
v 18.8261 499.903 -19.6862
v 19.6862 499.903 -18.826
v 19.2753 499.944 -18.8746
v -18.0684 498.097 -20
v 18.0684 499.903 -20
v 18.8746 499.944 -19.2752
v 18.8746 499.964 -18.8746
v 18.0684 499.984 -18.826
v 18.0684 499.941 -19.6862
v -18.0684 499.984 -18.8261
v -18.0684 499.903 -20
v -18.0684 499.941 -19.6862
v -18.8746 499.944 -19.2752
v -18.8746 499.964 -18.8746
v -19.2752 499.944 -18.8746
v -18.826 499.903 -19.6862
v -19.6862 499.903 -18.8261
v -18.826 498.097 -19.6862
v -19.6862 498.097 -18.8261
v -19.2752 498.056 -18.8746
v -18.8746 498.056 -19.2752
v -18.8746 498.036 -18.8746
v -18.8746 504.534 20.4719
v -18.8261 504.581 20.4517
v -19.2752 504.488 20.4719
v -19.6862 504.482 20.4517
v -18.826 504.581 19.5483
v -20 504.395 20.4517
v -19.6862 504.395 20.4707
v -19.6862 504.482 19.5483
v -18.8746 504.534 19.5281
v -19.2752 504.488 19.5281
v -20 504.395 19.5483
v -19.6862 504.395 19.5293
v -20 500.223 20.4517
v -19.6862 500.223 20.4707
v -19.2752 500.13 20.4719
v -20 500.223 19.5483
v -19.6862 500.223 19.5293
v -19.2752 500.13 19.5281
v -19.6862 500.136 20.4517
v -18.8746 500.084 20.4719
v -19.6862 500.136 19.5483
v -18.8261 500.036 20.4517
v -18.826 500.036 19.5483
v -18.8746 500.084 19.5281
v -18.0684 500 20.4517
v -18.0684 500.036 20.4707
v -18.0684 500 19.5483
v -18.0684 500.036 19.5293
v 18.0684 500.036 19.5293
v 18.0684 500 20.4517
v 18.0684 500.036 20.4707
v 18.8746 500.084 20.4719
v 18.8261 500.036 20.4517
v 18.0684 500 19.5483
v 18.8746 500.084 19.5281
v 18.8261 500.036 19.5483
v 18.8261 500.036 19.5483
v 18.8746 500.084 19.5281
v 19.2752 500.13 19.5281
v 19.6862 500.136 19.5483
v 19.6862 500.136 20.4517
v 18.8261 500.036 20.4517
v 18.8746 500.084 20.4719
v 19.2752 500.13 20.4719
v 20 500.223 19.5483
v 19.6862 500.223 19.5293
v 20 500.223 20.4517
v 19.6862 500.223 20.4707
v 19.6862 504.395 20.4707
v 20 504.395 20.4517
v 19.2752 504.488 20.4719
v 20 504.395 19.5483
v 19.6862 504.395 19.5293
v 19.2753 504.488 19.5281
v 19.6862 504.482 20.4517
v 19.6862 504.482 19.5483
v 18.826 504.581 20.4517
v 18.8746 504.534 20.4719
v 18.8261 504.581 19.5483
v 18.8746 504.534 19.5281
v 18.0684 504.618 20.4517
v 18.0684 504.581 20.4707
v 18.0684 504.618 19.5483
v 18.0684 504.581 19.5293
v -18.0684 504.581 19.5293
v -18.0684 504.618 19.5483
v -18.8746 504.534 19.5281
v -18.826 504.581 19.5483
v -18.0684 504.618 20.4517
v -18.8261 504.581 20.4517
v -18.0684 504.581 20.4707
v -18.8746 504.534 20.4719
v -18.8746 504.534 20.4719
v -19.2752 504.488 20.4719
v -18.8746 504.488 20.4819
v -19.6862 504.395 20.4707
v -18.0684 504.581 20.4707
v -18.8261 504.395 20.4922
v -19.6862 500.223 20.4707
v -18.0684 504.482 20.4922
v -18.8261 500.223 20.4922
v -18.0684 504.395 20.5
v -18.8746 500.13 20.4819
v -19.2752 500.13 20.4719
v -18.8746 500.084 20.4719
v -18.0684 500.036 20.4707
v -18.0684 500.223 20.5
v -18.0684 500.136 20.4922
v 18.0684 500.036 20.4707
v 18.0684 500.136 20.4922
v 18.0684 500.223 20.5
v 18.8746 500.13 20.4819
v 18.8746 500.084 20.4719
v 19.2752 500.13 20.4719
v 18.8261 500.223 20.4922
v 19.6862 500.223 20.4707
v 19.6862 504.395 20.4707
v 18.826 504.395 20.4922
v 18.0684 504.395 20.5
v 18.8746 504.488 20.4819
v 19.2752 504.488 20.4719
v 18.8746 504.534 20.4719
v 18.0684 504.581 20.4707
v 18.0684 504.482 20.4922
v 18.8746 500.13 19.5181
v 19.2752 500.13 19.5281
v 18.8746 500.084 19.5281
v 18.0684 500.036 19.5293
v 19.6862 500.223 19.5293
v 18.0684 500.136 19.5078
v -18.0684 500.036 19.5293
v 18.8261 500.223 19.5078
v -18.0684 500.136 19.5078
v 18.0684 500.223 19.5
v 18.8261 504.395 19.5078
v 19.6862 504.395 19.5293
v 19.2753 504.488 19.5281
v -18.0684 500.223 19.5
v 18.0684 504.395 19.5
v 18.8746 504.488 19.5181
v 18.8746 504.534 19.5281
v 18.0684 504.581 19.5293
v 18.0684 504.482 19.5078
v -18.0684 504.581 19.5293
v -18.0684 504.395 19.5
v -18.0684 504.482 19.5078
v -18.8746 504.488 19.5181
v -18.8746 504.534 19.5281
v -19.2752 504.488 19.5281
v -18.826 504.395 19.5078
v -19.6862 504.395 19.5293
v -18.826 500.223 19.5078
v -19.6862 500.223 19.5293
v -19.2752 500.13 19.5281
v -18.8746 500.13 19.5181
v -18.8746 500.084 19.5281
v -18.8746 504.534 -19.5281
v -18.8261 504.581 -19.5483
v -19.2752 504.488 -19.5281
v -19.6862 504.482 -19.5483
v -18.826 504.581 -20.4517
v -20 504.395 -19.5483
v -19.6862 504.395 -19.5293
v -19.6862 504.482 -20.4517
v -18.8746 504.534 -20.4719
v -19.2752 504.488 -20.4719
v -20 504.395 -20.4517
v -19.6862 504.395 -20.4707
v -20 500.223 -19.5483
v -19.6862 500.223 -19.5293
v -19.2752 500.13 -19.5281
v -20 500.223 -20.4517
v -19.6862 500.223 -20.4707
v -19.2752 500.13 -20.4719
v -19.6862 500.136 -19.5483
v -18.8746 500.084 -19.5281
v -19.6862 500.136 -20.4517
v -18.8261 500.036 -19.5483
v -18.826 500.036 -20.4517
v -18.8746 500.084 -20.4719
v -18.0684 500 -19.5483
v -18.0684 500.036 -19.5293
v -18.0684 500 -20.4517
v -18.0684 500.036 -20.4707
v 18.0684 500.036 -20.4707
v 18.0684 500 -19.5483
v 18.0684 500.036 -19.5293
v 18.8746 500.084 -19.5281
v 18.8261 500.036 -19.5483
v 18.0684 500 -20.4517
v 18.8746 500.084 -20.4719
v 18.8261 500.036 -20.4517
v 18.8261 500.036 -20.4517
v 18.8746 500.084 -20.4719
v 19.2752 500.13 -20.4719
v 19.6862 500.136 -20.4517
v 19.6862 500.136 -19.5483
v 18.8261 500.036 -19.5483
v 18.8746 500.084 -19.5281
v 19.2752 500.13 -19.5281
v 20 500.223 -20.4517
v 19.6862 500.223 -20.4707
v 20 500.223 -19.5483
v 19.6862 500.223 -19.5293
v 19.6862 504.395 -19.5293
v 20 504.395 -19.5483
v 19.2752 504.488 -19.5281
v 20 504.395 -20.4517
v 19.6862 504.395 -20.4707
v 19.2753 504.488 -20.4719
v 19.6862 504.482 -19.5483
v 19.6862 504.482 -20.4517
v 18.826 504.581 -19.5483
v 18.8746 504.534 -19.5281
v 18.8261 504.581 -20.4517
v 18.8746 504.534 -20.4719
v 18.0684 504.618 -19.5483
v 18.0684 504.581 -19.5293
v 18.0684 504.618 -20.4517
v 18.0684 504.581 -20.4707
v -18.0684 504.581 -20.4707
v -18.0684 504.618 -20.4517
v -18.8746 504.534 -20.4719
v -18.826 504.581 -20.4517
v -18.0684 504.618 -19.5483
v -18.8261 504.581 -19.5483
v -18.0684 504.581 -19.5293
v -18.8746 504.534 -19.5281
v -18.8746 504.534 -19.5281
v -19.2752 504.488 -19.5281
v -18.8746 504.488 -19.5181
v -19.6862 504.395 -19.5293
v -18.0684 504.581 -19.5293
v -18.8261 504.395 -19.5078
v -19.6862 500.223 -19.5293
v -18.0684 504.482 -19.5078
v -18.8261 500.223 -19.5078
v -18.0684 504.395 -19.5
v -18.8746 500.13 -19.5181
v -19.2752 500.13 -19.5281
v -18.8746 500.084 -19.5281
v -18.0684 500.036 -19.5293
v -18.0684 500.223 -19.5
v -18.0684 500.136 -19.5078
v 18.0684 500.036 -19.5293
v 18.0684 500.136 -19.5078
v 18.0684 500.223 -19.5
v 18.8746 500.13 -19.5181
v 18.8746 500.084 -19.5281
v 19.2752 500.13 -19.5281
v 18.8261 500.223 -19.5078
v 19.6862 500.223 -19.5293
v 19.6862 504.395 -19.5293
v 18.826 504.395 -19.5078
v 18.0684 504.395 -19.5
v 18.8746 504.488 -19.5181
v 19.2752 504.488 -19.5281
v 18.8746 504.534 -19.5281
v 18.0684 504.581 -19.5293
v 18.0684 504.482 -19.5078
v 18.8746 500.13 -20.4819
v 19.2752 500.13 -20.4719
v 18.8746 500.084 -20.4719
v 18.0684 500.036 -20.4707
v 19.6862 500.223 -20.4707
v 18.0684 500.136 -20.4922
v -18.0684 500.036 -20.4707
v 18.8261 500.223 -20.4922
v -18.0684 500.136 -20.4922
v 18.0684 500.223 -20.5
v 18.8261 504.395 -20.4922
v 19.6862 504.395 -20.4707
v 19.2753 504.488 -20.4719
v -18.0684 500.223 -20.5
v 18.0684 504.395 -20.5
v 18.8746 504.488 -20.4819
v 18.8746 504.534 -20.4719
v 18.0684 504.581 -20.4707
v 18.0684 504.482 -20.4922
v -18.0684 504.581 -20.4707
v -18.0684 504.395 -20.5
v -18.0684 504.482 -20.4922
v -18.8746 504.488 -20.4819
v -18.8746 504.534 -20.4719
v -19.2752 504.488 -20.4719
v -18.826 504.395 -20.4922
v -19.6862 504.395 -20.4707
v -18.826 500.223 -20.4922
v -19.6862 500.223 -20.4707
v -19.2752 500.13 -20.4719
v -18.8746 500.13 -20.4819
v -18.8746 500.084 -20.4719
v 19.5281 504.534 18.8746
v 19.5293 504.581 18.0684
v 19.5181 504.488 18.8746
v 19.5078 504.482 18.0684
v 19.5293 504.581 -18.0684
v 19.5 504.395 18.0684
v 19.5078 504.395 18.826
v 19.5078 504.482 -18.0684
v 19.5281 504.534 -18.8746
v 19.5181 504.488 -18.8746
v 19.5 504.395 -18.0684
v 19.5078 504.395 -18.8261
v 19.5 500.223 18.0684
v 19.5078 500.223 18.826
v 19.5181 500.13 18.8746
v 19.5 500.223 -18.0684
v 19.5078 500.223 -18.8261
v 19.5181 500.13 -18.8746
v 19.5078 500.136 18.0684
v 19.5281 500.084 18.8746
v 19.5078 500.136 -18.0684
v 19.5293 500.036 18.0684
v 19.5293 500.036 -18.0684
v 19.5281 500.084 -18.8746
v 19.5483 500 18.0684
v 19.5483 500.036 18.826
v 19.5483 500 -18.0684
v 19.5483 500.036 -18.8261
v 20.4517 500.036 -18.826
v 20.4517 500 18.0684
v 20.4517 500.036 18.826
v 20.4719 500.084 18.8746
v 20.4707 500.036 18.0684
v 20.4517 500 -18.0684
v 20.4719 500.084 -18.8746
v 20.4707 500.036 -18.0684
v 20.4707 500.036 -18.0684
v 20.4719 500.084 -18.8746
v 20.4819 500.13 -18.8746
v 20.4922 500.136 -18.0684
v 20.4922 500.136 18.0684
v 20.4707 500.036 18.0684
v 20.4719 500.084 18.8746
v 20.4819 500.13 18.8746
v 20.5 500.223 -18.0684
v 20.4922 500.223 -18.826
v 20.5 500.223 18.0684
v 20.4922 500.223 18.826
v 20.4922 504.395 18.826
v 20.5 504.395 18.0684
v 20.4819 504.488 18.8746
v 20.5 504.395 -18.0684
v 20.4922 504.395 -18.826
v 20.4819 504.488 -18.8746
v 20.4922 504.482 18.0684
v 20.4922 504.482 -18.0684
v 20.4707 504.581 18.0684
v 20.4719 504.534 18.8746
v 20.4707 504.581 -18.0684
v 20.4719 504.534 -18.8746
v 20.4517 504.618 18.0684
v 20.4517 504.581 18.826
v 20.4517 504.618 -18.0684
v 20.4517 504.581 -18.826
v 19.5483 504.581 -18.8261
v 19.5483 504.618 -18.0684
v 19.5281 504.534 -18.8746
v 19.5293 504.581 -18.0684
v 19.5483 504.618 18.0684
v 19.5293 504.581 18.0684
v 19.5483 504.581 18.826
v 19.5281 504.534 18.8746
v 19.5281 504.534 18.8746
v 19.5181 504.488 18.8746
v 19.5281 504.488 19.2752
v 19.5078 504.395 18.826
v 19.5483 504.581 18.826
v 19.5293 504.395 19.6861
v 19.5078 500.223 18.826
v 19.5483 504.482 19.6861
v 19.5293 500.223 19.6861
v 19.5483 504.395 20
v 19.5281 500.13 19.2752
v 19.5181 500.13 18.8746
v 19.5281 500.084 18.8746
v 19.5483 500.036 18.826
v 19.5483 500.223 20
v 19.5483 500.136 19.6861
v 20.4517 500.036 18.826
v 20.4517 500.136 19.6862
v 20.4517 500.223 20
v 20.4719 500.13 19.2752
v 20.4719 500.084 18.8746
v 20.4819 500.13 18.8746
v 20.4707 500.223 19.6862
v 20.4922 500.223 18.826
v 20.4922 504.395 18.826
v 20.4707 504.395 19.6862
v 20.4517 504.395 20
v 20.4719 504.488 19.2752
v 20.4819 504.488 18.8746
v 20.4719 504.534 18.8746
v 20.4517 504.581 18.826
v 20.4517 504.482 19.6862
v 20.4719 500.13 -19.2752
v 20.4819 500.13 -18.8746
v 20.4719 500.084 -18.8746
v 20.4517 500.036 -18.826
v 20.4922 500.223 -18.826
v 20.4517 500.136 -19.6862
v 19.5483 500.036 -18.8261
v 20.4707 500.223 -19.6862
v 19.5483 500.136 -19.6862
v 20.4517 500.223 -20
v 20.4707 504.395 -19.6862
v 20.4922 504.395 -18.826
v 20.4819 504.488 -18.8746
v 19.5483 500.223 -20
v 20.4517 504.395 -20
v 20.4719 504.488 -19.2752
v 20.4719 504.534 -18.8746
v 20.4517 504.581 -18.826
v 20.4517 504.482 -19.6862
v 19.5483 504.581 -18.8261
v 19.5483 504.395 -20
v 19.5483 504.482 -19.6862
v 19.5281 504.488 -19.2752
v 19.5281 504.534 -18.8746
v 19.5181 504.488 -18.8746
v 19.5293 504.395 -19.6862
v 19.5078 504.395 -18.8261
v 19.5293 500.223 -19.6862
v 19.5078 500.223 -18.8261
v 19.5181 500.13 -18.8746
v 19.5281 500.13 -19.2752
v 19.5281 500.084 -18.8746
v -20.4719 504.534 18.8746
v -20.4707 504.581 18.0684
v -20.4819 504.488 18.8746
v -20.4922 504.482 18.0684
v -20.4707 504.581 -18.0684
v -20.5 504.395 18.0684
v -20.4922 504.395 18.826
v -20.4922 504.482 -18.0684
v -20.4719 504.534 -18.8746
v -20.4819 504.488 -18.8746
v -20.5 504.395 -18.0684
v -20.4922 504.395 -18.8261
v -20.5 500.223 18.0684
v -20.4922 500.223 18.826
v -20.4819 500.13 18.8746
v -20.5 500.223 -18.0684
v -20.4922 500.223 -18.8261
v -20.4819 500.13 -18.8746
v -20.4922 500.136 18.0684
v -20.4719 500.084 18.8746
v -20.4922 500.136 -18.0684
v -20.4707 500.036 18.0684
v -20.4707 500.036 -18.0684
v -20.4719 500.084 -18.8746
v -20.4517 500 18.0684
v -20.4517 500.036 18.826
v -20.4517 500 -18.0684
v -20.4517 500.036 -18.8261
v -19.5483 500.036 -18.826
v -19.5483 500 18.0684
v -19.5483 500.036 18.826
v -19.5281 500.084 18.8746
v -19.5293 500.036 18.0684
v -19.5483 500 -18.0684
v -19.5281 500.084 -18.8746
v -19.5293 500.036 -18.0684
v -19.5293 500.036 -18.0684
v -19.5281 500.084 -18.8746
v -19.5181 500.13 -18.8746
v -19.5078 500.136 -18.0684
v -19.5078 500.136 18.0684
v -19.5293 500.036 18.0684
v -19.5281 500.084 18.8746
v -19.5181 500.13 18.8746
v -19.5 500.223 -18.0684
v -19.5078 500.223 -18.826
v -19.5 500.223 18.0684
v -19.5078 500.223 18.826
v -19.5078 504.395 18.826
v -19.5 504.395 18.0684
v -19.5181 504.488 18.8746
v -19.5 504.395 -18.0684
v -19.5078 504.395 -18.826
v -19.5181 504.488 -18.8746
v -19.5078 504.482 18.0684
v -19.5078 504.482 -18.0684
v -19.5293 504.581 18.0684
v -19.5281 504.534 18.8746
v -19.5293 504.581 -18.0684
v -19.5281 504.534 -18.8746
v -19.5483 504.618 18.0684
v -19.5483 504.581 18.826
v -19.5483 504.618 -18.0684
v -19.5483 504.581 -18.826
v -20.4517 504.581 -18.8261
v -20.4517 504.618 -18.0684
v -20.4719 504.534 -18.8746
v -20.4707 504.581 -18.0684
v -20.4517 504.618 18.0684
v -20.4707 504.581 18.0684
v -20.4517 504.581 18.826
v -20.4719 504.534 18.8746
v -20.4719 504.534 18.8746
v -20.4819 504.488 18.8746
v -20.4719 504.488 19.2752
v -20.4922 504.395 18.826
v -20.4517 504.581 18.826
v -20.4707 504.395 19.6861
v -20.4922 500.223 18.826
v -20.4517 504.482 19.6861
v -20.4707 500.223 19.6861
v -20.4517 504.395 20
v -20.4719 500.13 19.2752
v -20.4819 500.13 18.8746
v -20.4719 500.084 18.8746
v -20.4517 500.036 18.826
v -20.4517 500.223 20
v -20.4517 500.136 19.6861
v -19.5483 500.036 18.826
v -19.5483 500.136 19.6862
v -19.5483 500.223 20
v -19.5281 500.13 19.2752
v -19.5281 500.084 18.8746
v -19.5181 500.13 18.8746
v -19.5293 500.223 19.6862
v -19.5078 500.223 18.826
v -19.5078 504.395 18.826
v -19.5293 504.395 19.6862
v -19.5483 504.395 20
v -19.5281 504.488 19.2752
v -19.5181 504.488 18.8746
v -19.5281 504.534 18.8746
v -19.5483 504.581 18.826
v -19.5483 504.482 19.6862
v -19.5281 500.13 -19.2752
v -19.5181 500.13 -18.8746
v -19.5281 500.084 -18.8746
v -19.5483 500.036 -18.826
v -19.5078 500.223 -18.826
v -19.5483 500.136 -19.6862
v -20.4517 500.036 -18.8261
v -19.5293 500.223 -19.6862
v -20.4517 500.136 -19.6862
v -19.5483 500.223 -20
v -19.5293 504.395 -19.6862
v -19.5078 504.395 -18.826
v -19.5181 504.488 -18.8746
v -20.4517 500.223 -20
v -19.5483 504.395 -20
v -19.5281 504.488 -19.2752
v -19.5281 504.534 -18.8746
v -19.5483 504.581 -18.826
v -19.5483 504.482 -19.6862
v -20.4517 504.581 -18.8261
v -20.4517 504.395 -20
v -20.4517 504.482 -19.6862
v -20.4719 504.488 -19.2752
v -20.4719 504.534 -18.8746
v -20.4819 504.488 -18.8746
v -20.4707 504.395 -19.6862
v -20.4922 504.395 -18.8261
v -20.4707 500.223 -19.6862
v -20.4922 500.223 -18.8261
v -20.4819 500.13 -18.8746
v -20.4719 500.13 -19.2752
v -20.4719 500.084 -18.8746
v 6.41803 500.001 -9.69543
v 6.45494 500.018 -9.69543
v 6.45494 500.018 -9.26717
v 6.41803 500.001 -9.26717
v 5.98977 500.001 -9.69543
v 5.98977 500.001 -9.26717
v 5.95286 500.018 -9.26717
v 5.95286 500.018 -9.69543
v 5.98977 502.999 -9.69543
v 5.95286 502.982 -9.69543
v 5.95286 502.982 -9.26717
v 5.98977 502.999 -9.26717
v 6.41803 502.999 -9.26717
v 6.41803 502.999 -9.69543
v 6.45494 502.982 -9.69543
v 6.45494 502.982 -9.26717
v 6.4573 502.96 -9.2279
v 6.45494 502.982 -9.26717
v 6.41803 502.999 -9.26717
v 6.41803 502.982 -9.23026
v 6.4573 502.949 -9.21787
v 5.98977 502.999 -9.26717
v 5.95286 502.982 -9.26717
v 5.9505 502.96 -9.2279
v 5.98977 502.982 -9.23026
v 5.9505 502.949 -9.21787
v 6.41803 502.946 -9.19785
v 5.98977 502.946 -9.19785
v 6.41803 502.905 -9.18257
v 6.45494 502.905 -9.19785
v 5.98977 502.905 -9.18257
v 5.95286 502.905 -9.19785
v 5.95286 500.095 -9.19785
v 6.41803 500.095 -9.18257
v 6.45494 500.095 -9.19785
v 5.98977 500.095 -9.18257
v 6.4573 500.051 -9.21787
v 5.9505 500.051 -9.21787
v 6.41803 500.054 -9.19785
v 5.98977 500.054 -9.19785
v 6.41803 500.018 -9.23026
v 6.4573 500.04 -9.2279
v 5.98977 500.018 -9.23026
v 5.9505 500.04 -9.2279
v 6.41803 500.001 -9.26717
v 6.45494 500.018 -9.26717
v 5.98977 500.001 -9.26717
v 5.95286 500.018 -9.26717
v 6.45494 500.018 -9.69543
v 6.41803 500.001 -9.69543
v 6.4573 500.04 -9.7347
v 6.41803 500.018 -9.73234
v 6.4573 500.051 -9.74473
v 5.98977 500.001 -9.69543
v 5.95286 500.018 -9.69543
v 5.9505 500.04 -9.7347
v 5.98977 500.018 -9.73234
v 5.9505 500.051 -9.74473
v 6.41803 500.054 -9.76475
v 5.98977 500.054 -9.76475
v 6.41803 500.095 -9.78004
v 6.45494 500.095 -9.76475
v 5.98977 500.095 -9.78004
v 5.95286 500.095 -9.76475
v 5.95286 502.905 -9.76475
v 6.41803 502.905 -9.78004
v 6.45494 502.905 -9.76475
v 5.98977 502.905 -9.78004
v 5.9505 502.949 -9.74473
v 6.4573 502.949 -9.74473
v 5.98977 502.946 -9.76475
v 6.41803 502.946 -9.76475
v 5.9505 502.96 -9.7347
v 6.41803 502.982 -9.73234
v 6.4573 502.96 -9.7347
v 5.98977 502.982 -9.73234
v 5.95286 502.982 -9.69543
v 5.98977 502.999 -9.69543
v 6.41803 502.999 -9.69543
v 6.45494 502.982 -9.69543
v 6.4573 502.949 -9.74473
v 6.4573 502.96 -9.7347
v 6.46733 502.949 -9.7347
v 6.45494 502.905 -9.76475
v 6.45494 502.982 -9.69543
v 6.48735 502.905 -9.73234
v 6.45494 500.095 -9.76475
v 6.48735 502.946 -9.69543
v 6.45494 502.982 -9.26717
v 6.50264 502.905 -9.69543
v 6.48735 502.946 -9.26717
v 6.46733 502.949 -9.2279
v 6.4573 502.96 -9.2279
v 6.4573 502.949 -9.21787
v 6.50264 502.905 -9.26717
v 6.48735 502.905 -9.23026
v 6.45494 502.905 -9.19785
v 6.45494 500.095 -9.19785
v 6.48735 500.095 -9.23026
v 6.50264 500.095 -9.69543
v 6.50264 500.095 -9.26717
v 6.46733 500.051 -9.2279
v 6.4573 500.051 -9.21787
v 6.4573 500.04 -9.2279
v 6.45494 500.018 -9.26717
v 6.48735 500.054 -9.26717
v 6.45494 500.018 -9.69543
v 6.48735 500.054 -9.69543
v 6.46733 500.051 -9.7347
v 6.4573 500.04 -9.7347
v 6.4573 500.051 -9.74473
v 6.48735 500.095 -9.73234
v 5.94047 502.949 -9.2279
v 5.9505 502.949 -9.21787
v 5.9505 502.96 -9.2279
v 5.95286 502.982 -9.26717
v 5.95286 502.905 -9.19785
v 5.92045 502.946 -9.26717
v 5.95286 502.982 -9.69543
v 5.92045 502.905 -9.23026
v 5.92045 502.946 -9.69543
v 5.90516 502.905 -9.26717
v 5.94047 502.949 -9.7347
v 5.9505 502.96 -9.7347
v 5.9505 502.949 -9.74473
v 5.90516 502.905 -9.69543
v 5.92045 502.905 -9.73234
v 5.95286 502.905 -9.76475
v 5.95286 500.095 -9.76475
v 5.92045 500.095 -9.73234
v 5.9505 500.051 -9.74473
v 5.90516 500.095 -9.69543
v 5.94047 500.051 -9.7347
v 5.9505 500.04 -9.7347
v 5.95286 500.018 -9.69543
v 5.92045 500.054 -9.69543
v 5.95286 500.018 -9.26717
v 5.92045 500.054 -9.26717
v 5.90516 500.095 -9.26717
v 5.94047 500.051 -9.2279
v 5.9505 500.04 -9.2279
v 5.9505 500.051 -9.21787
v 5.92045 500.095 -9.23026
v 5.95286 500.095 -9.19785
v -8.65257 500.001 -9.04053
v -8.61566 500.018 -9.04053
v -8.61566 500.018 -8.61227
v -8.65257 500.001 -8.61227
v -9.08083 500.001 -9.04053
v -9.08083 500.001 -8.61227
v -9.11774 500.018 -8.61227
v -9.11774 500.018 -9.04053
v -9.08083 502.999 -9.04053
v -9.11774 502.982 -9.04053
v -9.11774 502.982 -8.61227
v -9.08083 502.999 -8.61227
v -8.65257 502.999 -8.61227
v -8.65257 502.999 -9.04053
v -8.61566 502.982 -9.04053
v -8.61566 502.982 -8.61227
v -8.6133 502.96 -8.573
v -8.61566 502.982 -8.61227
v -8.65257 502.999 -8.61227
v -8.65257 502.982 -8.57536
v -8.6133 502.949 -8.56297
v -9.08083 502.999 -8.61227
v -9.11774 502.982 -8.61227
v -9.1201 502.96 -8.573
v -9.08083 502.982 -8.57536
v -9.1201 502.949 -8.56297
v -8.65257 502.946 -8.54295
v -9.08083 502.946 -8.54295
v -8.65257 502.905 -8.52767
v -8.61566 502.905 -8.54295
v -9.08083 502.905 -8.52767
v -9.11774 502.905 -8.54295
v -9.11774 500.095 -8.54295
v -8.65257 500.095 -8.52767
v -8.61566 500.095 -8.54295
v -9.08083 500.095 -8.52767
v -8.6133 500.051 -8.56297
v -9.1201 500.051 -8.56297
v -8.65257 500.054 -8.54295
v -9.08083 500.054 -8.54295
v -8.65257 500.018 -8.57536
v -8.6133 500.04 -8.573
v -9.08083 500.018 -8.57536
v -9.1201 500.04 -8.573
v -8.65257 500.001 -8.61227
v -8.61566 500.018 -8.61227
v -9.08083 500.001 -8.61227
v -9.11774 500.018 -8.61227
v -8.61566 500.018 -9.04053
v -8.65257 500.001 -9.04053
v -8.6133 500.04 -9.0798
v -8.65257 500.018 -9.07744
v -8.6133 500.051 -9.08983
v -9.08083 500.001 -9.04053
v -9.11774 500.018 -9.04053
v -9.1201 500.04 -9.0798
v -9.08083 500.018 -9.07744
v -9.1201 500.051 -9.08983
v -8.65257 500.054 -9.10985
v -9.08083 500.054 -9.10985
v -8.65257 500.095 -9.12513
v -8.61566 500.095 -9.10985
v -9.08083 500.095 -9.12513
v -9.11774 500.095 -9.10985
v -9.11774 502.905 -9.10985
v -8.65257 502.905 -9.12513
v -8.61566 502.905 -9.10985
v -9.08083 502.905 -9.12513
v -9.1201 502.949 -9.08983
v -8.6133 502.949 -9.08983
v -9.08083 502.946 -9.10985
v -8.65257 502.946 -9.10985
v -9.1201 502.96 -9.0798
v -8.65257 502.982 -9.07744
v -8.6133 502.96 -9.0798
v -9.08083 502.982 -9.07744
v -9.11774 502.982 -9.04053
v -9.08083 502.999 -9.04053
v -8.65257 502.999 -9.04053
v -8.61566 502.982 -9.04053
v -8.6133 502.949 -9.08983
v -8.6133 502.96 -9.0798
v -8.60327 502.949 -9.0798
v -8.61566 502.905 -9.10985
v -8.61566 502.982 -9.04053
v -8.58325 502.905 -9.07744
v -8.61566 500.095 -9.10985
v -8.58325 502.946 -9.04053
v -8.61566 502.982 -8.61227
v -8.56797 502.905 -9.04053
v -8.58325 502.946 -8.61227
v -8.60327 502.949 -8.573
v -8.6133 502.96 -8.573
v -8.6133 502.949 -8.56297
v -8.56797 502.905 -8.61227
v -8.58325 502.905 -8.57536
v -8.61566 502.905 -8.54295
v -8.61566 500.095 -8.54295
v -8.58325 500.095 -8.57536
v -8.56797 500.095 -9.04053
v -8.56797 500.095 -8.61227
v -8.60327 500.051 -8.573
v -8.6133 500.051 -8.56297
v -8.6133 500.04 -8.573
v -8.61566 500.018 -8.61227
v -8.58325 500.054 -8.61227
v -8.61566 500.018 -9.04053
v -8.58325 500.054 -9.04053
v -8.60327 500.051 -9.0798
v -8.6133 500.04 -9.0798
v -8.6133 500.051 -9.08983
v -8.58325 500.095 -9.07744
v -9.13013 502.949 -8.573
v -9.1201 502.949 -8.56297
v -9.1201 502.96 -8.573
v -9.11774 502.982 -8.61227
v -9.11774 502.905 -8.54295
v -9.15015 502.946 -8.61227
v -9.11774 502.982 -9.04053
v -9.15015 502.905 -8.57536
v -9.15015 502.946 -9.04053
v -9.16543 502.905 -8.61227
v -9.13013 502.949 -9.0798
v -9.1201 502.96 -9.0798
v -9.1201 502.949 -9.08983
v -9.16543 502.905 -9.04053
v -9.15015 502.905 -9.07744
v -9.11774 502.905 -9.10985
v -9.11774 500.095 -9.10985
v -9.15015 500.095 -9.07744
v -9.1201 500.051 -9.08983
v -9.16543 500.095 -9.04053
v -9.13013 500.051 -9.0798
v -9.1201 500.04 -9.0798
v -9.11774 500.018 -9.04053
v -9.15015 500.054 -9.04053
v -9.11774 500.018 -8.61227
v -9.15015 500.054 -8.61227
v -9.16543 500.095 -8.61227
v -9.13013 500.051 -8.573
v -9.1201 500.04 -8.573
v -9.1201 500.051 -8.56297
v -9.15015 500.095 -8.57536
v -9.11774 500.095 -8.54295
v 10.6573 500.001 7.39097
v 10.6942 500.018 7.39097
v 10.6942 500.018 7.81923
v 10.6573 500.001 7.81923
v 10.2291 500.001 7.39097
v 10.2291 500.001 7.81923
v 10.1922 500.018 7.81923
v 10.1922 500.018 7.39097
v 10.2291 502.999 7.39097
v 10.1922 502.982 7.39097
v 10.1922 502.982 7.81923
v 10.2291 502.999 7.81923
v 10.6573 502.999 7.81923
v 10.6573 502.999 7.39097
v 10.6942 502.982 7.39097
v 10.6942 502.982 7.81923
v 10.6966 502.96 7.8585
v 10.6942 502.982 7.81923
v 10.6573 502.999 7.81923
v 10.6573 502.982 7.85614
v 10.6966 502.949 7.86853
v 10.2291 502.999 7.81923
v 10.1922 502.982 7.81923
v 10.1898 502.96 7.8585
v 10.2291 502.982 7.85614
v 10.1898 502.949 7.86853
v 10.6573 502.946 7.88855
v 10.2291 502.946 7.88855
v 10.6573 502.905 7.90384
v 10.6942 502.905 7.88855
v 10.2291 502.905 7.90384
v 10.1922 502.905 7.88855
v 10.1922 500.095 7.88855
v 10.6573 500.095 7.90384
v 10.6942 500.095 7.88855
v 10.2291 500.095 7.90384
v 10.6966 500.051 7.86853
v 10.1898 500.051 7.86853
v 10.6573 500.054 7.88855
v 10.2291 500.054 7.88855
v 10.6573 500.018 7.85614
v 10.6966 500.04 7.8585
v 10.2291 500.018 7.85614
v 10.1898 500.04 7.8585
v 10.6573 500.001 7.81923
v 10.6942 500.018 7.81923
v 10.2291 500.001 7.81923
v 10.1922 500.018 7.81923
v 10.6942 500.018 7.39097
v 10.6573 500.001 7.39097
v 10.6966 500.04 7.3517
v 10.6573 500.018 7.35406
v 10.6966 500.051 7.34167
v 10.2291 500.001 7.39097
v 10.1922 500.018 7.39097
v 10.1898 500.04 7.3517
v 10.2291 500.018 7.35406
v 10.1898 500.051 7.34167
v 10.6573 500.054 7.32165
v 10.2291 500.054 7.32165
v 10.6573 500.095 7.30637
v 10.6942 500.095 7.32165
v 10.2291 500.095 7.30637
v 10.1922 500.095 7.32165
v 10.1922 502.905 7.32165
v 10.6573 502.905 7.30637
v 10.6942 502.905 7.32165
v 10.2291 502.905 7.30637
v 10.1898 502.949 7.34167
v 10.6966 502.949 7.34167
v 10.2291 502.946 7.32165
v 10.6573 502.946 7.32165
v 10.1898 502.96 7.3517
v 10.6573 502.982 7.35406
v 10.6966 502.96 7.3517
v 10.2291 502.982 7.35406
v 10.1922 502.982 7.39097
v 10.2291 502.999 7.39097
v 10.6573 502.999 7.39097
v 10.6942 502.982 7.39097
v 10.6966 502.949 7.34167
v 10.6966 502.96 7.3517
v 10.7066 502.949 7.3517
v 10.6942 502.905 7.32165
v 10.6942 502.982 7.39097
v 10.7266 502.905 7.35406
v 10.6942 500.095 7.32165
v 10.7266 502.946 7.39097
v 10.6942 502.982 7.81923
v 10.7419 502.905 7.39097
v 10.7266 502.946 7.81923
v 10.7066 502.949 7.8585
v 10.6966 502.96 7.8585
v 10.6966 502.949 7.86853
v 10.7419 502.905 7.81923
v 10.7266 502.905 7.85614
v 10.6942 502.905 7.88855
v 10.6942 500.095 7.88855
v 10.7266 500.095 7.85614
v 10.7419 500.095 7.39097
v 10.7419 500.095 7.81923
v 10.7066 500.051 7.8585
v 10.6966 500.051 7.86853
v 10.6966 500.04 7.8585
v 10.6942 500.018 7.81923
v 10.7266 500.054 7.81923
v 10.6942 500.018 7.39097
v 10.7266 500.054 7.39097
v 10.7066 500.051 7.3517
v 10.6966 500.04 7.3517
v 10.6966 500.051 7.34167
v 10.7266 500.095 7.35406
v 10.1798 502.949 7.8585
v 10.1898 502.949 7.86853
v 10.1898 502.96 7.8585
v 10.1922 502.982 7.81923
v 10.1922 502.905 7.88855
v 10.1598 502.946 7.81923
v 10.1922 502.982 7.39097
v 10.1598 502.905 7.85614
v 10.1598 502.946 7.39097
v 10.1445 502.905 7.81923
v 10.1798 502.949 7.3517
v 10.1898 502.96 7.3517
v 10.1898 502.949 7.34167
v 10.1445 502.905 7.39097
v 10.1598 502.905 7.35406
v 10.1922 502.905 7.32165
v 10.1922 500.095 7.32165
v 10.1598 500.095 7.35406
v 10.1898 500.051 7.34167
v 10.1445 500.095 7.39097
v 10.1798 500.051 7.3517
v 10.1898 500.04 7.3517
v 10.1922 500.018 7.39097
v 10.1598 500.054 7.39097
v 10.1922 500.018 7.81923
v 10.1598 500.054 7.81923
v 10.1445 500.095 7.81923
v 10.1798 500.051 7.8585
v 10.1898 500.04 7.8585
v 10.1898 500.051 7.86853
v 10.1598 500.095 7.85614
v 10.1922 500.095 7.88855
v -5.82897 500.001 7.55007
v -5.79206 500.018 7.55007
v -5.79206 500.018 7.97833
v -5.82897 500.001 7.97833
v -6.25723 500.001 7.55007
v -6.25723 500.001 7.97833
v -6.29414 500.018 7.97833
v -6.29414 500.018 7.55007
v -6.25723 502.999 7.55007
v -6.29414 502.982 7.55007
v -6.29414 502.982 7.97833
v -6.25723 502.999 7.97833
v -5.82897 502.999 7.97833
v -5.82897 502.999 7.55007
v -5.79206 502.982 7.55007
v -5.79206 502.982 7.97833
v -5.7897 502.96 8.0176
v -5.79206 502.982 7.97833
v -5.82897 502.999 7.97833
v -5.82897 502.982 8.01524
v -5.7897 502.949 8.02763
v -6.25723 502.999 7.97833
v -6.29414 502.982 7.97833
v -6.2965 502.96 8.0176
v -6.25723 502.982 8.01524
v -6.2965 502.949 8.02763
v -5.82897 502.946 8.04765
v -6.25723 502.946 8.04765
v -5.82897 502.905 8.06293
v -5.79206 502.905 8.04765
v -6.25723 502.905 8.06293
v -6.29414 502.905 8.04765
v -6.29414 500.095 8.04765
v -5.82897 500.095 8.06293
v -5.79206 500.095 8.04765
v -6.25723 500.095 8.06293
v -5.7897 500.051 8.02763
v -6.2965 500.051 8.02763
v -5.82897 500.054 8.04765
v -6.25723 500.054 8.04765
v -5.82897 500.018 8.01524
v -5.7897 500.04 8.0176
v -6.25723 500.018 8.01524
v -6.2965 500.04 8.0176
v -5.82897 500.001 7.97833
v -5.79206 500.018 7.97833
v -6.25723 500.001 7.97833
v -6.29414 500.018 7.97833
v -5.79206 500.018 7.55007
v -5.82897 500.001 7.55007
v -5.7897 500.04 7.5108
v -5.82897 500.018 7.51316
v -5.7897 500.051 7.50077
v -6.25723 500.001 7.55007
v -6.29414 500.018 7.55007
v -6.2965 500.04 7.5108
v -6.25723 500.018 7.51316
v -6.2965 500.051 7.50077
v -5.82897 500.054 7.48075
v -6.25723 500.054 7.48075
v -5.82897 500.095 7.46547
v -5.79206 500.095 7.48075
v -6.25723 500.095 7.46547
v -6.29414 500.095 7.48075
v -6.29414 502.905 7.48075
v -5.82897 502.905 7.46547
v -5.79206 502.905 7.48075
v -6.25723 502.905 7.46547
v -6.2965 502.949 7.50077
v -5.7897 502.949 7.50077
v -6.25723 502.946 7.48075
v -5.82897 502.946 7.48075
v -6.2965 502.96 7.5108
v -5.82897 502.982 7.51316
v -5.7897 502.96 7.5108
v -6.25723 502.982 7.51316
v -6.29414 502.982 7.55007
v -6.25723 502.999 7.55007
v -5.82897 502.999 7.55007
v -5.79206 502.982 7.55007
v -5.7897 502.949 7.50077
v -5.7897 502.96 7.5108
v -5.77967 502.949 7.5108
v -5.79206 502.905 7.48075
v -5.79206 502.982 7.55007
v -5.75965 502.905 7.51316
v -5.79206 500.095 7.48075
v -5.75965 502.946 7.55007
v -5.79206 502.982 7.97833
v -5.74436 502.905 7.55007
v -5.75965 502.946 7.97833
v -5.77967 502.949 8.0176
v -5.7897 502.96 8.0176
v -5.7897 502.949 8.02763
v -5.74436 502.905 7.97833
v -5.75965 502.905 8.01524
v -5.79206 502.905 8.04765
v -5.79206 500.095 8.04765
v -5.75965 500.095 8.01524
v -5.74436 500.095 7.55007
v -5.74436 500.095 7.97833
v -5.77967 500.051 8.0176
v -5.7897 500.051 8.02763
v -5.7897 500.04 8.0176
v -5.79206 500.018 7.97833
v -5.75965 500.054 7.97833
v -5.79206 500.018 7.55007
v -5.75965 500.054 7.55007
v -5.77967 500.051 7.5108
v -5.7897 500.04 7.5108
v -5.7897 500.051 7.50077
v -5.75965 500.095 7.51316
v -6.30653 502.949 8.0176
v -6.2965 502.949 8.02763
v -6.2965 502.96 8.0176
v -6.29414 502.982 7.97833
v -6.29414 502.905 8.04765
v -6.32655 502.946 7.97833
v -6.29414 502.982 7.55007
v -6.32655 502.905 8.01524
v -6.32655 502.946 7.55007
v -6.34184 502.905 7.97833
v -6.30653 502.949 7.5108
v -6.2965 502.96 7.5108
v -6.2965 502.949 7.50077
v -6.34184 502.905 7.55007
v -6.32655 502.905 7.51316
v -6.29414 502.905 7.48075
v -6.29414 500.095 7.48075
v -6.32655 500.095 7.51316
v -6.2965 500.051 7.50077
v -6.34184 500.095 7.55007
v -6.30653 500.051 7.5108
v -6.2965 500.04 7.5108
v -6.29414 500.018 7.55007
v -6.32655 500.054 7.55007
v -6.29414 500.018 7.97833
v -6.32655 500.054 7.97833
v -6.34184 500.095 7.97833
v -6.30653 500.051 8.0176
v -6.2965 500.04 8.0176
v -6.2965 500.051 8.02763
v -6.32655 500.095 8.01524
v -6.29414 500.095 8.04765
f 72 70 3
f 70 4 3
f 70 68 4
f 3 4 6
f 7 3 6
f 68 8 4
f 6 4 8
f 68 9 10
f 8 68 10
f 8 10 11
f 11 6 8
f 10 131 11
f 6 13 7
f 13 14 7
f 14 13 84
f 6 11 16
f 16 11 131
f 13 6 16
f 133 16 131
f 133 18 16
f 13 19 84
f 13 16 19
f 84 19 85
f 18 21 16
f 16 21 19
f 19 22 85
f 19 21 22
f 23 21 18
f 21 23 22
f 24 23 18
f 85 22 25
f 25 22 23
f 26 85 25
f 27 23 24
f 27 25 23
f 28 27 24
f 27 28 108
f 25 30 26
f 30 25 27
f 30 31 26
f 93 31 30
f 33 93 30
f 34 27 108
f 34 30 27
f 30 34 33
f 34 108 107
f 34 36 33
f 36 34 107
f 36 107 39
f 40 36 39
f 40 41 36
f 41 33 36
f 33 41 93
f 41 94 93
f 40 39 45
f 39 109 45
f 47 41 40
f 94 41 47
f 45 47 40
f 96 94 47
f 96 47 49
f 47 50 49
f 47 45 50
f 49 50 101
f 52 45 109
f 45 52 50
f 53 52 109
f 53 117 52
f 50 55 101
f 50 52 55
f 117 56 52
f 52 56 55
f 55 57 101
f 57 55 56
f 57 102 101
f 59 56 117
f 59 57 56
f 121 59 117
f 102 57 61
f 61 57 59
f 103 102 61
f 63 59 121
f 63 61 59
f 64 63 121
f 63 64 124
f 66 63 124
f 63 66 61
f 66 124 9
f 68 66 9
f 66 69 61
f 69 66 68
f 61 69 103
f 70 69 68
f 69 71 103
f 70 72 69
f 72 71 69
f 72 3 75
f 3 7 75
f 71 72 75
f 7 78 75
f 78 7 14
f 80 71 75
f 81 78 14
f 78 82 75
f 82 78 81
f 82 80 75
f 81 14 83
f 14 84 83
f 85 83 84
f 85 26 83
f 81 83 87
f 87 82 81
f 26 88 83
f 83 88 87
f 88 26 31
f 87 88 90
f 90 88 31
f 87 91 82
f 91 87 90
f 90 31 92
f 91 90 92
f 31 93 92
f 93 94 92
f 95 92 94
f 95 91 92
f 96 95 94
f 96 49 95
f 91 95 98
f 49 98 95
f 91 99 82
f 99 91 98
f 82 99 80
f 98 49 100
f 98 100 99
f 49 101 100
f 102 100 101
f 102 103 100
f 99 104 80
f 100 104 99
f 103 104 100
f 71 80 104
f 103 71 104
f 105 39 107
f 107 108 105
f 109 39 105
f 108 110 105
f 108 28 110
f 112 109 105
f 28 113 110
f 114 112 105
f 110 114 105
f 112 115 109
f 115 112 114
f 115 53 109
f 53 115 117
f 118 114 110
f 113 118 110
f 119 115 114
f 119 114 118
f 115 120 117
f 120 115 119
f 117 120 121
f 64 121 120
f 123 64 120
f 123 120 119
f 64 123 124
f 119 125 123
f 125 119 118
f 123 126 124
f 125 126 123
f 124 126 127
f 127 126 125
f 9 124 127
f 127 10 9
f 130 127 125
f 127 130 10
f 125 118 130
f 130 131 10
f 131 130 132
f 118 132 130
f 133 131 132
f 133 132 18
f 135 132 118
f 132 135 18
f 113 135 118
f 18 135 24
f 113 28 135
f 28 24 135
f 208 206 139
f 206 140 139
f 206 204 140
f 139 140 142
f 143 139 142
f 204 144 140
f 142 140 144
f 204 145 146
f 144 204 146
f 144 146 147
f 147 142 144
f 146 267 147
f 142 149 143
f 149 150 143
f 150 149 220
f 142 147 152
f 152 147 267
f 149 142 152
f 269 152 267
f 269 154 152
f 149 155 220
f 149 152 155
f 220 155 221
f 154 157 152
f 152 157 155
f 155 158 221
f 155 157 158
f 159 157 154
f 157 159 158
f 160 159 154
f 221 158 161
f 161 158 159
f 162 221 161
f 163 159 160
f 163 161 159
f 164 163 160
f 163 164 244
f 161 166 162
f 166 161 163
f 166 167 162
f 229 167 166
f 169 229 166
f 170 163 244
f 170 166 163
f 166 170 169
f 170 244 243
f 170 172 169
f 172 170 243
f 172 243 175
f 176 172 175
f 176 177 172
f 177 169 172
f 169 177 229
f 177 230 229
f 176 175 181
f 175 245 181
f 183 177 176
f 230 177 183
f 181 183 176
f 232 230 183
f 232 183 185
f 183 186 185
f 183 181 186
f 185 186 237
f 188 181 245
f 181 188 186
f 189 188 245
f 189 253 188
f 186 191 237
f 186 188 191
f 253 192 188
f 188 192 191
f 191 193 237
f 193 191 192
f 193 238 237
f 195 192 253
f 195 193 192
f 257 195 253
f 238 193 197
f 197 193 195
f 239 238 197
f 199 195 257
f 199 197 195
f 200 199 257
f 199 200 260
f 202 199 260
f 199 202 197
f 202 260 145
f 204 202 145
f 202 205 197
f 205 202 204
f 197 205 239
f 206 205 204
f 205 207 239
f 206 208 205
f 208 207 205
f 208 139 211
f 139 143 211
f 207 208 211
f 143 214 211
f 214 143 150
f 216 207 211
f 217 214 150
f 214 218 211
f 218 214 217
f 218 216 211
f 217 150 219
f 150 220 219
f 221 219 220
f 221 162 219
f 217 219 223
f 223 218 217
f 162 224 219
f 219 224 223
f 224 162 167
f 223 224 226
f 226 224 167
f 223 227 218
f 227 223 226
f 226 167 228
f 227 226 228
f 167 229 228
f 229 230 228
f 231 228 230
f 231 227 228
f 232 231 230
f 232 185 231
f 227 231 234
f 185 234 231
f 227 235 218
f 235 227 234
f 218 235 216
f 234 185 236
f 234 236 235
f 185 237 236
f 238 236 237
f 238 239 236
f 235 240 216
f 236 240 235
f 239 240 236
f 207 216 240
f 239 207 240
f 241 175 243
f 243 244 241
f 245 175 241
f 244 246 241
f 244 164 246
f 248 245 241
f 164 249 246
f 250 248 241
f 246 250 241
f 248 251 245
f 251 248 250
f 251 189 245
f 189 251 253
f 254 250 246
f 249 254 246
f 255 251 250
f 255 250 254
f 251 256 253
f 256 251 255
f 253 256 257
f 200 257 256
f 259 200 256
f 259 256 255
f 200 259 260
f 255 261 259
f 261 255 254
f 259 262 260
f 261 262 259
f 260 262 263
f 263 262 261
f 145 260 263
f 263 146 145
f 266 263 261
f 263 266 146
f 261 254 266
f 266 267 146
f 267 266 268
f 254 268 266
f 269 267 268
f 269 268 154
f 271 268 254
f 268 271 154
f 249 271 254
f 154 271 160
f 249 164 271
f 164 160 271
f 344 342 275
f 342 276 275
f 342 340 276
f 275 276 278
f 279 275 278
f 340 280 276
f 278 276 280
f 340 281 282
f 280 340 282
f 280 282 283
f 283 278 280
f 282 403 283
f 278 285 279
f 285 286 279
f 286 285 356
f 278 283 288
f 288 283 403
f 285 278 288
f 405 288 403
f 405 290 288
f 285 291 356
f 285 288 291
f 356 291 357
f 290 293 288
f 288 293 291
f 291 294 357
f 291 293 294
f 295 293 290
f 293 295 294
f 296 295 290
f 357 294 297
f 297 294 295
f 298 357 297
f 299 295 296
f 299 297 295
f 300 299 296
f 299 300 380
f 297 302 298
f 302 297 299
f 302 303 298
f 365 303 302
f 305 365 302
f 306 299 380
f 306 302 299
f 302 306 305
f 306 380 379
f 306 308 305
f 308 306 379
f 308 379 311
f 312 308 311
f 312 313 308
f 313 305 308
f 305 313 365
f 313 366 365
f 312 311 317
f 311 381 317
f 319 313 312
f 366 313 319
f 317 319 312
f 368 366 319
f 368 319 321
f 319 322 321
f 319 317 322
f 321 322 373
f 324 317 381
f 317 324 322
f 325 324 381
f 325 389 324
f 322 327 373
f 322 324 327
f 389 328 324
f 324 328 327
f 327 329 373
f 329 327 328
f 329 374 373
f 331 328 389
f 331 329 328
f 393 331 389
f 374 329 333
f 333 329 331
f 375 374 333
f 335 331 393
f 335 333 331
f 336 335 393
f 335 336 396
f 338 335 396
f 335 338 333
f 338 396 281
f 340 338 281
f 338 341 333
f 341 338 340
f 333 341 375
f 342 341 340
f 341 343 375
f 342 344 341
f 344 343 341
f 344 275 347
f 275 279 347
f 343 344 347
f 279 350 347
f 350 279 286
f 352 343 347
f 353 350 286
f 350 354 347
f 354 350 353
f 354 352 347
f 353 286 355
f 286 356 355
f 357 355 356
f 357 298 355
f 353 355 359
f 359 354 353
f 298 360 355
f 355 360 359
f 360 298 303
f 359 360 362
f 362 360 303
f 359 363 354
f 363 359 362
f 362 303 364
f 363 362 364
f 303 365 364
f 365 366 364
f 367 364 366
f 367 363 364
f 368 367 366
f 368 321 367
f 363 367 370
f 321 370 367
f 363 371 354
f 371 363 370
f 354 371 352
f 370 321 372
f 370 372 371
f 321 373 372
f 374 372 373
f 374 375 372
f 371 376 352
f 372 376 371
f 375 376 372
f 343 352 376
f 375 343 376
f 377 311 379
f 379 380 377
f 381 311 377
f 380 382 377
f 380 300 382
f 384 381 377
f 300 385 382
f 386 384 377
f 382 386 377
f 384 387 381
f 387 384 386
f 387 325 381
f 325 387 389
f 390 386 382
f 385 390 382
f 391 387 386
f 391 386 390
f 387 392 389
f 392 387 391
f 389 392 393
f 336 393 392
f 395 336 392
f 395 392 391
f 336 395 396
f 391 397 395
f 397 391 390
f 395 398 396
f 397 398 395
f 396 398 399
f 399 398 397
f 281 396 399
f 399 282 281
f 402 399 397
f 399 402 282
f 397 390 402
f 402 403 282
f 403 402 404
f 390 404 402
f 405 403 404
f 405 404 290
f 407 404 390
f 404 407 290
f 385 407 390
f 290 407 296
f 385 300 407
f 300 296 407
f 480 478 411
f 478 412 411
f 478 476 412
f 411 412 414
f 415 411 414
f 476 416 412
f 414 412 416
f 476 417 418
f 416 476 418
f 416 418 419
f 419 414 416
f 418 539 419
f 414 421 415
f 421 422 415
f 422 421 492
f 414 419 424
f 424 419 539
f 421 414 424
f 541 424 539
f 541 426 424
f 421 427 492
f 421 424 427
f 492 427 493
f 426 429 424
f 424 429 427
f 427 430 493
f 427 429 430
f 431 429 426
f 429 431 430
f 432 431 426
f 493 430 433
f 433 430 431
f 434 493 433
f 435 431 432
f 435 433 431
f 436 435 432
f 435 436 516
f 433 438 434
f 438 433 435
f 438 439 434
f 501 439 438
f 441 501 438
f 442 435 516
f 442 438 435
f 438 442 441
f 442 516 515
f 442 444 441
f 444 442 515
f 444 515 447
f 448 444 447
f 448 449 444
f 449 441 444
f 441 449 501
f 449 502 501
f 448 447 453
f 447 517 453
f 455 449 448
f 502 449 455
f 453 455 448
f 504 502 455
f 504 455 457
f 455 458 457
f 455 453 458
f 457 458 509
f 460 453 517
f 453 460 458
f 461 460 517
f 461 525 460
f 458 463 509
f 458 460 463
f 525 464 460
f 460 464 463
f 463 465 509
f 465 463 464
f 465 510 509
f 467 464 525
f 467 465 464
f 529 467 525
f 510 465 469
f 469 465 467
f 511 510 469
f 471 467 529
f 471 469 467
f 472 471 529
f 471 472 532
f 474 471 532
f 471 474 469
f 474 532 417
f 476 474 417
f 474 477 469
f 477 474 476
f 469 477 511
f 478 477 476
f 477 479 511
f 478 480 477
f 480 479 477
f 480 411 483
f 411 415 483
f 479 480 483
f 415 486 483
f 486 415 422
f 488 479 483
f 489 486 422
f 486 490 483
f 490 486 489
f 490 488 483
f 489 422 491
f 422 492 491
f 493 491 492
f 493 434 491
f 489 491 495
f 495 490 489
f 434 496 491
f 491 496 495
f 496 434 439
f 495 496 498
f 498 496 439
f 495 499 490
f 499 495 498
f 498 439 500
f 499 498 500
f 439 501 500
f 501 502 500
f 503 500 502
f 503 499 500
f 504 503 502
f 504 457 503
f 499 503 506
f 457 506 503
f 499 507 490
f 507 499 506
f 490 507 488
f 506 457 508
f 506 508 507
f 457 509 508
f 510 508 509
f 510 511 508
f 507 512 488
f 508 512 507
f 511 512 508
f 479 488 512
f 511 479 512
f 513 447 515
f 515 516 513
f 517 447 513
f 516 518 513
f 516 436 518
f 520 517 513
f 436 521 518
f 522 520 513
f 518 522 513
f 520 523 517
f 523 520 522
f 523 461 517
f 461 523 525
f 526 522 518
f 521 526 518
f 527 523 522
f 527 522 526
f 523 528 525
f 528 523 527
f 525 528 529
f 472 529 528
f 531 472 528
f 531 528 527
f 472 531 532
f 527 533 531
f 533 527 526
f 531 534 532
f 533 534 531
f 532 534 535
f 535 534 533
f 417 532 535
f 535 418 417
f 538 535 533
f 535 538 418
f 533 526 538
f 538 539 418
f 539 538 540
f 526 540 538
f 541 539 540
f 541 540 426
f 543 540 526
f 540 543 426
f 521 543 526
f 426 543 432
f 521 436 543
f 436 432 543
f 616 614 547
f 614 548 547
f 614 612 548
f 547 548 550
f 551 547 550
f 612 552 548
f 550 548 552
f 612 553 554
f 552 612 554
f 552 554 555
f 555 550 552
f 554 675 555
f 550 557 551
f 557 558 551
f 558 557 628
f 550 555 560
f 560 555 675
f 557 550 560
f 677 560 675
f 677 562 560
f 557 563 628
f 557 560 563
f 628 563 629
f 562 565 560
f 560 565 563
f 563 566 629
f 563 565 566
f 567 565 562
f 565 567 566
f 568 567 562
f 629 566 569
f 569 566 567
f 570 629 569
f 571 567 568
f 571 569 567
f 572 571 568
f 571 572 652
f 569 574 570
f 574 569 571
f 574 575 570
f 637 575 574
f 577 637 574
f 578 571 652
f 578 574 571
f 574 578 577
f 578 652 651
f 578 580 577
f 580 578 651
f 580 651 583
f 584 580 583
f 584 585 580
f 585 577 580
f 577 585 637
f 585 638 637
f 584 583 589
f 583 653 589
f 591 585 584
f 638 585 591
f 589 591 584
f 640 638 591
f 640 591 593
f 591 594 593
f 591 589 594
f 593 594 645
f 596 589 653
f 589 596 594
f 597 596 653
f 597 661 596
f 594 599 645
f 594 596 599
f 661 600 596
f 596 600 599
f 599 601 645
f 601 599 600
f 601 646 645
f 603 600 661
f 603 601 600
f 665 603 661
f 646 601 605
f 605 601 603
f 647 646 605
f 607 603 665
f 607 605 603
f 608 607 665
f 607 608 668
f 610 607 668
f 607 610 605
f 610 668 553
f 612 610 553
f 610 613 605
f 613 610 612
f 605 613 647
f 614 613 612
f 613 615 647
f 614 616 613
f 616 615 613
f 616 547 619
f 547 551 619
f 615 616 619
f 551 622 619
f 622 551 558
f 624 615 619
f 625 622 558
f 622 626 619
f 626 622 625
f 626 624 619
f 625 558 627
f 558 628 627
f 629 627 628
f 629 570 627
f 625 627 631
f 631 626 625
f 570 632 627
f 627 632 631
f 632 570 575
f 631 632 634
f 634 632 575
f 631 635 626
f 635 631 634
f 634 575 636
f 635 634 636
f 575 637 636
f 637 638 636
f 639 636 638
f 639 635 636
f 640 639 638
f 640 593 639
f 635 639 642
f 593 642 639
f 635 643 626
f 643 635 642
f 626 643 624
f 642 593 644
f 642 644 643
f 593 645 644
f 646 644 645
f 646 647 644
f 643 648 624
f 644 648 643
f 647 648 644
f 615 624 648
f 647 615 648
f 649 583 651
f 651 652 649
f 653 583 649
f 652 654 649
f 652 572 654
f 656 653 649
f 572 657 654
f 658 656 649
f 654 658 649
f 656 659 653
f 659 656 658
f 659 597 653
f 597 659 661
f 662 658 654
f 657 662 654
f 663 659 658
f 663 658 662
f 659 664 661
f 664 659 663
f 661 664 665
f 608 665 664
f 667 608 664
f 667 664 663
f 608 667 668
f 663 669 667
f 669 663 662
f 667 670 668
f 669 670 667
f 668 670 671
f 671 670 669
f 553 668 671
f 671 554 553
f 674 671 669
f 671 674 554
f 669 662 674
f 674 675 554
f 675 674 676
f 662 676 674
f 677 675 676
f 677 676 562
f 679 676 662
f 676 679 562
f 657 679 662
f 562 679 568
f 657 572 679
f 572 568 679
f 681 729 785
f 684 681 785
f 734 681 684
f 727 734 684
f 734 727 817
f 735 734 817
f 758 799 703
f 702 758 703
f 702 699 758
f 699 694 758
f 694 699 765
f 699 769 765
f 773 769 699
f 700 773 699
f 773 700 774
f 699 702 700
f 702 703 795
f 705 702 795
f 702 705 700
f 705 795 794
f 700 707 774
f 700 705 707
f 708 705 794
f 705 708 707
f 707 709 774
f 709 707 708
f 709 777 774
f 708 794 711
f 711 709 708
f 794 712 711
f 711 712 824
f 709 714 777
f 709 711 714
f 714 715 777
f 716 711 824
f 711 716 714
f 717 715 714
f 824 718 716
f 719 717 714
f 714 716 719
f 718 720 716
f 716 720 719
f 719 721 717
f 721 719 720
f 721 722 717
f 723 720 718
f 723 721 720
f 724 723 718
f 721 684 722
f 721 723 684
f 684 785 722
f 723 727 684
f 727 723 724
f 817 727 724
f 729 681 790
f 681 732 790
f 790 732 791
f 681 734 732
f 734 735 814
f 737 734 814
f 734 737 732
f 737 814 738
f 732 739 791
f 732 737 739
f 740 737 738
f 737 740 739
f 791 739 741
f 741 739 740
f 767 791 741
f 740 738 743
f 743 741 740
f 738 744 743
f 743 744 808
f 741 746 767
f 746 741 743
f 746 747 767
f 748 743 808
f 748 746 743
f 748 808 805
f 761 747 746
f 751 748 805
f 746 748 752
f 752 761 746
f 748 751 752
f 751 805 753
f 752 754 761
f 754 752 751
f 754 755 761
f 756 751 753
f 756 754 751
f 753 799 758
f 756 753 758
f 758 694 756
f 694 754 756
f 755 754 694
f 765 755 694
f 761 755 763
f 747 761 763
f 755 765 763
f 766 747 763
f 747 766 767
f 765 768 763
f 765 769 768
f 768 770 763
f 770 766 763
f 769 771 768
f 770 768 771
f 771 769 772
f 769 773 772
f 772 773 774
f 775 770 771
f 771 772 775
f 776 772 774
f 772 776 775
f 777 776 774
f 777 715 776
f 775 776 779
f 715 779 776
f 770 775 780
f 770 780 766
f 781 775 779
f 775 781 780
f 779 715 782
f 779 782 781
f 715 717 782
f 782 717 722
f 722 785 782
f 785 786 782
f 782 786 781
f 785 729 786
f 781 786 788
f 729 788 786
f 780 781 788
f 788 729 789
f 788 789 780
f 729 790 789
f 791 789 790
f 791 767 789
f 789 792 780
f 767 792 789
f 780 792 766
f 766 792 767
f 793 794 795
f 795 703 793
f 712 794 793
f 703 798 793
f 703 799 798
f 800 712 793
f 799 801 798
f 793 798 802
f 802 798 801
f 800 793 802
f 801 799 803
f 799 753 803
f 803 753 805
f 801 803 806
f 806 802 801
f 807 803 805
f 803 807 806
f 808 807 805
f 808 744 807
f 744 810 807
f 806 807 810
f 810 744 738
f 812 806 810
f 802 806 812
f 813 810 738
f 810 813 812
f 813 738 814
f 814 735 813
f 735 816 813
f 813 816 812
f 735 817 816
f 812 816 818
f 817 818 816
f 819 802 812
f 819 812 818
f 802 819 800
f 818 817 820
f 819 818 820
f 817 724 820
f 724 718 820
f 819 823 800
f 823 819 820
f 823 820 718
f 712 800 823
f 824 823 718
f 824 712 823
f 825 873 929
f 828 825 929
f 878 825 828
f 871 878 828
f 878 871 961
f 879 878 961
f 902 943 847
f 846 902 847
f 846 843 902
f 843 838 902
f 838 843 909
f 843 913 909
f 917 913 843
f 844 917 843
f 917 844 918
f 843 846 844
f 846 847 939
f 849 846 939
f 846 849 844
f 849 939 938
f 844 851 918
f 844 849 851
f 852 849 938
f 849 852 851
f 851 853 918
f 853 851 852
f 853 921 918
f 852 938 855
f 855 853 852
f 938 856 855
f 855 856 968
f 853 858 921
f 853 855 858
f 858 859 921
f 860 855 968
f 855 860 858
f 861 859 858
f 968 862 860
f 863 861 858
f 858 860 863
f 862 864 860
f 860 864 863
f 863 865 861
f 865 863 864
f 865 866 861
f 867 864 862
f 867 865 864
f 868 867 862
f 865 828 866
f 865 867 828
f 828 929 866
f 867 871 828
f 871 867 868
f 961 871 868
f 873 825 934
f 825 876 934
f 934 876 935
f 825 878 876
f 878 879 958
f 881 878 958
f 878 881 876
f 881 958 882
f 876 883 935
f 876 881 883
f 884 881 882
f 881 884 883
f 935 883 885
f 885 883 884
f 911 935 885
f 884 882 887
f 887 885 884
f 882 888 887
f 887 888 952
f 885 890 911
f 890 885 887
f 890 891 911
f 892 887 952
f 892 890 887
f 892 952 949
f 905 891 890
f 895 892 949
f 890 892 896
f 896 905 890
f 892 895 896
f 895 949 897
f 896 898 905
f 898 896 895
f 898 899 905
f 900 895 897
f 900 898 895
f 897 943 902
f 900 897 902
f 902 838 900
f 838 898 900
f 899 898 838
f 909 899 838
f 905 899 907
f 891 905 907
f 899 909 907
f 910 891 907
f 891 910 911
f 909 912 907
f 909 913 912
f 912 914 907
f 914 910 907
f 913 915 912
f 914 912 915
f 915 913 916
f 913 917 916
f 916 917 918
f 919 914 915
f 915 916 919
f 920 916 918
f 916 920 919
f 921 920 918
f 921 859 920
f 919 920 923
f 859 923 920
f 914 919 924
f 914 924 910
f 925 919 923
f 919 925 924
f 923 859 926
f 923 926 925
f 859 861 926
f 926 861 866
f 866 929 926
f 929 930 926
f 926 930 925
f 929 873 930
f 925 930 932
f 873 932 930
f 924 925 932
f 932 873 933
f 932 933 924
f 873 934 933
f 935 933 934
f 935 911 933
f 933 936 924
f 911 936 933
f 924 936 910
f 910 936 911
f 937 938 939
f 939 847 937
f 856 938 937
f 847 942 937
f 847 943 942
f 944 856 937
f 943 945 942
f 937 942 946
f 946 942 945
f 944 937 946
f 945 943 947
f 943 897 947
f 947 897 949
f 945 947 950
f 950 946 945
f 951 947 949
f 947 951 950
f 952 951 949
f 952 888 951
f 888 954 951
f 950 951 954
f 954 888 882
f 956 950 954
f 946 950 956
f 957 954 882
f 954 957 956
f 957 882 958
f 958 879 957
f 879 960 957
f 957 960 956
f 879 961 960
f 956 960 962
f 961 962 960
f 963 946 956
f 963 956 962
f 946 963 944
f 962 961 964
f 963 962 964
f 961 868 964
f 868 862 964
f 963 967 944
f 967 963 964
f 967 964 862
f 856 944 967
f 968 967 862
f 968 856 967
f 969 1017 1073
f 972 969 1073
f 1022 969 972
f 1015 1022 972
f 1022 1015 1105
f 1023 1022 1105
f 1046 1087 991
f 990 1046 991
f 990 987 1046
f 987 982 1046
f 982 987 1053
f 987 1057 1053
f 1061 1057 987
f 988 1061 987
f 1061 988 1062
f 987 990 988
f 990 991 1083
f 993 990 1083
f 990 993 988
f 993 1083 1082
f 988 995 1062
f 988 993 995
f 996 993 1082
f 993 996 995
f 995 997 1062
f 997 995 996
f 997 1065 1062
f 996 1082 999
f 999 997 996
f 1082 1000 999
f 999 1000 1112
f 997 1002 1065
f 997 999 1002
f 1002 1003 1065
f 1004 999 1112
f 999 1004 1002
f 1005 1003 1002
f 1112 1006 1004
f 1007 1005 1002
f 1002 1004 1007
f 1006 1008 1004
f 1004 1008 1007
f 1007 1009 1005
f 1009 1007 1008
f 1009 1010 1005
f 1011 1008 1006
f 1011 1009 1008
f 1012 1011 1006
f 1009 972 1010
f 1009 1011 972
f 972 1073 1010
f 1011 1015 972
f 1015 1011 1012
f 1105 1015 1012
f 1017 969 1078
f 969 1020 1078
f 1078 1020 1079
f 969 1022 1020
f 1022 1023 1102
f 1025 1022 1102
f 1022 1025 1020
f 1025 1102 1026
f 1020 1027 1079
f 1020 1025 1027
f 1028 1025 1026
f 1025 1028 1027
f 1079 1027 1029
f 1029 1027 1028
f 1055 1079 1029
f 1028 1026 1031
f 1031 1029 1028
f 1026 1032 1031
f 1031 1032 1096
f 1029 1034 1055
f 1034 1029 1031
f 1034 1035 1055
f 1036 1031 1096
f 1036 1034 1031
f 1036 1096 1093
f 1049 1035 1034
f 1039 1036 1093
f 1034 1036 1040
f 1040 1049 1034
f 1036 1039 1040
f 1039 1093 1041
f 1040 1042 1049
f 1042 1040 1039
f 1042 1043 1049
f 1044 1039 1041
f 1044 1042 1039
f 1041 1087 1046
f 1044 1041 1046
f 1046 982 1044
f 982 1042 1044
f 1043 1042 982
f 1053 1043 982
f 1049 1043 1051
f 1035 1049 1051
f 1043 1053 1051
f 1054 1035 1051
f 1035 1054 1055
f 1053 1056 1051
f 1053 1057 1056
f 1056 1058 1051
f 1058 1054 1051
f 1057 1059 1056
f 1058 1056 1059
f 1059 1057 1060
f 1057 1061 1060
f 1060 1061 1062
f 1063 1058 1059
f 1059 1060 1063
f 1064 1060 1062
f 1060 1064 1063
f 1065 1064 1062
f 1065 1003 1064
f 1063 1064 1067
f 1003 1067 1064
f 1058 1063 1068
f 1058 1068 1054
f 1069 1063 1067
f 1063 1069 1068
f 1067 1003 1070
f 1067 1070 1069
f 1003 1005 1070
f 1070 1005 1010
f 1010 1073 1070
f 1073 1074 1070
f 1070 1074 1069
f 1073 1017 1074
f 1069 1074 1076
f 1017 1076 1074
f 1068 1069 1076
f 1076 1017 1077
f 1076 1077 1068
f 1017 1078 1077
f 1079 1077 1078
f 1079 1055 1077
f 1077 1080 1068
f 1055 1080 1077
f 1068 1080 1054
f 1054 1080 1055
f 1081 1082 1083
f 1083 991 1081
f 1000 1082 1081
f 991 1086 1081
f 991 1087 1086
f 1088 1000 1081
f 1087 1089 1086
f 1081 1086 1090
f 1090 1086 1089
f 1088 1081 1090
f 1089 1087 1091
f 1087 1041 1091
f 1091 1041 1093
f 1089 1091 1094
f 1094 1090 1089
f 1095 1091 1093
f 1091 1095 1094
f 1096 1095 1093
f 1096 1032 1095
f 1032 1098 1095
f 1094 1095 1098
f 1098 1032 1026
f 1100 1094 1098
f 1090 1094 1100
f 1101 1098 1026
f 1098 1101 1100
f 1101 1026 1102
f 1102 1023 1101
f 1023 1104 1101
f 1101 1104 1100
f 1023 1105 1104
f 1100 1104 1106
f 1105 1106 1104
f 1107 1090 1100
f 1107 1100 1106
f 1090 1107 1088
f 1106 1105 1108
f 1107 1106 1108
f 1105 1012 1108
f 1012 1006 1108
f 1107 1111 1088
f 1111 1107 1108
f 1111 1108 1006
f 1000 1088 1111
f 1112 1111 1006
f 1112 1000 1111
f 1113 1161 1217
f 1116 1113 1217
f 1166 1113 1116
f 1159 1166 1116
f 1166 1159 1249
f 1167 1166 1249
f 1190 1231 1135
f 1134 1190 1135
f 1134 1131 1190
f 1131 1126 1190
f 1126 1131 1197
f 1131 1201 1197
f 1205 1201 1131
f 1132 1205 1131
f 1205 1132 1206
f 1131 1134 1132
f 1134 1135 1227
f 1137 1134 1227
f 1134 1137 1132
f 1137 1227 1226
f 1132 1139 1206
f 1132 1137 1139
f 1140 1137 1226
f 1137 1140 1139
f 1139 1141 1206
f 1141 1139 1140
f 1141 1209 1206
f 1140 1226 1143
f 1143 1141 1140
f 1226 1144 1143
f 1143 1144 1256
f 1141 1146 1209
f 1141 1143 1146
f 1146 1147 1209
f 1148 1143 1256
f 1143 1148 1146
f 1149 1147 1146
f 1256 1150 1148
f 1151 1149 1146
f 1146 1148 1151
f 1150 1152 1148
f 1148 1152 1151
f 1151 1153 1149
f 1153 1151 1152
f 1153 1154 1149
f 1155 1152 1150
f 1155 1153 1152
f 1156 1155 1150
f 1153 1116 1154
f 1153 1155 1116
f 1116 1217 1154
f 1155 1159 1116
f 1159 1155 1156
f 1249 1159 1156
f 1161 1113 1222
f 1113 1164 1222
f 1222 1164 1223
f 1113 1166 1164
f 1166 1167 1246
f 1169 1166 1246
f 1166 1169 1164
f 1169 1246 1170
f 1164 1171 1223
f 1164 1169 1171
f 1172 1169 1170
f 1169 1172 1171
f 1223 1171 1173
f 1173 1171 1172
f 1199 1223 1173
f 1172 1170 1175
f 1175 1173 1172
f 1170 1176 1175
f 1175 1176 1240
f 1173 1178 1199
f 1178 1173 1175
f 1178 1179 1199
f 1180 1175 1240
f 1180 1178 1175
f 1180 1240 1237
f 1193 1179 1178
f 1183 1180 1237
f 1178 1180 1184
f 1184 1193 1178
f 1180 1183 1184
f 1183 1237 1185
f 1184 1186 1193
f 1186 1184 1183
f 1186 1187 1193
f 1188 1183 1185
f 1188 1186 1183
f 1185 1231 1190
f 1188 1185 1190
f 1190 1126 1188
f 1126 1186 1188
f 1187 1186 1126
f 1197 1187 1126
f 1193 1187 1195
f 1179 1193 1195
f 1187 1197 1195
f 1198 1179 1195
f 1179 1198 1199
f 1197 1200 1195
f 1197 1201 1200
f 1200 1202 1195
f 1202 1198 1195
f 1201 1203 1200
f 1202 1200 1203
f 1203 1201 1204
f 1201 1205 1204
f 1204 1205 1206
f 1207 1202 1203
f 1203 1204 1207
f 1208 1204 1206
f 1204 1208 1207
f 1209 1208 1206
f 1209 1147 1208
f 1207 1208 1211
f 1147 1211 1208
f 1202 1207 1212
f 1202 1212 1198
f 1213 1207 1211
f 1207 1213 1212
f 1211 1147 1214
f 1211 1214 1213
f 1147 1149 1214
f 1214 1149 1154
f 1154 1217 1214
f 1217 1218 1214
f 1214 1218 1213
f 1217 1161 1218
f 1213 1218 1220
f 1161 1220 1218
f 1212 1213 1220
f 1220 1161 1221
f 1220 1221 1212
f 1161 1222 1221
f 1223 1221 1222
f 1223 1199 1221
f 1221 1224 1212
f 1199 1224 1221
f 1212 1224 1198
f 1198 1224 1199
f 1225 1226 1227
f 1227 1135 1225
f 1144 1226 1225
f 1135 1230 1225
f 1135 1231 1230
f 1232 1144 1225
f 1231 1233 1230
f 1225 1230 1234
f 1234 1230 1233
f 1232 1225 1234
f 1233 1231 1235
f 1231 1185 1235
f 1235 1185 1237
f 1233 1235 1238
f 1238 1234 1233
f 1239 1235 1237
f 1235 1239 1238
f 1240 1239 1237
f 1240 1176 1239
f 1176 1242 1239
f 1238 1239 1242
f 1242 1176 1170
f 1244 1238 1242
f 1234 1238 1244
f 1245 1242 1170
f 1242 1245 1244
f 1245 1170 1246
f 1246 1167 1245
f 1167 1248 1245
f 1245 1248 1244
f 1167 1249 1248
f 1244 1248 1250
f 1249 1250 1248
f 1251 1234 1244
f 1251 1244 1250
f 1234 1251 1232
f 1250 1249 1252
f 1251 1250 1252
f 1249 1156 1252
f 1156 1150 1252
f 1251 1255 1232
f 1255 1251 1252
f 1255 1252 1150
f 1144 1232 1255
f 1256 1255 1150
f 1256 1144 1255
