v -18.8746 499.964 18.8746
v -18.8261 499.984 18.0684
v -19.2752 499.944 18.8746
v -19.6862 499.941 18.0684
v -18.826 499.984 -18.0684
v -20 499.903 18.0684
v -19.6862 499.903 18.826
v -19.6862 499.941 -18.0684
v -18.8746 499.964 -18.8746
v -19.2752 499.944 -18.8746
v -20 499.903 -18.0684
v -19.6862 499.903 -18.8261
v -20 498.097 18.0684
v -19.6862 498.097 18.826
v -19.2752 498.056 18.8746
v -20 498.097 -18.0684
v -19.6862 498.097 -18.8261
v -19.2752 498.056 -18.8746
v -19.6862 498.059 18.0684
v -18.8746 498.036 18.8746
v -19.6862 498.059 -18.0684
v -18.8261 498.016 18.0684
v -18.826 498.016 -18.0684
v -18.8746 498.036 -18.8746
v -18.0684 498 18.0684
v -18.0684 498.016 18.826
v -18.0684 498 -18.0684
v -18.0684 498.016 -18.8261
v 18.0684 498.016 -18.826
v 18.0684 498 18.0684
v 18.0684 498.016 18.826
v 18.8746 498.036 18.8746
v 18.8261 498.016 18.0684
v 18.0684 498 -18.0684
v 18.8746 498.036 -18.8746
v 18.8261 498.016 -18.0684
v 18.8261 498.016 -18.0684
v 18.8746 498.036 -18.8746
v 19.2752 498.056 -18.8746
v 19.6862 498.059 -18.0684
v 19.6862 498.059 18.0684
v 18.8261 498.016 18.0684
v 18.8746 498.036 18.8746
v 19.2752 498.056 18.8746
v 20 498.097 -18.0684
v 19.6862 498.097 -18.826
v 20 498.097 18.0684
v 19.6862 498.097 18.826
v 19.6862 499.903 18.826
v 20 499.903 18.0684
v 19.2752 499.944 18.8746
v 20 499.903 -18.0684
v 19.6862 499.903 -18.826
v 19.2753 499.944 -18.8746
v 19.6862 499.941 18.0684
v 19.6862 499.941 -18.0684
v 18.826 499.984 18.0684
v 18.8746 499.964 18.8746
v 18.8261 499.984 -18.0684
v 18.8746 499.964 -18.8746
v 18.0684 500 18.0684
v 18.0684 499.984 18.826
v 18.0684 500 -18.0684
v 18.0684 499.984 -18.826
v -18.0684 499.984 -18.8261
v -18.0684 500 -18.0684
v -18.8746 499.964 -18.8746
v -18.826 499.984 -18.0684
v -18.0684 500 18.0684
v -18.8261 499.984 18.0684
v -18.0684 499.984 18.826
v -18.8746 499.964 18.8746
v -18.8746 499.964 18.8746
v -19.2752 499.944 18.8746
v -18.8746 499.944 19.2752
v -19.6862 499.903 18.826
v -18.0684 499.984 18.826
v -18.8261 499.903 19.6861
v -19.6862 498.097 18.826
v -18.0684 499.941 19.6861
v -18.8261 498.097 19.6861
v -18.0684 499.903 20
v -18.8746 498.056 19.2752
v -19.2752 498.056 18.8746
v -18.8746 498.036 18.8746
v -18.0684 498.016 18.826
v -18.0684 498.097 20
v -18.0684 498.059 19.6861
v 18.0684 498.016 18.826
v 18.0684 498.059 19.6862
v 18.0684 498.097 20
v 18.8746 498.056 19.2752
v 18.8746 498.036 18.8746
v 19.2752 498.056 18.8746
v 18.8261 498.097 19.6862
v 19.6862 498.097 18.826
v 19.6862 499.903 18.826
v 18.826 499.903 19.6862
v 18.0684 499.903 20
v 18.8746 499.944 19.2752
v 19.2752 499.944 18.8746
v 18.8746 499.964 18.8746
v 18.0684 499.984 18.826
v 18.0684 499.941 19.6862
v 18.8746 498.056 -19.2752
v 19.2752 498.056 -18.8746
v 18.8746 498.036 -18.8746
v 18.0684 498.016 -18.826
v 19.6862 498.097 -18.826
v 18.0684 498.059 -19.6862
v -18.0684 498.016 -18.8261
v 18.8261 498.097 -19.6862
v -18.0684 498.059 -19.6862
v 18.0684 498.097 -20
v 18.8261 499.903 -19.6862
v 19.6862 499.903 -18.826
v 19.2753 499.944 -18.8746
v -18.0684 498.097 -20
v 18.0684 499.903 -20
v 18.8746 499.944 -19.2752
v 18.8746 499.964 -18.8746
v 18.0684 499.984 -18.826
v 18.0684 499.941 -19.6862
v -18.0684 499.984 -18.8261
v -18.0684 499.903 -20
v -18.0684 499.941 -19.6862
v -18.8746 499.944 -19.2752
v -18.8746 499.964 -18.8746
v -19.2752 499.944 -18.8746
v -18.826 499.903 -19.6862
v -19.6862 499.903 -18.8261
v -18.826 498.097 -19.6862
v -19.6862 498.097 -18.8261
v -19.2752 498.056 -18.8746
v -18.8746 498.056 -19.2752
v -18.8746 498.036 -18.8746
v -18.8746 503.928 20.4719
v -18.8261 503.969 20.4517
v -19.2752 503.887 20.4719
v -19.6862 503.883 20.4517
v -18.826 503.969 19.5483
v -20 503.807 20.4517
v -19.6862 503.807 20.4707
v -19.6862 503.883 19.5483
v -18.8746 503.928 19.5281
v -19.2752 503.887 19.5281
v -20 503.807 19.5483
v -19.6862 503.807 19.5293
v -20 500.193 20.4517
v -19.6862 500.193 20.4707
v -19.2752 500.113 20.4719
v -20 500.193 19.5483
v -19.6862 500.193 19.5293
v -19.2752 500.113 19.5281
v -19.6862 500.117 20.4517
v -18.8746 500.072 20.4719
v -19.6862 500.117 19.5483
v -18.8261 500.031 20.4517
v -18.826 500.031 19.5483
v -18.8746 500.072 19.5281
v -18.0684 500 20.4517
v -18.0684 500.031 20.4707
v -18.0684 500 19.5483
v -18.0684 500.031 19.5293
v 18.0684 500.031 19.5293
v 18.0684 500 20.4517
v 18.0684 500.031 20.4707
v 18.8746 500.072 20.4719
v 18.8261 500.031 20.4517
v 18.0684 500 19.5483
v 18.8746 500.072 19.5281
v 18.8261 500.031 19.5483
v 18.8261 500.031 19.5483
v 18.8746 500.072 19.5281
v 19.2752 500.113 19.5281
v 19.6862 500.117 19.5483
v 19.6862 500.117 20.4517
v 18.8261 500.031 20.4517
v 18.8746 500.072 20.4719
v 19.2752 500.113 20.4719
v 20 500.193 19.5483
v 19.6862 500.193 19.5293
v 20 500.193 20.4517
v 19.6862 500.193 20.4707
v 19.6862 503.807 20.4707
v 20 503.807 20.4517
v 19.2752 503.887 20.4719
v 20 503.807 19.5483
v 19.6862 503.807 19.5293
v 19.2753 503.887 19.5281
v 19.6862 503.883 20.4517
v 19.6862 503.883 19.5483
v 18.826 503.969 20.4517
v 18.8746 503.928 20.4719
v 18.8261 503.969 19.5483
v 18.8746 503.928 19.5281
v 18.0684 504 20.4517
v 18.0684 503.969 20.4707
v 18.0684 504 19.5483
v 18.0684 503.969 19.5293
v -18.0684 503.969 19.5293
v -18.0684 504 19.5483
v -18.8746 503.928 19.5281
v -18.826 503.969 19.5483
v -18.0684 504 20.4517
v -18.8261 503.969 20.4517
v -18.0684 503.969 20.4707
v -18.8746 503.928 20.4719
v -18.8746 503.928 20.4719
v -19.2752 503.887 20.4719
v -18.8746 503.887 20.4819
v -19.6862 503.807 20.4707
v -18.0684 503.969 20.4707
v -18.8261 503.807 20.4922
v -19.6862 500.193 20.4707
v -18.0684 503.883 20.4922
v -18.8261 500.193 20.4922
v -18.0684 503.807 20.5
v -18.8746 500.113 20.4819
v -19.2752 500.113 20.4719
v -18.8746 500.072 20.4719
v -18.0684 500.031 20.4707
v -18.0684 500.193 20.5
v -18.0684 500.117 20.4922
v 18.0684 500.031 20.4707
v 18.0684 500.117 20.4922
v 18.0684 500.193 20.5
v 18.8746 500.113 20.4819
v 18.8746 500.072 20.4719
v 19.2752 500.113 20.4719
v 18.8261 500.193 20.4922
v 19.6862 500.193 20.4707
v 19.6862 503.807 20.4707
v 18.826 503.807 20.4922
v 18.0684 503.807 20.5
v 18.8746 503.887 20.4819
v 19.2752 503.887 20.4719
v 18.8746 503.928 20.4719
v 18.0684 503.969 20.4707
v 18.0684 503.883 20.4922
v 18.8746 500.113 19.5181
v 19.2752 500.113 19.5281
v 18.8746 500.072 19.5281
v 18.0684 500.031 19.5293
v 19.6862 500.193 19.5293
v 18.0684 500.117 19.5078
v -18.0684 500.031 19.5293
v 18.8261 500.193 19.5078
v -18.0684 500.117 19.5078
v 18.0684 500.193 19.5
v 18.8261 503.807 19.5078
v 19.6862 503.807 19.5293
v 19.2753 503.887 19.5281
v -18.0684 500.193 19.5
v 18.0684 503.807 19.5
v 18.8746 503.887 19.5181
v 18.8746 503.928 19.5281
v 18.0684 503.969 19.5293
v 18.0684 503.883 19.5078
v -18.0684 503.969 19.5293
v -18.0684 503.807 19.5
v -18.0684 503.883 19.5078
v -18.8746 503.887 19.5181
v -18.8746 503.928 19.5281
v -19.2752 503.887 19.5281
v -18.826 503.807 19.5078
v -19.6862 503.807 19.5293
v -18.826 500.193 19.5078
v -19.6862 500.193 19.5293
v -19.2752 500.113 19.5281
v -18.8746 500.113 19.5181
v -18.8746 500.072 19.5281
v -18.8746 503.928 -19.5281
v -18.8261 503.969 -19.5483
v -19.2752 503.887 -19.5281
v -19.6862 503.883 -19.5483
v -18.826 503.969 -20.4517
v -20 503.807 -19.5483
v -19.6862 503.807 -19.5293
v -19.6862 503.883 -20.4517
v -18.8746 503.928 -20.4719
v -19.2752 503.887 -20.4719
v -20 503.807 -20.4517
v -19.6862 503.807 -20.4707
v -20 500.193 -19.5483
v -19.6862 500.193 -19.5293
v -19.2752 500.113 -19.5281
v -20 500.193 -20.4517
v -19.6862 500.193 -20.4707
v -19.2752 500.113 -20.4719
v -19.6862 500.117 -19.5483
v -18.8746 500.072 -19.5281
v -19.6862 500.117 -20.4517
v -18.8261 500.031 -19.5483
v -18.826 500.031 -20.4517
v -18.8746 500.072 -20.4719
v -18.0684 500 -19.5483
v -18.0684 500.031 -19.5293
v -18.0684 500 -20.4517
v -18.0684 500.031 -20.4707
v 18.0684 500.031 -20.4707
v 18.0684 500 -19.5483
v 18.0684 500.031 -19.5293
v 18.8746 500.072 -19.5281
v 18.8261 500.031 -19.5483
v 18.0684 500 -20.4517
v 18.8746 500.072 -20.4719
v 18.8261 500.031 -20.4517
v 18.8261 500.031 -20.4517
v 18.8746 500.072 -20.4719
v 19.2752 500.113 -20.4719
v 19.6862 500.117 -20.4517
v 19.6862 500.117 -19.5483
v 18.8261 500.031 -19.5483
v 18.8746 500.072 -19.5281
v 19.2752 500.113 -19.5281
v 20 500.193 -20.4517
v 19.6862 500.193 -20.4707
v 20 500.193 -19.5483
v 19.6862 500.193 -19.5293
v 19.6862 503.807 -19.5293
v 20 503.807 -19.5483
v 19.2752 503.887 -19.5281
v 20 503.807 -20.4517
v 19.6862 503.807 -20.4707
v 19.2753 503.887 -20.4719
v 19.6862 503.883 -19.5483
v 19.6862 503.883 -20.4517
v 18.826 503.969 -19.5483
v 18.8746 503.928 -19.5281
v 18.8261 503.969 -20.4517
v 18.8746 503.928 -20.4719
v 18.0684 504 -19.5483
v 18.0684 503.969 -19.5293
v 18.0684 504 -20.4517
v 18.0684 503.969 -20.4707
v -18.0684 503.969 -20.4707
v -18.0684 504 -20.4517
v -18.8746 503.928 -20.4719
v -18.826 503.969 -20.4517
v -18.0684 504 -19.5483
v -18.8261 503.969 -19.5483
v -18.0684 503.969 -19.5293
v -18.8746 503.928 -19.5281
v -18.8746 503.928 -19.5281
v -19.2752 503.887 -19.5281
v -18.8746 503.887 -19.5181
v -19.6862 503.807 -19.5293
v -18.0684 503.969 -19.5293
v -18.8261 503.807 -19.5078
v -19.6862 500.193 -19.5293
v -18.0684 503.883 -19.5078
v -18.8261 500.193 -19.5078
v -18.0684 503.807 -19.5
v -18.8746 500.113 -19.5181
v -19.2752 500.113 -19.5281
v -18.8746 500.072 -19.5281
v -18.0684 500.031 -19.5293
v -18.0684 500.193 -19.5
v -18.0684 500.117 -19.5078
v 18.0684 500.031 -19.5293
v 18.0684 500.117 -19.5078
v 18.0684 500.193 -19.5
v 18.8746 500.113 -19.5181
v 18.8746 500.072 -19.5281
v 19.2752 500.113 -19.5281
v 18.8261 500.193 -19.5078
v 19.6862 500.193 -19.5293
v 19.6862 503.807 -19.5293
v 18.826 503.807 -19.5078
v 18.0684 503.807 -19.5
v 18.8746 503.887 -19.5181
v 19.2752 503.887 -19.5281
v 18.8746 503.928 -19.5281
v 18.0684 503.969 -19.5293
v 18.0684 503.883 -19.5078
v 18.8746 500.113 -20.4819
v 19.2752 500.113 -20.4719
v 18.8746 500.072 -20.4719
v 18.0684 500.031 -20.4707
v 19.6862 500.193 -20.4707
v 18.0684 500.117 -20.4922
v -18.0684 500.031 -20.4707
v 18.8261 500.193 -20.4922
v -18.0684 500.117 -20.4922
v 18.0684 500.193 -20.5
v 18.8261 503.807 -20.4922
v 19.6862 503.807 -20.4707
v 19.2753 503.887 -20.4719
v -18.0684 500.193 -20.5
v 18.0684 503.807 -20.5
v 18.8746 503.887 -20.4819
v 18.8746 503.928 -20.4719
v 18.0684 503.969 -20.4707
v 18.0684 503.883 -20.4922
v -18.0684 503.969 -20.4707
v -18.0684 503.807 -20.5
v -18.0684 503.883 -20.4922
v -18.8746 503.887 -20.4819
v -18.8746 503.928 -20.4719
v -19.2752 503.887 -20.4719
v -18.826 503.807 -20.4922
v -19.6862 503.807 -20.4707
v -18.826 500.193 -20.4922
v -19.6862 500.193 -20.4707
v -19.2752 500.113 -20.4719
v -18.8746 500.113 -20.4819
v -18.8746 500.072 -20.4719
v 19.5281 503.928 18.8746
v 19.5293 503.969 18.0684
v 19.5181 503.887 18.8746
v 19.5078 503.883 18.0684
v 19.5293 503.969 -18.0684
v 19.5 503.807 18.0684
v 19.5078 503.807 18.826
v 19.5078 503.883 -18.0684
v 19.5281 503.928 -18.8746
v 19.5181 503.887 -18.8746
v 19.5 503.807 -18.0684
v 19.5078 503.807 -18.8261
v 19.5 500.193 18.0684
v 19.5078 500.193 18.826
v 19.5181 500.113 18.8746
v 19.5 500.193 -18.0684
v 19.5078 500.193 -18.8261
v 19.5181 500.113 -18.8746
v 19.5078 500.117 18.0684
v 19.5281 500.072 18.8746
v 19.5078 500.117 -18.0684
v 19.5293 500.031 18.0684
v 19.5293 500.031 -18.0684
v 19.5281 500.072 -18.8746
v 19.5483 500 18.0684
v 19.5483 500.031 18.826
v 19.5483 500 -18.0684
v 19.5483 500.031 -18.8261
v 20.4517 500.031 -18.826
v 20.4517 500 18.0684
v 20.4517 500.031 18.826
v 20.4719 500.072 18.8746
v 20.4707 500.031 18.0684
v 20.4517 500 -18.0684
v 20.4719 500.072 -18.8746
v 20.4707 500.031 -18.0684
v 20.4707 500.031 -18.0684
v 20.4719 500.072 -18.8746
v 20.4819 500.113 -18.8746
v 20.4922 500.117 -18.0684
v 20.4922 500.117 18.0684
v 20.4707 500.031 18.0684
v 20.4719 500.072 18.8746
v 20.4819 500.113 18.8746
v 20.5 500.193 -18.0684
v 20.4922 500.193 -18.826
v 20.5 500.193 18.0684
v 20.4922 500.193 18.826
v 20.4922 503.807 18.826
v 20.5 503.807 18.0684
v 20.4819 503.887 18.8746
v 20.5 503.807 -18.0684
v 20.4922 503.807 -18.826
v 20.4819 503.887 -18.8746
v 20.4922 503.883 18.0684
v 20.4922 503.883 -18.0684
v 20.4707 503.969 18.0684
v 20.4719 503.928 18.8746
v 20.4707 503.969 -18.0684
v 20.4719 503.928 -18.8746
v 20.4517 504 18.0684
v 20.4517 503.969 18.826
v 20.4517 504 -18.0684
v 20.4517 503.969 -18.826
v 19.5483 503.969 -18.8261
v 19.5483 504 -18.0684
v 19.5281 503.928 -18.8746
v 19.5293 503.969 -18.0684
v 19.5483 504 18.0684
v 19.5293 503.969 18.0684
v 19.5483 503.969 18.826
v 19.5281 503.928 18.8746
v 19.5281 503.928 18.8746
v 19.5181 503.887 18.8746
v 19.5281 503.887 19.2752
v 19.5078 503.807 18.826
v 19.5483 503.969 18.826
v 19.5293 503.807 19.6861
v 19.5078 500.193 18.826
v 19.5483 503.883 19.6861
v 19.5293 500.193 19.6861
v 19.5483 503.807 20
v 19.5281 500.113 19.2752
v 19.5181 500.113 18.8746
v 19.5281 500.072 18.8746
v 19.5483 500.031 18.826
v 19.5483 500.193 20
v 19.5483 500.117 19.6861
v 20.4517 500.031 18.826
v 20.4517 500.117 19.6862
v 20.4517 500.193 20
v 20.4719 500.113 19.2752
v 20.4719 500.072 18.8746
v 20.4819 500.113 18.8746
v 20.4707 500.193 19.6862
v 20.4922 500.193 18.826
v 20.4922 503.807 18.826
v 20.4707 503.807 19.6862
v 20.4517 503.807 20
v 20.4719 503.887 19.2752
v 20.4819 503.887 18.8746
v 20.4719 503.928 18.8746
v 20.4517 503.969 18.826
v 20.4517 503.883 19.6862
v 20.4719 500.113 -19.2752
v 20.4819 500.113 -18.8746
v 20.4719 500.072 -18.8746
v 20.4517 500.031 -18.826
v 20.4922 500.193 -18.826
v 20.4517 500.117 -19.6862
v 19.5483 500.031 -18.8261
v 20.4707 500.193 -19.6862
v 19.5483 500.117 -19.6862
v 20.4517 500.193 -20
v 20.4707 503.807 -19.6862
v 20.4922 503.807 -18.826
v 20.4819 503.887 -18.8746
v 19.5483 500.193 -20
v 20.4517 503.807 -20
v 20.4719 503.887 -19.2752
v 20.4719 503.928 -18.8746
v 20.4517 503.969 -18.826
v 20.4517 503.883 -19.6862
v 19.5483 503.969 -18.8261
v 19.5483 503.807 -20
v 19.5483 503.883 -19.6862
v 19.5281 503.887 -19.2752
v 19.5281 503.928 -18.8746
v 19.5181 503.887 -18.8746
v 19.5293 503.807 -19.6862
v 19.5078 503.807 -18.8261
v 19.5293 500.193 -19.6862
v 19.5078 500.193 -18.8261
v 19.5181 500.113 -18.8746
v 19.5281 500.113 -19.2752
v 19.5281 500.072 -18.8746
v -20.4719 503.928 18.8746
v -20.4707 503.969 18.0684
v -20.4819 503.887 18.8746
v -20.4922 503.883 18.0684
v -20.4707 503.969 -18.0684
v -20.5 503.807 18.0684
v -20.4922 503.807 18.826
v -20.4922 503.883 -18.0684
v -20.4719 503.928 -18.8746
v -20.4819 503.887 -18.8746
v -20.5 503.807 -18.0684
v -20.4922 503.807 -18.8261
v -20.5 500.193 18.0684
v -20.4922 500.193 18.826
v -20.4819 500.113 18.8746
v -20.5 500.193 -18.0684
v -20.4922 500.193 -18.8261
v -20.4819 500.113 -18.8746
v -20.4922 500.117 18.0684
v -20.4719 500.072 18.8746
v -20.4922 500.117 -18.0684
v -20.4707 500.031 18.0684
v -20.4707 500.031 -18.0684
v -20.4719 500.072 -18.8746
v -20.4517 500 18.0684
v -20.4517 500.031 18.826
v -20.4517 500 -18.0684
v -20.4517 500.031 -18.8261
v -19.5483 500.031 -18.826
v -19.5483 500 18.0684
v -19.5483 500.031 18.826
v -19.5281 500.072 18.8746
v -19.5293 500.031 18.0684
v -19.5483 500 -18.0684
v -19.5281 500.072 -18.8746
v -19.5293 500.031 -18.0684
v -19.5293 500.031 -18.0684
v -19.5281 500.072 -18.8746
v -19.5181 500.113 -18.8746
v -19.5078 500.117 -18.0684
v -19.5078 500.117 18.0684
v -19.5293 500.031 18.0684
v -19.5281 500.072 18.8746
v -19.5181 500.113 18.8746
v -19.5 500.193 -18.0684
v -19.5078 500.193 -18.826
v -19.5 500.193 18.0684
v -19.5078 500.193 18.826
v -19.5078 503.807 18.826
v -19.5 503.807 18.0684
v -19.5181 503.887 18.8746
v -19.5 503.807 -18.0684
v -19.5078 503.807 -18.826
v -19.5181 503.887 -18.8746
v -19.5078 503.883 18.0684
v -19.5078 503.883 -18.0684
v -19.5293 503.969 18.0684
v -19.5281 503.928 18.8746
v -19.5293 503.969 -18.0684
v -19.5281 503.928 -18.8746
v -19.5483 504 18.0684
v -19.5483 503.969 18.826
v -19.5483 504 -18.0684
v -19.5483 503.969 -18.826
v -20.4517 503.969 -18.8261
v -20.4517 504 -18.0684
v -20.4719 503.928 -18.8746
v -20.4707 503.969 -18.0684
v -20.4517 504 18.0684
v -20.4707 503.969 18.0684
v -20.4517 503.969 18.826
v -20.4719 503.928 18.8746
v -20.4719 503.928 18.8746
v -20.4819 503.887 18.8746
v -20.4719 503.887 19.2752
v -20.4922 503.807 18.826
v -20.4517 503.969 18.826
v -20.4707 503.807 19.6861
v -20.4922 500.193 18.826
v -20.4517 503.883 19.6861
v -20.4707 500.193 19.6861
v -20.4517 503.807 20
v -20.4719 500.113 19.2752
v -20.4819 500.113 18.8746
v -20.4719 500.072 18.8746
v -20.4517 500.031 18.826
v -20.4517 500.193 20
v -20.4517 500.117 19.6861
v -19.5483 500.031 18.826
v -19.5483 500.117 19.6862
v -19.5483 500.193 20
v -19.5281 500.113 19.2752
v -19.5281 500.072 18.8746
v -19.5181 500.113 18.8746
v -19.5293 500.193 19.6862
v -19.5078 500.193 18.826
v -19.5078 503.807 18.826
v -19.5293 503.807 19.6862
v -19.5483 503.807 20
v -19.5281 503.887 19.2752
v -19.5181 503.887 18.8746
v -19.5281 503.928 18.8746
v -19.5483 503.969 18.826
v -19.5483 503.883 19.6862
v -19.5281 500.113 -19.2752
v -19.5181 500.113 -18.8746
v -19.5281 500.072 -18.8746
v -19.5483 500.031 -18.826
v -19.5078 500.193 -18.826
v -19.5483 500.117 -19.6862
v -20.4517 500.031 -18.8261
v -19.5293 500.193 -19.6862
v -20.4517 500.117 -19.6862
v -19.5483 500.193 -20
v -19.5293 503.807 -19.6862
v -19.5078 503.807 -18.826
v -19.5181 503.887 -18.8746
v -20.4517 500.193 -20
v -19.5483 503.807 -20
v -19.5281 503.887 -19.2752
v -19.5281 503.928 -18.8746
v -19.5483 503.969 -18.826
v -19.5483 503.883 -19.6862
v -20.4517 503.969 -18.8261
v -20.4517 503.807 -20
v -20.4517 503.883 -19.6862
v -20.4719 503.887 -19.2752
v -20.4719 503.928 -18.8746
v -20.4819 503.887 -18.8746
v -20.4707 503.807 -19.6862
v -20.4922 503.807 -18.8261
v -20.4707 500.193 -19.6862
v -20.4922 500.193 -18.8261
v -20.4819 500.113 -18.8746
v -20.4719 500.113 -19.2752
v -20.4719 500.072 -18.8746
f 72 70 3
f 70 4 3
f 70 68 4
f 3 4 6
f 7 3 6
f 68 8 4
f 6 4 8
f 68 9 10
f 8 68 10
f 8 10 11
f 11 6 8
f 10 131 11
f 6 13 7
f 13 14 7
f 14 13 84
f 6 11 16
f 16 11 131
f 13 6 16
f 133 16 131
f 133 18 16
f 13 19 84
f 13 16 19
f 84 19 85
f 18 21 16
f 16 21 19
f 19 22 85
f 19 21 22
f 23 21 18
f 21 23 22
f 24 23 18
f 85 22 25
f 25 22 23
f 26 85 25
f 27 23 24
f 27 25 23
f 28 27 24
f 27 28 108
f 25 30 26
f 30 25 27
f 30 31 26
f 93 31 30
f 33 93 30
f 34 27 108
f 34 30 27
f 30 34 33
f 34 108 107
f 34 36 33
f 36 34 107
f 36 107 39
f 40 36 39
f 40 41 36
f 41 33 36
f 33 41 93
f 41 94 93
f 40 39 45
f 39 109 45
f 47 41 40
f 94 41 47
f 45 47 40
f 96 94 47
f 96 47 49
f 47 50 49
f 47 45 50
f 49 50 101
f 52 45 109
f 45 52 50
f 53 52 109
f 53 117 52
f 50 55 101
f 50 52 55
f 117 56 52
f 52 56 55
f 55 57 101
f 57 55 56
f 57 102 101
f 59 56 117
f 59 57 56
f 121 59 117
f 102 57 61
f 61 57 59
f 103 102 61
f 63 59 121
f 63 61 59
f 64 63 121
f 63 64 124
f 66 63 124
f 63 66 61
f 66 124 9
f 68 66 9
f 66 69 61
f 69 66 68
f 61 69 103
f 70 69 68
f 69 71 103
f 70 72 69
f 72 71 69
f 72 3 75
f 3 7 75
f 71 72 75
f 7 78 75
f 78 7 14
f 80 71 75
f 81 78 14
f 78 82 75
f 82 78 81
f 82 80 75
f 81 14 83
f 14 84 83
f 85 83 84
f 85 26 83
f 81 83 87
f 87 82 81
f 26 88 83
f 83 88 87
f 88 26 31
f 87 88 90
f 90 88 31
f 87 91 82
f 91 87 90
f 90 31 92
f 91 90 92
f 31 93 92
f 93 94 92
f 95 92 94
f 95 91 92
f 96 95 94
f 96 49 95
f 91 95 98
f 49 98 95
f 91 99 82
f 99 91 98
f 82 99 80
f 98 49 100
f 98 100 99
f 49 101 100
f 102 100 101
f 102 103 100
f 99 104 80
f 100 104 99
f 103 104 100
f 71 80 104
f 103 71 104
f 105 39 107
f 107 108 105
f 109 39 105
f 108 110 105
f 108 28 110
f 112 109 105
f 28 113 110
f 114 112 105
f 110 114 105
f 112 115 109
f 115 112 114
f 115 53 109
f 53 115 117
f 118 114 110
f 113 118 110
f 119 115 114
f 119 114 118
f 115 120 117
f 120 115 119
f 117 120 121
f 64 121 120
f 123 64 120
f 123 120 119
f 64 123 124
f 119 125 123
f 125 119 118
f 123 126 124
f 125 126 123
f 124 126 127
f 127 126 125
f 9 124 127
f 127 10 9
f 130 127 125
f 127 130 10
f 125 118 130
f 130 131 10
f 131 130 132
f 118 132 130
f 133 131 132
f 133 132 18
f 135 132 118
f 132 135 18
f 113 135 118
f 18 135 24
f 113 28 135
f 28 24 135
f 208 206 139
f 206 140 139
f 206 204 140
f 139 140 142
f 143 139 142
f 204 144 140
f 142 140 144
f 204 145 146
f 144 204 146
f 144 146 147
f 147 142 144
f 146 267 147
f 142 149 143
f 149 150 143
f 150 149 220
f 142 147 152
f 152 147 267
f 149 142 152
f 269 152 267
f 269 154 152
f 149 155 220
f 149 152 155
f 220 155 221
f 154 157 152
f 152 157 155
f 155 158 221
f 155 157 158
f 159 157 154
f 157 159 158
f 160 159 154
f 221 158 161
f 161 158 159
f 162 221 161
f 163 159 160
f 163 161 159
f 164 163 160
f 163 164 244
f 161 166 162
f 166 161 163
f 166 167 162
f 229 167 166
f 169 229 166
f 170 163 244
f 170 166 163
f 166 170 169
f 170 244 243
f 170 172 169
f 172 170 243
f 172 243 175
f 176 172 175
f 176 177 172
f 177 169 172
f 169 177 229
f 177 230 229
f 176 175 181
f 175 245 181
f 183 177 176
f 230 177 183
f 181 183 176
f 232 230 183
f 232 183 185
f 183 186 185
f 183 181 186
f 185 186 237
f 188 181 245
f 181 188 186
f 189 188 245
f 189 253 188
f 186 191 237
f 186 188 191
f 253 192 188
f 188 192 191
f 191 193 237
f 193 191 192
f 193 238 237
f 195 192 253
f 195 193 192
f 257 195 253
f 238 193 197
f 197 193 195
f 239 238 197
f 199 195 257
f 199 197 195
f 200 199 257
f 199 200 260
f 202 199 260
f 199 202 197
f 202 260 145
f 204 202 145
f 202 205 197
f 205 202 204
f 197 205 239
f 206 205 204
f 205 207 239
f 206 208 205
f 208 207 205
f 208 139 211
f 139 143 211
f 207 208 211
f 143 214 211
f 214 143 150
f 216 207 211
f 217 214 150
f 214 218 211
f 218 214 217
f 218 216 211
f 217 150 219
f 150 220 219
f 221 219 220
f 221 162 219
f 217 219 223
f 223 218 217
f 162 224 219
f 219 224 223
f 224 162 167
f 223 224 226
f 226 224 167
f 223 227 218
f 227 223 226
f 226 167 228
f 227 226 228
f 167 229 228
f 229 230 228
f 231 228 230
f 231 227 228
f 232 231 230
f 232 185 231
f 227 231 234
f 185 234 231
f 227 235 218
f 235 227 234
f 218 235 216
f 234 185 236
f 234 236 235
f 185 237 236
f 238 236 237
f 238 239 236
f 235 240 216
f 236 240 235
f 239 240 236
f 207 216 240
f 239 207 240
f 241 175 243
f 243 244 241
f 245 175 241
f 244 246 241
f 244 164 246
f 248 245 241
f 164 249 246
f 250 248 241
f 246 250 241
f 248 251 245
f 251 248 250
f 251 189 245
f 189 251 253
f 254 250 246
f 249 254 246
f 255 251 250
f 255 250 254
f 251 256 253
f 256 251 255
f 253 256 257
f 200 257 256
f 259 200 256
f 259 256 255
f 200 259 260
f 255 261 259
f 261 255 254
f 259 262 260
f 261 262 259
f 260 262 263
f 263 262 261
f 145 260 263
f 263 146 145
f 266 263 261
f 263 266 146
f 261 254 266
f 266 267 146
f 267 266 268
f 254 268 266
f 269 267 268
f 269 268 154
f 271 268 254
f 268 271 154
f 249 271 254
f 154 271 160
f 249 164 271
f 164 160 271
f 344 342 275
f 342 276 275
f 342 340 276
f 275 276 278
f 279 275 278
f 340 280 276
f 278 276 280
f 340 281 282
f 280 340 282
f 280 282 283
f 283 278 280
f 282 403 283
f 278 285 279
f 285 286 279
f 286 285 356
f 278 283 288
f 288 283 403
f 285 278 288
f 405 288 403
f 405 290 288
f 285 291 356
f 285 288 291
f 356 291 357
f 290 293 288
f 288 293 291
f 291 294 357
f 291 293 294
f 295 293 290
f 293 295 294
f 296 295 290
f 357 294 297
f 297 294 295
f 298 357 297
f 299 295 296
f 299 297 295
f 300 299 296
f 299 300 380
f 297 302 298
f 302 297 299
f 302 303 298
f 365 303 302
f 305 365 302
f 306 299 380
f 306 302 299
f 302 306 305
f 306 380 379
f 306 308 305
f 308 306 379
f 308 379 311
f 312 308 311
f 312 313 308
f 313 305 308
f 305 313 365
f 313 366 365
f 312 311 317
f 311 381 317
f 319 313 312
f 366 313 319
f 317 319 312
f 368 366 319
f 368 319 321
f 319 322 321
f 319 317 322
f 321 322 373
f 324 317 381
f 317 324 322
f 325 324 381
f 325 389 324
f 322 327 373
f 322 324 327
f 389 328 324
f 324 328 327
f 327 329 373
f 329 327 328
f 329 374 373
f 331 328 389
f 331 329 328
f 393 331 389
f 374 329 333
f 333 329 331
f 375 374 333
f 335 331 393
f 335 333 331
f 336 335 393
f 335 336 396
f 338 335 396
f 335 338 333
f 338 396 281
f 340 338 281
f 338 341 333
f 341 338 340
f 333 341 375
f 342 341 340
f 341 343 375
f 342 344 341
f 344 343 341
f 344 275 347
f 275 279 347
f 343 344 347
f 279 350 347
f 350 279 286
f 352 343 347
f 353 350 286
f 350 354 347
f 354 350 353
f 354 352 347
f 353 286 355
f 286 356 355
f 357 355 356
f 357 298 355
f 353 355 359
f 359 354 353
f 298 360 355
f 355 360 359
f 360 298 303
f 359 360 362
f 362 360 303
f 359 363 354
f 363 359 362
f 362 303 364
f 363 362 364
f 303 365 364
f 365 366 364
f 367 364 366
f 367 363 364
f 368 367 366
f 368 321 367
f 363 367 370
f 321 370 367
f 363 371 354
f 371 363 370
f 354 371 352
f 370 321 372
f 370 372 371
f 321 373 372
f 374 372 373
f 374 375 372
f 371 376 352
f 372 376 371
f 375 376 372
f 343 352 376
f 375 343 376
f 377 311 379
f 379 380 377
f 381 311 377
f 380 382 377
f 380 300 382
f 384 381 377
f 300 385 382
f 386 384 377
f 382 386 377
f 384 387 381
f 387 384 386
f 387 325 381
f 325 387 389
f 390 386 382
f 385 390 382
f 391 387 386
f 391 386 390
f 387 392 389
f 392 387 391
f 389 392 393
f 336 393 392
f 395 336 392
f 395 392 391
f 336 395 396
f 391 397 395
f 397 391 390
f 395 398 396
f 397 398 395
f 396 398 399
f 399 398 397
f 281 396 399
f 399 282 281
f 402 399 397
f 399 402 282
f 397 390 402
f 402 403 282
f 403 402 404
f 390 404 402
f 405 403 404
f 405 404 290
f 407 404 390
f 404 407 290
f 385 407 390
f 290 407 296
f 385 300 407
f 300 296 407
f 480 478 411
f 478 412 411
f 478 476 412
f 411 412 414
f 415 411 414
f 476 416 412
f 414 412 416
f 476 417 418
f 416 476 418
f 416 418 419
f 419 414 416
f 418 539 419
f 414 421 415
f 421 422 415
f 422 421 492
f 414 419 424
f 424 419 539
f 421 414 424
f 541 424 539
f 541 426 424
f 421 427 492
f 421 424 427
f 492 427 493
f 426 429 424
f 424 429 427
f 427 430 493
f 427 429 430
f 431 429 426
f 429 431 430
f 432 431 426
f 493 430 433
f 433 430 431
f 434 493 433
f 435 431 432
f 435 433 431
f 436 435 432
f 435 436 516
f 433 438 434
f 438 433 435
f 438 439 434
f 501 439 438
f 441 501 438
f 442 435 516
f 442 438 435
f 438 442 441
f 442 516 515
f 442 444 441
f 444 442 515
f 444 515 447
f 448 444 447
f 448 449 444
f 449 441 444
f 441 449 501
f 449 502 501
f 448 447 453
f 447 517 453
f 455 449 448
f 502 449 455
f 453 455 448
f 504 502 455
f 504 455 457
f 455 458 457
f 455 453 458
f 457 458 509
f 460 453 517
f 453 460 458
f 461 460 517
f 461 525 460
f 458 463 509
f 458 460 463
f 525 464 460
f 460 464 463
f 463 465 509
f 465 463 464
f 465 510 509
f 467 464 525
f 467 465 464
f 529 467 525
f 510 465 469
f 469 465 467
f 511 510 469
f 471 467 529
f 471 469 467
f 472 471 529
f 471 472 532
f 474 471 532
f 471 474 469
f 474 532 417
f 476 474 417
f 474 477 469
f 477 474 476
f 469 477 511
f 478 477 476
f 477 479 511
f 478 480 477
f 480 479 477
f 480 411 483
f 411 415 483
f 479 480 483
f 415 486 483
f 486 415 422
f 488 479 483
f 489 486 422
f 486 490 483
f 490 486 489
f 490 488 483
f 489 422 491
f 422 492 491
f 493 491 492
f 493 434 491
f 489 491 495
f 495 490 489
f 434 496 491
f 491 496 495
f 496 434 439
f 495 496 498
f 498 496 439
f 495 499 490
f 499 495 498
f 498 439 500
f 499 498 500
f 439 501 500
f 501 502 500
f 503 500 502
f 503 499 500
f 504 503 502
f 504 457 503
f 499 503 506
f 457 506 503
f 499 507 490
f 507 499 506
f 490 507 488
f 506 457 508
f 506 508 507
f 457 509 508
f 510 508 509
f 510 511 508
f 507 512 488
f 508 512 507
f 511 512 508
f 479 488 512
f 511 479 512
f 513 447 515
f 515 516 513
f 517 447 513
f 516 518 513
f 516 436 518
f 520 517 513
f 436 521 518
f 522 520 513
f 518 522 513
f 520 523 517
f 523 520 522
f 523 461 517
f 461 523 525
f 526 522 518
f 521 526 518
f 527 523 522
f 527 522 526
f 523 528 525
f 528 523 527
f 525 528 529
f 472 529 528
f 531 472 528
f 531 528 527
f 472 531 532
f 527 533 531
f 533 527 526
f 531 534 532
f 533 534 531
f 532 534 535
f 535 534 533
f 417 532 535
f 535 418 417
f 538 535 533
f 535 538 418
f 533 526 538
f 538 539 418
f 539 538 540
f 526 540 538
f 541 539 540
f 541 540 426
f 543 540 526
f 540 543 426
f 521 543 526
f 426 543 432
f 521 436 543
f 436 432 543
f 616 614 547
f 614 548 547
f 614 612 548
f 547 548 550
f 551 547 550
f 612 552 548
f 550 548 552
f 612 553 554
f 552 612 554
f 552 554 555
f 555 550 552
f 554 675 555
f 550 557 551
f 557 558 551
f 558 557 628
f 550 555 560
f 560 555 675
f 557 550 560
f 677 560 675
f 677 562 560
f 557 563 628
f 557 560 563
f 628 563 629
f 562 565 560
f 560 565 563
f 563 566 629
f 563 565 566
f 567 565 562
f 565 567 566
f 568 567 562
f 629 566 569
f 569 566 567
f 570 629 569
f 571 567 568
f 571 569 567
f 572 571 568
f 571 572 652
f 569 574 570
f 574 569 571
f 574 575 570
f 637 575 574
f 577 637 574
f 578 571 652
f 578 574 571
f 574 578 577
f 578 652 651
f 578 580 577
f 580 578 651
f 580 651 583
f 584 580 583
f 584 585 580
f 585 577 580
f 577 585 637
f 585 638 637
f 584 583 589
f 583 653 589
f 591 585 584
f 638 585 591
f 589 591 584
f 640 638 591
f 640 591 593
f 591 594 593
f 591 589 594
f 593 594 645
f 596 589 653
f 589 596 594
f 597 596 653
f 597 661 596
f 594 599 645
f 594 596 599
f 661 600 596
f 596 600 599
f 599 601 645
f 601 599 600
f 601 646 645
f 603 600 661
f 603 601 600
f 665 603 661
f 646 601 605
f 605 601 603
f 647 646 605
f 607 603 665
f 607 605 603
f 608 607 665
f 607 608 668
f 610 607 668
f 607 610 605
f 610 668 553
f 612 610 553
f 610 613 605
f 613 610 612
f 605 613 647
f 614 613 612
f 613 615 647
f 614 616 613
f 616 615 613
f 616 547 619
f 547 551 619
f 615 616 619
f 551 622 619
f 622 551 558
f 624 615 619
f 625 622 558
f 622 626 619
f 626 622 625
f 626 624 619
f 625 558 627
f 558 628 627
f 629 627 628
f 629 570 627
f 625 627 631
f 631 626 625
f 570 632 627
f 627 632 631
f 632 570 575
f 631 632 634
f 634 632 575
f 631 635 626
f 635 631 634
f 634 575 636
f 635 634 636
f 575 637 636
f 637 638 636
f 639 636 638
f 639 635 636
f 640 639 638
f 640 593 639
f 635 639 642
f 593 642 639
f 635 643 626
f 643 635 642
f 626 643 624
f 642 593 644
f 642 644 643
f 593 645 644
f 646 644 645
f 646 647 644
f 643 648 624
f 644 648 643
f 647 648 644
f 615 624 648
f 647 615 648
f 649 583 651
f 651 652 649
f 653 583 649
f 652 654 649
f 652 572 654
f 656 653 649
f 572 657 654
f 658 656 649
f 654 658 649
f 656 659 653
f 659 656 658
f 659 597 653
f 597 659 661
f 662 658 654
f 657 662 654
f 663 659 658
f 663 658 662
f 659 664 661
f 664 659 663
f 661 664 665
f 608 665 664
f 667 608 664
f 667 664 663
f 608 667 668
f 663 669 667
f 669 663 662
f 667 670 668
f 669 670 667
f 668 670 671
f 671 670 669
f 553 668 671
f 671 554 553
f 674 671 669
f 671 674 554
f 669 662 674
f 674 675 554
f 675 674 676
f 662 676 674
f 677 675 676
f 677 676 562
f 679 676 662
f 676 679 562
f 657 679 662
f 562 679 568
f 657 572 679
f 572 568 679
